<?xml version="1.0" encoding="UTF-8"?>
<svg id="Layer_1" data-name="Layer 1" xmlns="http://www.w3.org/2000/svg" version="1.1" viewBox="0 0 750 500">
  <defs>
    <style>
      .cls-1 {
        fill: #f5f5f5;
      }

      .cls-1, .cls-2, .cls-3, .cls-4, .cls-5, .cls-6, .cls-7, .cls-8 {
        stroke-width: 0px;
      }

      .cls-9, .cls-10, .cls-11, .cls-12, .cls-13, .cls-14, .cls-15, .cls-16, .cls-17, .cls-18 {
        stroke: #263238;
        stroke-linecap: round;
        stroke-linejoin: round;
      }

      .cls-9, .cls-19, .cls-7, .cls-20 {
        fill: #fff;
      }

      .cls-10 {
        fill: #558398;
      }

      .cls-2 {
        fill: #bfb011;
      }

      .cls-3 {
        fill: #ebebeb;
      }

      .cls-11 {
        stroke-width: 3px;
      }

      .cls-11, .cls-14, .cls-15, .cls-18 {
        fill: none;
      }

      .cls-4, .cls-13 {
        fill: #263238;
      }

      .cls-5 {
        fill: #e0e0e0;
      }

      .cls-12 {
        fill: #99a5be;
      }

      .cls-14 {
        stroke-width: 4px;
      }

      .cls-21 {
        opacity: .2;
      }

      .cls-6, .cls-16 {
        fill: #b1e3e1;
      }

      .cls-22, .cls-19 {
        opacity: .4;
      }

      .cls-19 {
        isolation: isolate;
      }

      .cls-19, .cls-20 {
        stroke: #fff;
        stroke-miterlimit: 10;
      }

      .cls-17 {
        fill: #a3a3a3;
      }

      .cls-8 {
        fill: #d4d6ee;
      }

      .cls-18 {
        stroke-width: 7px;
      }
    </style>
  </defs>
  <rect class="cls-12" y=".6" width="750" height="498.7"/>
  <g>
    <g id="freepik--Data--inject-19">
      <polygon class="cls-9" points="233.3 119.4 207.8 119.4 207.8 78.4 227.8 78.4 233.3 84.8 233.3 119.4"/>
      <polygon class="cls-13" points="228.5 84.2 228.5 85.8 233.3 84.8 228.5 84.2"/>
      <polygon class="cls-9" points="227.8 78.4 227.8 84.8 233.3 84.8 227.8 78.4"/>
      <line class="cls-15" x1="211" y1="87.3" x2="230.7" y2="87.3"/>
      <line class="cls-15" x1="211" y1="93.2" x2="230.7" y2="93.2"/>
      <line class="cls-15" x1="211" y1="99" x2="230.7" y2="99"/>
      <line class="cls-15" x1="211" y1="104.9" x2="230.7" y2="104.9"/>
      <line class="cls-15" x1="211" y1="110.8" x2="230.7" y2="110.8"/>
      <line class="cls-15" x1="166.9" y1="172.5" x2="170.4" y2="172.5"/>
      <line class="cls-15" x1="169" y1="176" x2="170.4" y2="176"/>
      <line class="cls-15" x1="167.2" y1="183" x2="170.4" y2="183"/>
      <polygon class="cls-16" points="219.9 215.9 198.8 215.9 198.8 182 215.3 182 219.9 187.3 219.9 215.9"/>
      <polygon class="cls-13" points="215.9 186.8 215.9 188.2 219.9 187.3 215.9 186.8"/>
      <polygon class="cls-9" points="215.3 182 215.3 187.3 219.9 187.3 215.3 182"/>
      <line class="cls-15" x1="201.5" y1="189.4" x2="217.7" y2="189.4"/>
      <line class="cls-15" x1="201.5" y1="194.2" x2="217.7" y2="194.2"/>
      <line class="cls-15" x1="201.5" y1="199" x2="217.7" y2="199"/>
      <line class="cls-15" x1="201.5" y1="203.9" x2="217.7" y2="203.9"/>
      <line class="cls-15" x1="201.5" y1="208.7" x2="217.7" y2="208.7"/>
      <polygon class="cls-16" points="197.7 123.2 172.2 123.2 172.2 82.2 192.3 82.2 197.7 88.6 197.7 123.2"/>
      <polygon class="cls-13" points="193 88 193 89.6 197.7 88.6 193 88"/>
      <polygon class="cls-9" points="192.3 82.2 192.3 88.6 197.7 88.6 192.3 82.2"/>
      <line class="cls-15" x1="175.5" y1="91.1" x2="195.1" y2="91.1"/>
      <line class="cls-15" x1="175.5" y1="97" x2="195.1" y2="97"/>
      <line class="cls-15" x1="175.5" y1="102.8" x2="195.1" y2="102.8"/>
      <line class="cls-15" x1="175.5" y1="108.7" x2="195.1" y2="108.7"/>
      <line class="cls-15" x1="175.5" y1="114.6" x2="195.1" y2="114.6"/>
      <polygon class="cls-16" points="252.4 142 226.9 142 226.9 101 246.9 101 252.4 107.4 252.4 142"/>
      <polygon class="cls-13" points="247.6 106.7 247.6 108.4 252.4 107.4 247.6 106.7"/>
      <polygon class="cls-9" points="246.9 101 246.9 107.4 252.4 107.4 246.9 101"/>
      <line class="cls-15" x1="230.1" y1="109.9" x2="249.7" y2="109.9"/>
      <line class="cls-15" x1="230.1" y1="115.7" x2="249.7" y2="115.7"/>
      <line class="cls-15" x1="230.1" y1="121.6" x2="249.7" y2="121.6"/>
      <line class="cls-15" x1="230.1" y1="127.5" x2="249.7" y2="127.5"/>
      <line class="cls-15" x1="230.1" y1="133.3" x2="249.7" y2="133.3"/>
      <path class="cls-9" d="M187.3,112.6h28.1c3.1,0,5.6,3,5.6,6.8v40.3c0,3.7-2.5,6.8-5.6,6.8h-28.1c-3.1,0-5.6-3-5.6-6.8v-40.3c0-3.7,2.5-6.8,5.6-6.8Z"/>
      <path class="cls-13" d="M216.6,112.6h-30.5c-2.4,0-4.4,2.4-4.4,5.3h0v1.1s39.2,0,39.2,0v-1.1c0-2.9-1.9-5.3-4.3-5.3Z"/>
      <line class="cls-15" x1="187.4" y1="128.4" x2="215.4" y2="128.4"/>
      <line class="cls-15" x1="187.4" y1="136.7" x2="215.4" y2="136.7"/>
      <line class="cls-15" x1="187.4" y1="145" x2="215.4" y2="145"/>
      <line class="cls-15" x1="187.4" y1="153.3" x2="215.4" y2="153.3"/>
      <path class="cls-7" d="M211,115.7c0-.8-.6-1.5-1.2-1.5s-1.2.7-1.2,1.5.6,1.5,1.2,1.5h0c.7,0,1.2-.7,1.2-1.5Z"/>
      <path class="cls-7" d="M215.1,115.7c0-.8-.6-1.5-1.2-1.5s-1.2.7-1.2,1.5.6,1.5,1.2,1.5h0c.7,0,1.2-.7,1.2-1.5Z"/>
      <path class="cls-7" d="M219.2,115.7c0-.8-.6-1.5-1.2-1.5-.7,0-1.2.7-1.2,1.5,0,.8.6,1.5,1.2,1.5,0,0,0,0,0,0,.7,0,1.2-.7,1.2-1.5,0,0,0,0,0,0Z"/>
      <path class="cls-9" d="M172.5,156.7h16c3.1,0,5.6,3,5.6,6.8v23.8c0,3.7-2.5,6.8-5.6,6.8h-16c-3.1,0-5.6-3-5.6-6.8v-23.8c0-3.7,2.5-6.8,5.6-6.8Z"/>
      <path class="cls-13" d="M191.1,156.7h-21.2c-1.7,0-3,1.6-3,3.6v.8s27.2,0,27.2,0v-.8c0-2-1.3-3.6-3-3.6Z"/>
      <line class="cls-15" x1="170.8" y1="167.6" x2="190.2" y2="167.6"/>
      <line class="cls-15" x1="170.8" y1="173.4" x2="190.2" y2="173.4"/>
      <line class="cls-15" x1="170.8" y1="179.1" x2="190.2" y2="179.1"/>
      <line class="cls-15" x1="170.8" y1="184.9" x2="190.2" y2="184.9"/>
      <ellipse class="cls-7" cx="186.3" cy="158.8" rx=".9" ry="1"/>
      <path class="cls-7" d="M189.1,157.7c.5,0,.9.5.9,1s-.4,1-.9,1-.9-.5-.9-1,.4-1,.9-1Z"/>
      <path class="cls-7" d="M192.9,158.8c0-.6-.4-1-.9-1s-.9.5-.9,1,.4,1,.9,1,.9-.5.9-1h0Z"/>
      <polygon class="cls-9" points="223.2 157 223.2 191.6 248.7 191.6 248.7 150.5 228.7 150.5 223.2 157"/>
      <polygon class="cls-13" points="228 156.3 228 158 223.2 157 228 156.3"/>
      <polygon class="cls-9" points="228.7 150.5 228.7 157 223.2 157 228.7 150.5"/>
      <line class="cls-15" x1="245.5" y1="159.5" x2="225.8" y2="159.5"/>
      <line class="cls-15" x1="245.5" y1="165.3" x2="225.8" y2="165.3"/>
      <line class="cls-15" x1="245.5" y1="171.2" x2="225.8" y2="171.2"/>
      <line class="cls-15" x1="245.5" y1="177.1" x2="225.8" y2="177.1"/>
      <rect class="cls-13" x="223.2" y="182" width="25.5" height="9.6"/>
      <rect class="cls-13" x="235" y="159.7" width="17.6" height="10.3"/>
      <path class="cls-7" d="M242.2,161.1c.9,0,1.3.6,1.3,1.7v.8c.1.8-.3,1.5-1,1.7-.1,0-.2,0-.3,0h-.6v2.7h-.6s0-6.9,0-6.9h1.2ZM242.2,164.6c.5,0,.7-.3.7-.9v-.9c0-.6-.2-.9-.6-.9h-.6v2.8s.6,0,.6,0Z"/>
      <path class="cls-7" d="M245.4,161.1c.9,0,1.3.7,1.3,1.7v3.5c0,1.1-.4,1.7-1.3,1.7h-1.4s0-6.9,0-6.9h1.4ZM245.4,167.3c.5,0,.6-.3.6-1v-3.6c0-.6-.2-1-.7-1h-.7v5.5s.7,0,.7,0Z"/>
      <path class="cls-7" d="M249.2,164.3v.7h-1.3v3h-.6s0-6.9,0-6.9h2.3s0,.7,0,.7h-1.6v2.5s1.3,0,1.3,0Z"/>
    </g>
    <g id="freepik--Bot--inject-19">
      <path class="cls-4" d="M326.7,173.6c.7,0,1.2.6,1.2,1.4,0,0,0,0,0,0v9c0,.8-.6,1.4-1.3,1.3-.6,0-1.1-.6-1.1-1.3v-9c0-.8.5-1.4,1.2-1.4h0Z"/>
      <path class="cls-4" d="M323.8,173.6c.7,0,1.2.6,1.2,1.4h0v9c0,.8-.6,1.4-1.3,1.3-.6,0-1.1-.6-1.1-1.3v-9c0-.8.5-1.4,1.2-1.4Z"/>
      <path class="cls-4" d="M321,173.6h0c.7,0,1.2.6,1.2,1.4,0,0,0,0,0,0v9c0,.8-.5,1.4-1.2,1.4,0,0,0,0,0,0h0c-.7,0-1.2-.6-1.2-1.4,0,0,0,0,0,0v-9c0-.8.5-1.4,1.2-1.4,0,0,0,0,0,0Z"/>
      <path class="cls-4" d="M318.1,173.6c.7,0,1.2.6,1.2,1.4h0v9c0,.8-.6,1.4-1.3,1.3-.6,0-1.1-.6-1.1-1.3v-9c0-.8.5-1.4,1.2-1.4Z"/>
      <path class="cls-4" d="M315.2,173.6c.7,0,1.2.6,1.2,1.4,0,0,0,0,0,0v9c0,.8-.5,1.4-1.2,1.4-.7,0-1.2-.6-1.2-1.4v-9c0-.8.5-1.4,1.2-1.4,0,0,0,0,0,0Z"/>
      <path class="cls-4" d="M312.3,173.6h0c.7,0,1.2.6,1.2,1.4h0v9c0,.8-.5,1.4-1.2,1.4h0c-.7,0-1.2-.6-1.2-1.4v-9c0-.8.5-1.4,1.2-1.4Z"/>
      <path class="cls-4" d="M309.5,173.6c.7,0,1.2.6,1.2,1.4,0,0,0,0,0,0v9c0,.8-.5,1.4-1.2,1.4-.7,0-1.2-.6-1.2-1.4v-9c0-.8.5-1.4,1.2-1.4,0,0,0,0,0,0Z"/>
      <path class="cls-4" d="M306.6,173.6c.7,0,1.2.6,1.2,1.4v9c0,.8-.6,1.4-1.3,1.3-.6,0-1.1-.6-1.1-1.3v-9c0-.8.5-1.4,1.2-1.4h0Z"/>
      <path class="cls-4" d="M303.7,173.6c.7,0,1.2.6,1.2,1.4,0,0,0,0,0,0v9c0,.8-.5,1.4-1.2,1.4-.7,0-1.2-.6-1.2-1.4v-9c0-.8.5-1.4,1.2-1.4,0,0,0,0,0,0Z"/>
      <path class="cls-4" d="M300.9,173.6c.7,0,1.2.6,1.2,1.4v9c0,.8-.6,1.4-1.3,1.3-.6,0-1.1-.6-1.1-1.3v-9c0-.8.5-1.4,1.2-1.4h0Z"/>
      <path class="cls-4" d="M298,173.6c.7,0,1.2.6,1.2,1.4,0,0,0,0,0,0v9c0,.8-.5,1.4-1.2,1.4-.7,0-1.2-.6-1.2-1.4v-9c0-.8.5-1.4,1.2-1.4,0,0,0,0,0,0Z"/>
      <path class="cls-4" d="M295.9,173.6c0,.1,0,.3,0,.4.2.3.3.6.4,1v9c0,.4-.1.7-.4,1-.5.3-1.1.4-1.7.4-1.4,0-2.2-.6-1.9-1.4l3.1-9c.2-.5.4-.9.5-1.4Z"/>
      <path class="cls-4" d="M295.9,173.6c-.2.5-.4.9-.6,1.4l-3.8,9c-.3.8-1.6,1.4-3,1.4s-1.9-.6-1.2-1.4l7.4-9,.9-1c.2-.3.3-.4.3-.4Z"/>
      <path class="cls-4" d="M295.9,173.6c-.1.1-.2.2-.3.4l-.8,1-7.4,9c-.6.8-1.2.1-1.2-1.6s.5-3.3,1.2-3.7l7.4-4.5c.4-.2.8-.4,1.2-.7Z"/>
      <path class="cls-4" d="M295.9,173.6c-.4.2-.8.3-1.2.6l-7.4,3.6c-.6.3-1.2-.7-1.2-2.4,0-.4,0-.8,0-1.2,0-.2,0-.3.1-.5,0,0,0-.1,0-.2h0c.2-.4.5-.5.8-.5h7.4c.3,0,.6.2.8.4h0c0,.1,0,.2,0,.2h.2Z"/>
      <path class="cls-4" d="M295.9,170.9c0,.8-.5,1.5-1.2,1.5,0,0,0,0,0,0h-7.4c-.7,0-1.2-.8-1.1-1.6,0-.7.5-1.3,1.1-1.4h7.4c.7,0,1.2.7,1.2,1.5,0,0,0,0,0,0Z"/>
      <path class="cls-4" d="M295.9,167.3c0,.8-.5,1.5-1.2,1.5,0,0,0,0,0,0h-7.4c-.7,0-1.2-.8-1.1-1.6,0-.7.5-1.3,1.1-1.4h7.4c.7,0,1.2.7,1.2,1.5,0,0,0,0,0,0Z"/>
      <path class="cls-4" d="M295.9,163.8c0,.8-.5,1.5-1.2,1.5,0,0,0,0,0,0h-7.4c-.7,0-1.2-.8-1.1-1.6,0-.7.5-1.3,1.1-1.4h7.4c.7,0,1.2.7,1.2,1.5,0,0,0,0,0,0Z"/>
      <path class="cls-4" d="M295.9,160.3c0,.8-.5,1.5-1.2,1.5,0,0,0,0,0,0h-7.4c-.7,0-1.2-.8-1.1-1.6,0-.7.5-1.3,1.1-1.4h7.4c.7,0,1.2.7,1.2,1.5,0,0,0,0,0,0Z"/>
      <path class="cls-4" d="M295.9,156.7c0,.8-.5,1.5-1.2,1.5,0,0,0,0,0,0h-7.4c-.7,0-1.2-.8-1.1-1.6,0-.7.5-1.3,1.1-1.4h7.4c.7,0,1.2.7,1.2,1.5,0,0,0,0,0,0Z"/>
      <path class="cls-4" d="M295.9,153.1c0,.8-.5,1.5-1.2,1.5,0,0,0,0,0,0h-7.4c-.7,0-1.2-.8-1.1-1.6,0-.7.5-1.3,1.1-1.4h7.4c.7,0,1.2.7,1.2,1.5,0,0,0,0,0,0Z"/>
      <path class="cls-4" d="M295.9,148.7h0c0,.4,0,.8,0,1.2,0,.2,0,.3-.1.5,0,0,0,.1,0,.2,0,0,0,0,0,.1-.2.3-.5.4-.8.4h-7.4c-.3,0-.6-.2-.8-.4h0c0-.1,0-.2,0-.2h-.2c.4-.1.8-.3,1.2-.6l7.4-3.6c.6-.4,1.2.7,1.2,2.4Z"/>
      <path class="cls-4" d="M295.9,141.6h0c0,1.7-.5,3.3-1.2,3.7l-7.4,4.5c-.4.2-.8.4-1.2.7,0,0,.1-.1.3-.4l.8-1,7.4-9c.6-.8,1.2-.1,1.2,1.5Z"/>
      <path class="cls-4" d="M293.6,138.7c1.3,0,1.8.6,1.1,1.4l-7.4,9-.9,1c-.1.1-.2.3-.3.4.2-.5.4-.9.6-1.4l3.9-9c.3-.8,1.7-1.4,2.9-1.4Z"/>
      <path class="cls-4" d="M288.1,138.7c1.3,0,2.1.6,1.8,1.4l-3.2,9c-.2.5-.4.9-.5,1.4,0-.1,0-.3,0-.4v-.2c0,0,0-.2-.1-.2,0-.2,0-.4,0-.5v-9c0-.2,0-.4,0-.6,0,0,0-.2.1-.2,0,0,.2-.2.3-.2.5-.3,1.1-.4,1.7-.4Z"/>
      <path class="cls-4" d="M284.3,138.7c.6,0,1.2.6,1.2,1.4v9c0,.8-.5,1.4-1.2,1.4-.6,0-1.2-.6-1.2-1.4h0v-9c0-.8.5-1.4,1.2-1.4Z"/>
      <path class="cls-4" d="M281.5,138.7c.6,0,1.2.6,1.2,1.4v9c0,.8-.5,1.4-1.2,1.4-.6,0-1.2-.6-1.2-1.4h0v-9c0-.8.5-1.4,1.1-1.4,0,0,0,0,0,0Z"/>
      <path class="cls-4" d="M278.8,138.7h0c.6,0,1.2.6,1.2,1.4v9c0,.8-.5,1.4-1.2,1.4h0c-.6,0-1.2-.6-1.2-1.4,0,0,0,0,0,0v-9c0-.8.5-1.4,1.2-1.4h0Z"/>
      <path class="cls-9" d="M276.8,155.9h0v-22.5h0c4,0,7.3,3.9,7.3,8.8h0v5c0,4.8-3.2,8.8-7.3,8.8h0Z"/>
      <path class="cls-9" d="M258.1,177.7l19.4-11.6c1.9-1.1,3.1-3.4,3.1-5.9v-30.6c0-2.5-1.2-4.8-3.1-5.9l-19.4-11.6v65.6Z"/>
      <line class="cls-15" x1="294.4" y1="190.5" x2="308.8" y2="190.5"/>
      <line class="cls-15" x1="291.6" y1="193.6" x2="297.3" y2="193.6"/>
      <line class="cls-15" x1="300.5" y1="145.7" x2="300.5" y2="162.6"/>
      <line class="cls-15" x1="298" y1="151.8" x2="298" y2="141.4"/>
      <line class="cls-15" x1="281.5" y1="173" x2="281.5" y2="181.6"/>
      <line class="cls-15" x1="284" y1="170" x2="284" y2="177.8"/>
      <polyline class="cls-14" points="322.1 114.9 318.4 114.9 318.4 155.6"/>
      <line class="cls-18" x1="325" y1="114.9" x2="322.1" y2="114.9"/>
      <rect class="cls-13" x="341.3" y="130.2" width="17" height="22"/>
      <rect class="cls-13" x="357.3" y="99.8" width="16.7" height="19.8"/>
      <path class="cls-9" d="M367.3,119.6h7.4c-5.1,16.4-20.3,24.7-33.8,18.5-5.8-2.6-10.6-7.6-13.6-14.1-2.3-4.9-3.5-10.5-3.4-16.1,0-.5,0-1,0-1.5.9-17.5,13.4-30.7,27.9-29.6,11.6.9,21.3,10.9,23.9,24.5h-8.4c-4.2,0-7.6,4.1-7.6,9.2s3.4,9.2,7.6,9.2h0Z"/>
      <line class="cls-15" x1="352.1" y1="109.7" x2="359.7" y2="109.7"/>
      <line class="cls-15" x1="346" y1="78.1" x2="346" y2="138.6"/>
      <ellipse class="cls-13" cx="345.4" cy="109.7" rx="6.7" ry="8.1"/>
      <path class="cls-9" d="M348.8,109.7c0-2.2-1.5-4-3.3-4s-3.3,1.8-3.3,4,1.5,4,3.3,4,0,0,0,0c1.8,0,3.3-1.8,3.3-4h0Z"/>
      <ellipse class="cls-6" cx="367.9" cy="109.7" rx="3.3" ry="4"/>
      <path class="cls-13" d="M332.4,107.8v16.1h-5.1c-2.3-4.9-3.5-10.5-3.4-16.1h8.5Z"/>
      <line class="cls-11" x1="349.8" y1="215.6" x2="349.8" y2="263.2"/>
      <ellipse class="cls-9" cx="349.8" cy="236.3" rx="10.1" ry="12.3"/>
      <ellipse class="cls-9" cx="349.8" cy="260.8" rx="4.9" ry="5.9"/>
      <path class="cls-9" d="M386.1,160.5l-11.2,40.3c-3.1,11.2-12.6,18.9-23.3,18.9h-3.6c-10.7,0-20.2-7.7-23.3-18.9l-11.2-40.3c-1.7-6.1,2.5-12.3,8.3-12.3h56c5.9,0,10.1,6.2,8.3,12.3Z"/>
      <path class="cls-9" d="M381.5,164.3c-2.8-.9-5.7.9-6.7,4.3l-9.1,31.9c-.9,3.2.3,6.8,2.9,8.2l1.9,1.1c1.9-2.6,3.4-5.7,4.4-9l9.9-35.5-3.3-1.1Z"/>
      <path class="cls-9" d="M324.5,168.6c-.9-3.3-3.9-5.2-6.7-4.3l-3.1,1,9.9,35.5c.9,3.3,2.4,6.3,4.3,8.9l1.8-1c2.5-1.5,3.8-5,2.9-8.2l-9-31.9Z"/>
      <path class="cls-9" d="M367.4,148.2c-.3,3.1-2.4,5.4-5,5.4h-26c-2.6,0-4.7-2.3-5-5.4h36Z"/>
      <line class="cls-15" x1="349.8" y1="219.5" x2="349.8" y2="153.6"/>
      <path class="cls-16" d="M335,161.7h29.6c1.8,0,3.3,1.8,3.3,4v16.3c0,2.2-1.5,4-3.3,4h-29.6c-1.8,0-3.3-1.8-3.3-4v-16.3c0-2.2,1.5-4,3.3-4Z"/>
      <ellipse class="cls-13" cx="349.8" cy="193.2" rx="3.9" ry="4.7"/>
      <ellipse class="cls-6" cx="349.8" cy="193.2" rx="1.6" ry="2"/>
    </g>
  </g>
  <g id="freepik--Character--inject-4">
    <path class="cls-9" d="M506.5,248.2c-.3-.7-11.1-17.7-12.1-22.9s-.5-14.4-.5-14.4v-9s1.8.5,4.1,1.3c1.8.8,3.4,1.8,4.9,3.1,0,0-1.5-3.6-2.8-4.9-1.3-1.1-2.7-2.2-4.1-3.1l1-3.9s6.4,1.5,7.2,2.6,7.5,10.3,7.8,11.6-2.1,15.9-2.1,21.6,4.1,13.4,4.1,13.4c0,0-7.2,5.3-7.5,4.6Z"/>
    <path class="cls-13" d="M417.6,124l-7.9,38.3-9,39.6-4.6,43s30.3-3.1,56-3.9c25.7-.8,43.2,6.2,43.2,6.2v-13.1c0-3.6,2.8-33.4,7.5-49.4,4.6-15.9,14.4-42.4,14.4-42.4-20.4-1.6-99.5-18.3-99.5-18.3Z"/>
    <path class="cls-19" d="M449.8,134.8l-1.3,4.6-31.8,6-6.6,33.1,9.9,1.9-3.3,57s26.5-3.3,39.1-2.7c7.8.4,15.5,1.3,23.2,2.7,0,0,3.3-13.9,4.6-18.6s8.6-27.8,8.6-27.8l6.1-.3,7.2-31.5s-17.2-7.3-19.9-11.3c-2.6-4-2.6-6.6-2.6-6.6l-33.1-6.6Z"/>
    <path class="cls-4" d="M464,185.2v20.6s9.4,7.9,10.5,11.9c1.1,4,3.3,7.9,4.9,6s4.4-20.6,6.6-30.5,4.9-28.5-3.9-35.1c-8.8-6.6-15.4,4.6-15.4,4.6-3.3,6.6-2.7,16.6-2.7,22.5Z"/>
    <g class="cls-22">
      <path class="cls-20" d="M487.7,175.3c-.1,0-13.9-10-24.7-1.9-.4.3-1,.2-1.4-.2-.3-.4-.2-1,.2-1.4,11.9-9,26.9,1.8,27,1.9.2.2.4.5.4.8,0,.5-.4,1-1,1-.2,0-.4,0-.6-.2Z"/>
    </g>
    <g class="cls-22">
      <path class="cls-20" d="M486.8,186.4c0,0-6.1-7.9-13.5-8.3-3.4-.2-6.7,1.3-9.6,4.4-.4.4-1,.4-1.4,0-.4-.4-.4-1,0-1.4,3.4-3.5,7.1-5.2,11.1-5,8.2.4,14.6,8.7,14.9,9.1.3.4.2,1-.2,1.4-.2.1-.4.2-.6.2-.3,0-.6-.1-.8-.4Z"/>
    </g>
    <g class="cls-22">
      <path class="cls-20" d="M486.1,196.3c0,0-6.2-9.4-13.1-9.9-2.8-.2-5.5,1.2-7.9,4-.3.4-1,.5-1.4.1-.4-.3-.5-1-.1-1.4,2.8-3.3,6-4.9,9.5-4.7,7.9.5,14.4,10.4,14.6,10.8.3.5.2,1-.3,1.3-.2.1-.3.2-.5.2-.3,0-.6-.2-.8-.4Z"/>
    </g>
    <g class="cls-22">
      <path class="cls-20" d="M482.8,206.3c0,0-5.7-8.2-12.1-8.5-2.7-.1-5.3,1.2-7.6,4h0c-.3.4-1,.5-1.4.1,0,0,0,0,0,0-.4-.4-.4-1,0-1.4,2.7-3.3,5.8-4.8,9.2-4.6,7.4.4,13.3,9,13.6,9.4,0,0,0,0,0,0,.3.4.2,1-.3,1.3-.2.1-.3.2-.5.2-.3,0-.6-.1-.8-.4Z"/>
    </g>
    <g class="cls-22">
      <path class="cls-20" d="M476,220.4c0,0-.4-8.4-4.9-12.1-1.9-1.5-4.5-2.1-6.9-1.6-.5,0-1-.3-1.1-.8s.3-1,.8-1.1c3-.6,6.1.1,8.4,2,5.2,4.2,5.6,13.1,5.6,13.5,0,.5-.4,1-1,1h0c-.5,0-.9-.4-1-.9Z"/>
    </g>
    <g class="cls-22">
      <path class="cls-20" d="M465.8,167.4s0,0,0,0c-.4-.3-.5-.9-.2-1.4,7.7-9.8,21.6-2.3,21.8-2.2.5.3.6.9.4,1.3-.3.5-.9.6-1.3.4-.1,0-12.6-6.8-19.3,1.7-.2.2-.5.4-.8.4-.2,0-.4,0-.6-.2Z"/>
    </g>
    <path class="cls-4" d="M450.9,181.2c-1.4,5.8-5,19.9-5,19.9,0,0-11.6,5.3-13.7,8.9s-5.3,6.9-6.6,4.5.4-21.1.5-31.3c.1-10.2,1.7-28.9,12.5-33.1,10.7-4.1,14.8,8.5,14.8,8.5,1.8,7.3-1.2,16.8-2.6,22.6Z"/>
    <g class="cls-22">
      <path class="cls-20" d="M453,168.4c-9-10-24.5-2.9-24.6-2.8,0,0,0,0,0,0-.5.2-1.1,0-1.3-.5-.2-.5,0-1.1.5-1.3.2,0,16.9-7.8,26.9,3.2.4.4.3,1,0,1.4-.2.2-.4.3-.7.3-.3,0-.5-.1-.7-.3Z"/>
    </g>
    <g class="cls-22">
      <path class="cls-20" d="M450.5,177.3c-2.3-3.6-5.2-5.7-8.6-6.2-7.3-1-14.7,5.5-14.8,5.6-.4.4-1,.3-1.4,0,0,0,0,0,0,0-.4-.4-.3-1,0-1.4.3-.3,8.2-7.2,16.3-6,4,.6,7.3,2.9,9.9,7.1,0,0,0,0,0,0,.3.5.2,1.1-.3,1.3-.2,0-.3.1-.5.1-.3,0-.6-.2-.8-.4Z"/>
    </g>
    <g class="cls-22">
      <path class="cls-20" d="M424.5,186.5s0,0,0,0c-.4-.4-.4-1,0-1.4.3-.4,8.5-8.7,16.4-7.8,3.4.4,6.3,2.6,8.4,6.4.3.5.1,1.1-.4,1.3s-1.1.1-1.3-.4c-1.8-3.3-4.1-5.1-6.9-5.5-6.9-.9-14.7,7.1-14.8,7.2-.2.2-.4.3-.7.3-.3,0-.5-.1-.7-.3Z"/>
    </g>
    <g class="cls-22">
      <path class="cls-20" d="M425.9,196.9s0,0,0,0c-.4-.4-.4-1,0-1.4.3-.3,7.8-7.6,15.1-6.6,3.3.5,6.1,2.6,8.1,6.3.3.5.1,1.1-.4,1.3s-1.1.1-1.3-.4c-1.7-3.1-4-4.9-6.7-5.3-6.4-.9-13.4,6-13.5,6-.2.2-.4.3-.7.3-.3,0-.5-.1-.7-.3Z"/>
    </g>
    <g class="cls-22">
      <path class="cls-20" d="M430.1,212.7c-.5-.1-.8-.6-.7-1.2,0-.4,2.2-9,8.1-12.2,2.7-1.4,5.9-1.5,8.7-.3,0,0,.1,0,.1,0,.5.2.7.8.5,1.3-.2.5-.8.7-1.3.5-2.3-1-4.9-.9-7.1.2-5.1,2.7-7.1,10.8-7.1,10.9-.1.4-.5.8-1,.7h-.2Z"/>
    </g>
    <g class="cls-22">
      <path class="cls-20" d="M450.1,161.6c-4.9-9.6-18.1-5.6-18.6-5.4,0,0,0,0,0,0-.5.2-1.1-.1-1.2-.6,0,0,0,0,0,0-.2-.5.1-1.1.6-1.2.1,0,15.3-4.7,20.9,6.4.2.5,0,1.1-.4,1.3-.1,0-.3.1-.4.1-.4,0-.7-.2-.9-.5Z"/>
    </g>
    <g class="cls-22">
      <path class="cls-20" d="M464.3,165c-.5,0-1-.4-1-.9,0-.5.4-1,.9-1,.1,0,12.6-.7,21-3.3,9-2.8,15.1,1.3,15.4,1.4.4.3.5.8.3,1.3-.3.5-.9.6-1.3.3,0,0-5.7-3.7-13.8-1.2-8.6,2.6-20.9,3.4-21.4,3.4h0Z"/>
    </g>
    <g class="cls-22">
      <path class="cls-20" d="M456.9,164.2c-.4,0-9.5-2.1-16.3-6.8-6.3-4.4-17.8-7.1-23.3-7.1s-1-.4-1-1,.4-1,1-1c5.7,0,17.8,2.8,24.4,7.5,6.4,4.5,15.4,6.5,15.5,6.5.5,0,.9.5.9,1.1,0,.5-.5.9-1.1.9,0,0-.1,0-.2,0Z"/>
    </g>
    <path class="cls-19" d="M462.5,137.5l-1.1,9.3-4.3,23.1-8,63.6,9.3.7s-1.5-8.3-1.5-13c0-4.6,5.8-50.5,8.8-64.6,1.3-5.9,3.3-17.9,3.3-17.9l-6.5-1.3Z"/>
    <path class="cls-19" d="M453,168.4c-3.9,4.2-4.5,13.4-4.5,13.4l-4.5,6.5s-1.3,11.6-1.3,14.9,11,1.9,14.9.6,7.8-3.9,7.8-9.1-2.3-21.4-2.3-21.4c.9-12.3-6.1-9.1-10-4.9Z"/>
    <path class="cls-19" d="M474.4,236.8l.7-7.8s-.5-11.4-7.8-16.8c-7.2-5.5-9.7-8.4-28.5,0-18.8,8.4-14,24.3-14,24.3,30.3-4.1,49.6.3,49.6.3Z"/>
    <path class="cls-13" d="M545.4,298.5c-6.9,1.5-20-1.8-20.3-2.6s-2.9-5.4-3.9-8.5c-1-3.1-7.2-13.1-12.1-21.6-4.9-8.5-9-16.7-9-16.7,1.8-2.8,4.4-4.9,7.5-6.2,5.4-2.3,6.4-1.3,6.4-1.3l1.3,1.3s10.3,14.7,21.1,25.2,14.7,19.3,14.7,19.3c3.9,5.9,1.3,9.5-5.6,11Z"/>
    <path class="cls-9" d="M563.2,212.1c7-.3,29.2-.3,37.5,16.5,8.2,16.8-8.9,38.7-11.9,47.2-3,8.5,2.1,11.6,2.1,11.6,0,0-14.3,3.7-21.6,3.7-7.3,0-19.5-3.7-19.5-3.7.9-2.3,1.3-4.8,1.2-7.3,0-4.6-2.1-15.2-2.1-15.2,0,0-8.5-.6-11.3-2.4s-2.7-2.7-2.7-7.3,2.1-17.4,2.1-18.3-4.9-6.4-4.9-9.8c0-3.3,7-2.4,9.8-4,1.9-1.2,3.5-2.9,4.6-4.9,0,0,9.7-5.9,16.8-6.1Z"/>
    <path class="cls-15" d="M544.4,232.2c-3,0-3.3-3.7-3.3-3.7l2.4-2.1"/>
    <path class="cls-17" d="M567.6,196.3c11.9,0,24.1,9.1,24.1,9.1,0,0,7.9,1.5,14.6,9.8,6.7,8.2,12.2,28.9,9.8,39s-16.1,17.4-18.3,18.9c-2.1,1.5-2.7,3.3-2.4,5.2s3.6,2.4,3.6,2.4l-6.4,2.7-5.8.9-.6-4.3-4.3,4.3c-1.5,1.5-9.1-.3-9.1-.3l.6-2.7s-3.3,1.8-9.4-.3c-6.1-2.1-6.7-4.3-6.7-4.3l3-3c-3.1.3-6.3-.6-8.8-2.4-4-3-4-5.5-4-5.5,1.2,0,2.3-.3,3.3-.9.7-.5,1.3-1.3,1.5-2.1-1.3-.4-2.6-1-3.7-1.8-1-1-1.6-2.3-1.8-3.7,1.7,0,3.4-.8,4.6-2.1,1.2-1.7,2.1-3.7,2.4-5.8,0,0-2.7-2.4-6.4-17.1-3.7-14.6-1.8-23.2-1.8-23.2,4.3-14.3,10.1-12.8,22-12.8Z"/>
    <path class="cls-15" d="M562,259.6c-5.5-6.7-9.4-17.7-9.4-17.7"/>
    <path class="cls-15" d="M568.1,262.4c-4.9-8.2-7-19.2-7-19.2"/>
    <path class="cls-15" d="M604.7,226.1c-2.4-7.6-7.6-14.1-14.6-18"/>
    <path class="cls-15" d="M576.9,206.3c13.1,0,16.5,8.5,16.5,8.5"/>
    <path class="cls-15" d="M600.1,259.9c5.8-13.5,4-24.7,4-24.7"/>
    <path class="cls-15" d="M588.5,266.9c4.1-3.3,6.8-8.7,8.5-13.3"/>
    <path class="cls-15" d="M598.2,249.8c.5-1.7.8-3.4,1-5.1"/>
    <path class="cls-15" d="M574.2,263.6c-.6-.9-1.2-1.9-1.7-3"/>
    <path class="cls-15" d="M570.9,256.1c-3.2-11.1-2.2-25.8-2.2-25.8"/>
    <path class="cls-9" d="M498.8,231.2c-1.1-1.6-2-3.3-2.6-5.1-1.3-3.6-.5-11.8-.5-11.8-.3-1.2-.9-2.4-1.8-3.3-1.5-1.8-3.9-7.7-3.3-12.9.5-5.1,2.8-4.4,3.1-3.1,1,3.2,2.3,6.3,3.9,9.3,1.5,2.6,6.7,9.5,6.7,9.5"/>
    <path class="cls-9" d="M396,244.9s-1.8-5.6-2.8-10.3c-1-4.6-5.6-21.1-6.4-24.4s1-7.7,3.6-10c2.4-2.1,4.4-4.5,5.9-7.2,1-2.1,1.8-2.1,2.8-5.4s5.1-.3,5.1-.3c0,0-2.6,10-2.6,11.1s.5,8.2.5,8.2c0,0,2.3-2.8,3.1-4.1s.8-1.8.5-4.4-.3-6.1,2.1-8,2.1.7,2.1,4.9-.3,6.9-.5,9.8c-.5,4.7-1.3,9.3-2.3,13.9-.8,2.8-2.6,7.2-2.6,10s2.8,10.5,2.8,10.5l-11.3,5.7Z"/>
    <path class="cls-15" d="M394.4,199.6c0-3.6,2.6-7.8,2.6-7.8"/>
    <path class="cls-15" d="M401.6,196.8c.5-2.9-.3-7.8-.3-7.8"/>
    <path class="cls-13" d="M454.3,330.9s-28.7-6-32.4-7.5-9.9-11.4-15.1-31.7c-5.2-20.3-16.9-44.9-16.9-44.9,0,0,5.1-7.4,7.4-8.5s9.2-2.9,9.2-2.9c0,0,5.9,14,12.9,24.7,7,10.7,21.4,31.7,21.4,31.7l16.9,4.1c-3.3,8.8-3.3,35-3.3,35Z"/>
    <path class="cls-10" d="M606.8,437.3s-3.1.3-19.1,2.8-89.4,7-89.4,7l-.3,7.6c-.1,14.8,1.2,29.7,3.9,44.3h112.1c1.3-8,2-16,1.9-24.1,0-8.3-1.3-16.5-3.9-24.4l-5.3-13.2Z"/>
    <path class="cls-13" d="M508.5,446.4l-12.7,1,3.3,24.2h3.3s1.3-3.6,1.3-3.6l4.2,3.9h34.9c18.6,0,44.1-8.8,44.1-8.8l-78.3-16.6Z"/>
    <path class="cls-15" d="M512,496.2c-2.8-6.8-4.3-16-5-22.3"/>
    <path class="cls-15" d="M506.7,469.9c-.2-1.8-.2-2.9-.2-2.9"/>
    <path class="cls-15" d="M592.8,471.9c-.5-3.2-1.3-6.4-2.3-9.5"/>
    <path class="cls-15" d="M522.5,489.9c-.4,0-1.5-.1-2.9-.3"/>
    <path class="cls-15" d="M515.4,489.1c-4.8-.7-10.2-1.5-10.2-1.5"/>
    <line class="cls-15" x1="520.9" y1="487.3" x2="511.7" y2="486"/>
    <path class="cls-10" d="M601.4,292.9c-9.3,1.8-18.8,2.8-28.3,2.7-15.9,0-32-.6-32-.6,0,0-16.8-2.1-21-2.1s-24.1,4-27.7,4-36.3-1.8-36.3-1.8c0,0-2.8,3.9-4.6,14s3,35.6,3,35.6h3s40.8,1.8,40.8,1.8c0,0,1.8,25,2.1,34.7s-3.3,22.9-4.9,31.7c-1.5,8.8-10.1,45.4-10.1,45.4,2.2,2,4.7,3.7,7.3,5.2,3,1.3,6.2,2.2,9.5,2.7l2.7-13.4,3.7,14,6.4,1c6.4.9,41.1,3,62.7-2.5,21.6-5.5,35.3-11.9,35.3-11.9,0,0-.6-3.4-2.1-9.1s-14.9-38.1-14.3-42.4,10.7-36.3,10.7-36.3c0,0,3.6-8.5,6.7-17.1s1.2-18.3,1.2-24.1c0-5.8.3-16.8-1.5-19.8s-8.8-9.7-8.8-9.7l-3.6-2.1Z"/>
    <path class="cls-15" d="M587.3,346.8c.1-1.2.2-2.5.2-3.7"/>
    <path class="cls-15" d="M587.2,336.8c-1.9-14.5-10.2-28.4-10.2-28.4"/>
    <path class="cls-15" d="M591,342.8c.6-10.1-1.3-20.1-5.5-29.3"/>
    <line class="cls-15" x1="498.3" y1="346.5" x2="527" y2="348.6"/>
    <path class="cls-15" d="M528.5,361.4c-4.9-1.5-24.1-14-24.1-14"/>
    <path class="cls-15" d="M527.6,379.1c-1.1-.8-2.1-1.8-3.1-2.8"/>
    <path class="cls-15" d="M521.8,373.1c-6.4-8.3-12.5-20.5-12.5-20.5"/>
    <path class="cls-15" d="M539.8,354c9.1-6.4,13.4-20.4,13.4-20.4"/>
    <path class="cls-15" d="M542.5,356.2c4.9-2.4,11-8.5,11-8.5"/>
    <path class="cls-15" d="M552.6,413.5c.7-.4,1.5-.9,2.3-1.4"/>
    <path class="cls-15" d="M558.1,409.6c12.6-10.6,24.9-31.4,24.9-31.4"/>
    <path class="cls-13" d="M497.9,346.7l.4,2.7,2,23.2,11.5-15c-2-3.1-.9-4.7-.1-5.3v-.5s12.1-2.9,12.1-2.9l-12.7-1.2h0c0,0-2-.2-2-.2l-5.6-.5.4.2-5.9-.4Z"/>
    <path class="cls-10" d="M605,295c-11.7,3.8-23.9,5.7-36.3,5.5-20.7-.3-29.6-5.8-29.6-5.8,0,0,4.9-10.4,7.3-10.7s5.5,1.8,24.4,2.1c18.9.3,27.4-4.3,27.4-4.3,2.1,0,6.7,13.1,6.7,13.1Z"/>
  </g>
  <g class="cls-21">
    <g>
      <path class="cls-2" d="M124.7,366c-9.4,10.6-14.7,24.5-14.9,39,0,0,19.5-19.5,14.9-39Z"/>
      <path class="cls-2" d="M171.5,392.8c-13-4.8-27.3-4.4-40,1.2,0,0,24.7,10.9,40-1.2Z"/>
      <path class="cls-2" d="M139.4,348.5c-5.6,9.8-7.5,21.5-5.4,32.7,0,0,12-18.3,5.4-32.7Z"/>
      <path class="cls-2" d="M98.8,373.3s-16.9-29-48.7-37.9c0,0,21.6,37.9,48.7,37.9Z"/>
      <path class="cls-2" d="M100.6,349.1s26.8-32.1,31.8-76.6c0,0-33.5,40.7-31.8,76.6"/>
      <path class="cls-2" d="M88.5,298.2c8.5-15.6,12.7-33.5,12-51.5,0,0-16.7,28.5-12,51.5Z"/>
      <path class="cls-2" d="M49.1,290.8s13.6,26.1,38.6,29c0,0-8.4-20.1-38.6-29Z"/>
      <path class="cls-2" d="M73,421.7c-13.6-2.5-27.6.3-39.3,7.9,0,0,26.1,6.6,39.3-7.9Z"/>
      <path class="cls-2" d="M81.7,461.3c7.7-4.3,13.6-11.4,16.8-19.9,0,0-15.7,7.8-16.8,19.9Z"/>
      <path class="cls-2" d="M65.4,443.1c10.3,1.9,20.9,0,29.9-5.6,0,0-20.3-4.9-29.9,5.6Z"/>
      <path class="cls-2" d="M108.2,485.5v-1.6c0-1.5,0-3.4.2-6s.1-5.8.1-9.5,0-7.9,0-12.6c-.1-9.4-.5-20.5-1.5-32.8-1-12.3-2.4-25.9-4.3-40-3.3-24.1-7.9-48.1-13.7-71.7-2.2-9-4.3-16.3-5.7-21.3-.8-2.4-1.4-4.3-1.8-5.8-.2-.6-.3-1.1-.5-1.5,0-.2-.1-.3-.2-.5,0,.2,0,.4,0,.5l.4,1.5c.4,1.4.9,3.4,1.5,5.8,1.3,5,3.1,12.3,5.3,21.4,5.7,23.6,10.3,47.5,13.7,71.6,2,14.1,3.5,27.6,4.4,39.9.9,12.3,1.6,23.5,1.8,32.8.2,4.7.2,8.9.2,12.6s0,7,0,9.5,0,4.5,0,6v1.6c0,.2,0,.4,0,.5,0-.1.1-.3.1-.5Z"/>
      <path class="cls-2" d="M84.1,426.4c12.3,8.9,22.4,15.8,22.6,15.6s-9.6-7.7-21.9-16.5c-12.3-8.9-22.4-15.8-22.6-15.6-.2.3,9.6,7.7,21.9,16.5Z"/>
      <path class="cls-2" d="M108.5,412.1c1.2-1,2.8-2.4,4.8-4.3,4-3.7,9.4-8.8,15.3-14.6,5.9-5.8,11.1-11.1,14.8-15.1,1.9-2,3.3-3.6,4.3-4.8.6-.5,1.1-1.2,1.5-1.9-.6.4-1.2,1-1.8,1.6l-4.6,4.5-15,14.9-15,14.9-4.5,4.6c-.6.5-1.1,1.2-1.6,1.9.7-.5,1.3-1,1.8-1.6Z"/>
      <path class="cls-2" d="M66.9,413.7c-10.9-21.4-36.8-20.9-36.8-20.9,8.4,12.7,22.1,20.4,36.8,20.9Z"/>
      <path class="cls-2" d="M83,421.7c3.4-24-17.7-39.8-17.7-39.8-.4,15.5,6.1,30.2,17.7,39.8Z"/>
      <path class="cls-2" d="M141.5,378.9c26.4-5.5,34.7-35.8,34.7-35.8-16.3,5.5-29.1,18.8-34.7,35.8Z"/>
      <path class="cls-2" d="M83.2,289.5c3.6-36.8-29.3-59.4-29.3-59.4.3,23.6,11.2,45.6,29.3,59.4Z"/>
      <path class="cls-2" d="M161.2,432.5c-1.5,1-3.6,2.5-6.1,4.5-13.2,10.4-24.4,23.5-32.8,38.4-1.6,2.9-2.8,5.2-3.5,6.9-.5.8-.8,1.7-1.1,2.7.6-.8,1.1-1.6,1.5-2.4.9-1.6,2.2-3.9,3.9-6.7,4.4-7.3,9.3-14.1,14.8-20.5,5.5-6.3,11.5-12.2,17.8-17.5,2.5-2,4.5-3.7,5.9-4.8.8-.5,1.5-1.2,2.1-1.9-.8.4-1.7.8-2.4,1.4Z"/>
      <path class="cls-2" d="M142.5,412.3c-7.3,12.3-10,27-7.6,41.3,0,0,11.1-15.6,7.6-41.3Z"/>
      <path class="cls-2" d="M185.9,436.3c-9.8-2.2-20.1-.5-28.8,4.7,0,0,12.8,4.2,28.8-4.7Z"/>
    </g>
    <path class="cls-3" d="M115.7,413.9c-.3-15.5-6.7-30.3-17.9-41.7-5.4,20.9,17.9,41.7,17.9,41.7Z"/>
    <path class="cls-3" d="M89.8,402.2c-15.2-5.9-32.3-6.4-47.8-1.3,18.3,12.9,47.8,1.3,47.8,1.3Z"/>
    <path class="cls-3" d="M86.8,388.5c2.5-12,.2-24.4-6.5-35-7.8,15.3,6.5,35,6.5,35Z"/>
    <path class="cls-3" d="M187.1,339.6c-38,9.5-58.3,40.5-58.3,40.5,32.4,0,58.3-40.5,58.3-40.5Z"/>
    <path class="cls-3" d="M126.7,354.2c2-38.4-38-81.9-38-81.9,6,47.6,38,81.9,38,81.9"/>
    <path class="cls-3" d="M126.8,244.7c-.8,19.3,4.2,38.3,14.4,55,5.6-24.6-14.4-55-14.4-55Z"/>
    <path class="cls-3" d="M142.2,322.8c29.9-3,46.2-31,46.2-31-36.1,9.5-46.2,31-46.2,31Z"/>
    <path class="cls-3" d="M206.6,440.3c-14-8.2-30.7-11.2-47-8.5,15.8,15.6,47,8.5,47,8.5Z"/>
    <path class="cls-3" d="M129.2,452.9c3.8,9.1,10.9,16.6,20.1,21.3-1.3-13-20.1-21.3-20.1-21.3Z"/>
    <path class="cls-3" d="M133,448.8c10.8,5.9,23.5,8,35.7,6-11.5-11.2-35.7-6-35.7-6Z"/>
    <path class="cls-5" d="M117.8,500.5c0-.2,0-.4,0-.6v-18.3c0-4,0-8.5.3-13.5.3-9.9,1-21.8,2.1-35,1.1-13.2,2.9-27.6,5.3-42.7,4.1-25.8,9.6-51.3,16.4-76.5,2.6-9.7,4.8-17.5,6.3-22.9.7-2.6,1.4-4.7,1.8-6.2l.4-1.6c0-.2,0-.4.1-.6-.1.2-.2.3-.2.5-.2.4-.3,1-.6,1.6-.5,1.5-1.2,3.6-2.1,6.2-1.8,5.3-4.2,13.1-6.8,22.8-7,25.2-12.5,50.8-16.4,76.6-2.3,15.1-4,29.6-5.2,42.8-1.2,13.2-1.7,25.1-1.8,35.1-.1,5-.1,9.5-.1,13.5s0,7.4.2,10.2.2,4.9.3,6.4v1.7c0,.2,0,.3.2.5Z"/>
    <path class="cls-5" d="M172.6,419.2c-.2-.3-12.3,7.2-27,16.6-14.7,9.5-26.4,17.4-26.2,17.7s12.3-7.2,27-16.6c14.7-9.5,26.4-17.4,26.2-17.7Z"/>
    <path class="cls-5" d="M119.4,423.3c-.5-.7-1.1-1.4-1.9-2l-5.4-4.9-17.9-15.9-18-15.9-5.4-4.8c-.6-.6-1.3-1.2-2.1-1.7.5.7,1.1,1.4,1.8,2,1.2,1.3,2.9,3,5.2,5.1,4.4,4.2,10.7,9.9,17.7,16.1s13.5,11.7,18.2,15.6c2.4,2,4.2,3.5,5.7,4.6.6.7,1.4,1.3,2.2,1.7Z"/>
    <path class="cls-3" d="M211,401s-30.9-.6-44,22.3c17.6-.5,33.9-8.8,44-22.3Z"/>
    <path class="cls-3" d="M168.9,389.3s-25.1,16.9-21.1,42.5c13.8-10.2,21.6-26,21.1-42.5Z"/>
    <path class="cls-3" d="M36.3,347.8s9.9,32.5,41.4,38.3c-6.6-18.2-22-32.4-41.4-38.3Z"/>
    <path class="cls-3" d="M182.5,226.9s-39.4,24.2-35.1,63.5c21.7-14.8,34.7-38.3,35.1-63.5Z"/>
    <path class="cls-5" d="M51.4,441.9c.8.8,1.6,1.4,2.6,2,1.7,1.2,4.1,2.9,7.1,5.1,7.6,5.7,14.8,12,21.3,18.7,6.5,6.9,12.4,14.2,17.7,22,2,3,3.6,5.4,4.6,7.2.5.9,1.1,1.8,1.8,2.6-.3-1-.8-1.9-1.3-2.8-.9-1.8-2.3-4.3-4.2-7.4-10.1-16-23.4-29.9-39.2-41-3-2.1-5.6-3.8-7.3-4.8-.9-.6-1.9-1.1-2.9-1.5Z"/>
    <path class="cls-3" d="M85.7,466c2.9-15.3-.4-31-9.1-44.2-4.2,27.5,9.1,44.2,9.1,44.2Z"/>
    <path class="cls-3" d="M59.1,452.4c-10.4-5.6-22.7-7.4-34.4-5,19.1,9.5,34.4,5,34.4,5Z"/>
  </g>
  <g id="freepik--paper-plane--inject-4">
    <polygon class="cls-4" points="152.5 39.6 175.3 58.4 177.7 46.8 152.5 39.6"/>
    <polygon class="cls-7" points="167.2 51.4 175.3 58.4 176.4 49.8 167.2 51.4"/>
    <path class="cls-4" d="M175.1,58.7l-8.2-7c-.1,0-.1-.2-.1-.4,0-.1.1-.2.3-.3l9.2-1.6c.1,0,.2,0,.3,0,0,0,.1.2,0,.3l-1,8.6c0,.1,0,.2-.2.3,0,0,0,0-.1,0,0,0-.1,0-.2,0ZM168,51.6l7.1,6.1.9-7.5-8,1.4Z"/>
    <polygon class="cls-7" points="152.5 39.6 177.7 46.8 181.8 38.6 152.5 39.6"/>
    <path class="cls-4" d="M177.6,47.1l-25.2-7.2c-.2,0-.3-.2-.2-.4,0-.2.1-.3.3-.3l29.2-.9c.1,0,.2,0,.3.2,0,.1,0,.2,0,.4l-4,8.1c0,.1-.2.2-.3.2,0,0,0,0-.1,0ZM154.8,39.8l22.8,6.5,3.7-7.4-26.4.9Z"/>
    <polygon class="cls-7" points="176.4 49.8 171.8 61 152.5 39.6 176.4 49.8"/>
    <path class="cls-4" d="M171.5,61.3l-19.3-21.5c-.1-.1-.1-.3,0-.4,0-.1.2-.2.4-.1l23.9,10.2c0,0,.1.1.2.2,0,0,0,.2,0,.3l-4.6,11.3c0,.1-.1.2-.2.2h0c0,0-.2,0-.2-.1ZM153.8,40.5l17.9,19.9,4.3-10.5-22.1-9.4Z"/>
    <path class="cls-8" d="M507.5,181.6c.4-.6.7-1.2,1.1-1.8l.5.4c-.4.6-.7,1.2-1.1,1.8l-.5-.4ZM509.6,178c.3-.6.7-1.2,1-1.8l.5.4c-.3.6-.7,1.2-1,1.8l-.5-.4ZM511.8,174.6l-.3-.2c.3-.6.6-1.2.9-1.8l.6.3c-.3.6-.6,1.2-.9,1.9l-.3-.2ZM513.3,170.7c.3-.6.6-1.3.8-1.9l.6.3c-.3.6-.5,1.3-.8,1.9l-.6-.3ZM514.9,166.8c.2-.7.5-1.3.7-2l.6.3c-.2.7-.5,1.3-.7,2l-.6-.3ZM516.3,162.9c.2-.7.4-1.3.6-2l.6.2c-.2.7-.4,1.3-.6,2l-.6-.2ZM517.5,158.8c.2-.7.4-1.3.5-2l.6.2c-.2.7-.4,1.3-.5,2.1l-.6-.2ZM518.6,154.8c.2-.7.3-1.3.5-2.1l.6.2c-.1.7-.3,1.4-.5,2.1l-.6-.2ZM519.4,150.6c.1-.7.3-1.4.4-2.1h.6c-.1.8-.2,1.6-.4,2.3l-.6-.2ZM520.2,146.5c.1-.7.2-1.4.3-2.1h.6c0,.8-.2,1.5-.3,2.2h-.6ZM520.7,142.3c0-.7.1-1.4.2-2.1h.6c0,.8-.1,1.5-.2,2.2h-.6ZM521,138.1c0-.7,0-1.4.1-2.1h.6c0,.7,0,1.4-.1,2.1h-.6ZM521.2,133.8v-2.1h.6v2.1h-.6ZM521.1,127.4h.6c0,.7,0,1.4,0,2.1h-.6c0-.7,0-1.4,0-2.1ZM521,125.3c0-.7,0-1.4-.2-2.1h.6c0,.7.1,1.4.1,2.1h-.6s0,0,0,0ZM520.7,121.1c0-.7-.1-1.4-.3-2.2h.6c0,.6.2,1.3.2,2h-.6c0,0,0,.1,0,.1ZM520.2,116.9c0-.7-.2-1.4-.3-2.2h.6c.1.6.2,1.3.3,2h-.6c0,.1,0,.2,0,.2ZM519.6,112.7c-.1-.7-.3-1.4-.4-2.1l.6-.2c.1.7.3,1.4.4,2.1h-.6c0,.1,0,.2,0,.2ZM518.8,108.5c-.1-.7-.3-1.4-.5-2.1l.6-.2c.2.7.3,1.4.5,2.1l-.6.2h0ZM517.8,104.4c-.2-.7-.4-1.4-.6-2.1l.6-.2c.2.7.4,1.4.6,2l-.6.2h0ZM516.6,100.4c-.2-.7-.4-1.3-.6-2.1l.6-.2c.2.7.4,1.3.6,2l-.6.2h0ZM515.3,96.4c-.2-.7-.5-1.3-.7-2l.6-.3c.3.7.5,1.3.7,2l-.6.3h0ZM513.8,92.5c-.3-.6-.5-1.3-.8-2l.6-.3c.3.6.5,1.3.8,1.9l-.6.3h0ZM512.2,88.7c-.3-.6-.6-1.3-.9-1.9l.6-.3c.3.6.6,1.3.9,1.9l-.6.3h0ZM510.4,84.9c-.3-.6-.6-1.2-.9-1.9l.5-.4c.3.6.7,1.2,1,1.8l-.6.3h0ZM508.4,81.3c-.3-.6-.7-1.2-1-1.8l.5-.4c.4.6.7,1.2,1.1,1.8l-.5.4h0ZM249.3,77.8v-.7h1.4s.5,0,.5,0v.7h-.5s-1.4,0-1.4,0ZM253.1,77.1c.6,0,1.3,0,1.9,0v.7c-.6,0-1.2,0-1.9,0v-.7ZM247.3,77.8c-.6,0-1.3,0-1.9-.1v-.7c.7,0,1.3,0,1.9,0v.7h0ZM506.3,77.8c-.4-.6-.7-1.1-1.1-1.7l.5-.4c.4.6.8,1.1,1.1,1.7l-.5.4h0ZM256.9,76.9l1.9-.2v.7c-.6,0-1.2.1-1.9.2v-.7ZM241.6,77.4v-.7c.7,0,1.3.1,2,.2v.7c0,0-2-.2-2-.2ZM260.7,76.5c.6,0,1.3-.2,1.9-.3v.7c-.6,0-1.2.2-1.8.3v-.7ZM239.7,77.2c-.6,0-1.3-.2-1.9-.3v-.7c.7,0,1.4.2,2,.3v.7c0,0-.1,0-.1,0ZM264.5,75.9c.6-.1,1.2-.2,1.9-.3v.7c-.5.1-1.2.2-1.8.3v-.7ZM235.8,76.6c-.6,0-1.3-.2-1.9-.3v-.7c0,0,2,.3,2,.3v.7c0,0-.1,0-.1,0ZM232.1,76c-.6-.1-1.3-.2-1.9-.4v-.7c.1,0,2,.4,2,.4v.7c-.1,0-.1,0-.1,0ZM268.2,75.2c.6-.1,1.2-.3,1.9-.4v.7c-.5.1-1.1.3-1.8.4v-.7ZM226.4,74.8v-.7c.1,0,2,.4,2,.4v.7c-.1,0-2-.4-2-.4ZM272,74.3c.6-.2,1.2-.3,1.9-.5v.7c.1,0-1.7.5-1.7.5v-.7ZM502.8,72.8l.5-.5c.4.5.8,1.1,1.2,1.7l-.5.4c-.4-.6-.8-1.1-1.2-1.6ZM222.7,73.8v-.7c.1,0,2,.5,2,.5v.7c-.1,0-2-.5-2-.5ZM275.6,73.3c.6-.2,1.2-.4,1.8-.5l.2.7-1.9.5-.2-.7ZM218.9,72.8l.2-.7,1.8.5-.2.7-1.9-.5ZM279.3,72.2l1.8-.6.2.7-1.8.6-.2-.7ZM215.2,71.7l.2-.7,1.8.6-.2.7-1.8-.6ZM283,71c.6-.2,1.2-.4,1.8-.7l.2.7c-.6.2-1.2.4-1.8.7l-.2-.7ZM501.5,71.1c-.4-.5-.8-1.1-1.3-1.6l.5-.5c.4.5.9,1.1,1.3,1.6l-.5.5h0ZM211.5,70.5l.2-.7,1.8.6-.2.7-1.8-.6ZM286.6,69.6l1.8-.7.2.7-1.8.7-.2-.7ZM207.9,69.2l.2-.7,1.8.6-.2.7-1.8-.6ZM290.2,68.2l1.8-.8.2.7c-.6.3-1.2.5-1.8.7l-.2-.7ZM204.3,67.9l.2-.7,1.8.7-.2.7-1.8-.7ZM499,68c-.4-.5-.9-1-1.3-1.5l.4-.5c.5.5.9,1,1.4,1.5l-.5.5h0ZM293.8,66.7l1.8-.8.2.7-1.8.8-.2-.7ZM200.6,66.5l.2-.7,1.8.7-.2.7-1.8-.8ZM297.3,65.1l1.8-.8.2.7-1.8.8-.3-.7ZM197,65.1l.2-.7,1.8.7-.2.7-1.8-.7ZM496.3,65c-.5-.5-.9-1-1.4-1.4l.4-.5c.5.4.9.9,1.4,1.4l-.4.5h0ZM193.5,63.5l.2-.7,1.8.8-.2.7-1.8-.8ZM300.8,63.5l1.8-.8.2.7-1.8.8-.2-.7ZM189.9,61.9l.2-.7,1.8.8-.2.7-1.8-.8ZM304.3,61.8l1.7-.8.3.7-1.7.9-.2-.7ZM492,60.8l.4-.5c.5.5,1,1,1.5,1.4l-.4.5-1.5-1.4ZM186.4,60.2l.3-.7,1.8.8-.2.7-1.8-.8ZM307.8,60l1.7-.9.3.6-1.7.9-.3-.7ZM489,58.2l.4-.6c.5.4,1,.9,1.5,1.3l-.4.6-1.5-1.3ZM182.9,58.5l.3-.7,1.7.9-.3.7-1.8-.9ZM311.3,58.3l1.7-.9.3.6-1.8.9-.2-.6ZM181.1,57.6c-1.1-.6-1.7-1-1.7-1l.3-.6s.6.3,1.7.9l-.3.6h0ZM314.8,56.5l1.7-.9.3.6-1.7.9-.3-.6ZM487.5,56.9c-.5-.4-1-.8-1.6-1.2l.4-.6c.5.4,1.1.8,1.6,1.2l-.4.6h0ZM318.2,54.7l1.7-.9.3.6-1.7.9-.3-.6ZM484.3,54.5c-.5-.4-1.1-.8-1.7-1.2l.3-.6c.5.4,1.1.8,1.6,1.2l-.4.6h0ZM321.7,53l1.7-.9.3.6-1.7.9-.3-.6ZM479.4,51.1l.3-.6,1.6,1.1-.3.6-1.6-1.1ZM325.2,51.2l1.7-.9.3.6-1.7.9-.3-.6ZM328.7,49.5l1.8-.9.3.7-1.7.9-.3-.7ZM476.2,49l.3-.6c.6.3,1.1.7,1.7,1.1l-.3.6-1.7-1.1ZM332.2,47.8l1.8-.8.2.7-1.8.9-.2-.7ZM474.5,48c-.6-.3-1.1-.7-1.7-1l.3-.6c.6.3,1.1.7,1.7,1l-.3.6h0ZM335.7,46.1l1.8-.8.2.7-1.8.8-.2-.7ZM469.4,45.1l.3-.6,1.7.9-.3.6-1.7-.9ZM339.3,44.5h.3c0-.1,1.5-.8,1.5-.8l.2.7c-.5.2-1,.4-1.5.7h-.3c0,.1-.2-.5-.2-.5ZM465.9,43.3l.3-.6c.6.3,1.2.6,1.7.9l-.3.6-1.7-.9ZM342.8,42.9c.6-.2,1.2-.5,1.8-.7l.2.7-1.8.7-.2-.7ZM462.4,41.6l.2-.7c.6.3,1.2.5,1.8.8l-.3.7-1.8-.8ZM346.4,41.5c.6-.2,1.2-.5,1.8-.7l.2.7-1.8.7-.2-.7ZM458.9,40.1l.2-.7c.6.2,1.2.5,1.8.8l-.2.7-1.8-.8ZM350.1,40c.6-.2,1.2-.4,1.8-.7l.2.7c-.6.2-1.2.4-1.8.7l-.2-.7ZM353.8,38.7l1.8-.6.2.7c-.6.2-1.2.4-1.8.6l-.2-.7ZM457.1,39.3c-.6-.2-1.2-.5-1.8-.7l.2-.7,1.8.7-.2.7h0ZM357.4,37.5l1.8-.6.2.7-1.8.6-.2-.7ZM453.5,38c-.6-.2-1.2-.4-1.8-.6l.2-.7c.6.2,1.2.4,1.8.7l-.2.7h0ZM361.1,36.4l1.8-.5.2.7-1.8.5-.2-.7ZM449.9,36.7c-.6-.2-1.2-.4-1.8-.6l.2-.7c.6.2,1.2.4,1.8.6l-.2.7h0ZM364.8,35.3l1.9-.5v.7c.1,0-1.7.5-1.7.5l-.2-.7ZM446.2,35.6c-.6-.2-1.2-.4-1.8-.6l.2-.7,1.9.5-.2.7h0ZM368.6,34.3l1.9-.5v.7c.1,0-1.7.5-1.7.5v-.7ZM440.7,34v-.7c.7.1,1.4.3,2,.5v.7c-.1,0-2-.5-2-.5ZM372.2,33.4l1.9-.4v.7c.1,0-1.8.4-1.8.4l-.2-.7ZM436.9,33.2v-.7c.1,0,2,.4,2,.4v.7c-.1,0-2-.4-2-.4ZM376,32.7l1.9-.4v.7c.1,0-1.8.4-1.8.4v-.7ZM433.1,32.4v-.7c.1,0,2,.4,2,.4v.7c-.1,0-2-.4-2-.4ZM379.8,31.9l1.9-.3v.7c-.5,0-1.2.2-1.8.3v-.7ZM429.4,31.8v-.7c.7,0,1.4.2,2,.3v.7c0,0-2-.3-2-.3ZM383.6,31.3l1.9-.3v.7c0,0-1.8.3-1.8.3v-.7ZM425.6,31.2v-.7c.7,0,1.3.2,2,.3v.7c-.7,0-1.3-.2-2-.3ZM387.4,30.7l1.9-.2v.7c0,0-1.8.2-1.8.2v-.7ZM421.8,30.8v-.7c0,0,2,.2,2,.2v.7c0,0-2-.2-2-.2ZM391.2,30.3l1.9-.2v.7c-.6,0-1.2.1-1.9.2v-.7ZM418,30.5v-.7s2,.2,2,.2v.7c0,0-2-.2-2-.2ZM395,29.9h1.9c0-.1,0,.6,0,.6h-1.9c0,.1,0-.6,0-.6ZM398.9,29.7h1.9c0,0,0,.6,0,.6h-1.9c0,0,0-.6,0-.6ZM416.1,30.4c-.6,0-1.3,0-1.9,0v-.7c.7,0,1.3,0,1.9,0v.7s0,0,0,0ZM402.7,29.5h1.9s0,.7,0,.7h-1.9s0-.7,0-.7ZM410.4,30.2v-.7h1.9v.8h-1.9ZM406.5,29.4h1.9v.7h-1.9v-.7Z"/>
  </g>
  <path class="cls-3" d="M401.4,49.2c1.9-1.1,3.9-2,6-2.6l1.2-5.9,10-.2,1.5,5.9c2.1.5,4.2,1.3,6.1,2.4l5.1-3.3,7.2,7-3.1,5.2c1.1,1.9,2,3.9,2.6,6l6,1.2.2,10-5.9,1.4c-.5,2.1-1.3,4.2-2.4,6.1l3.3,5.1-7,7.2-5.2-3.1c-1.9,1.1-3.9,2-6,2.6l-1.2,6-10,.2-1.5-5.9c-2.1-.5-4.2-1.3-6.1-2.4l-5.1,3.3-7.2-7,3.1-5.2c-1.1-1.9-2-3.9-2.6-6l-6-1.2-.2-10.1,5.9-1.4c.5-2.1,1.3-4.2,2.4-6.1l-3.3-5.1,7-7.2,5.2,3.1h0ZM406.7,62.6c-4.1,4.3-4,11.1.3,15.2s11.1,4,15.2-.3c4.1-4.3,4-11.1-.3-15.2-4.3-4.1-11.1-4-15.2.3Z"/>
  <path class="cls-1" d="M258.3,24c1.2-.7,2.5-1.3,3.8-1.7l.8-3.8h6.4c0-.1.9,3.6.9,3.6,1.4.3,2.7.8,3.9,1.5l3.2-2.1,4.6,4.5-2,3.3c.7,1.2,1.3,2.5,1.7,3.8l3.8.8v6.4c.1,0-3.7.9-3.7.9-.3,1.4-.8,2.7-1.5,3.9l2.1,3.2-4.5,4.6-3.3-2c-1.2.7-2.5,1.3-3.8,1.7l-.8,3.8h-6.4c0,.1-.9-3.6-.9-3.6-1.4-.3-2.7-.9-3.9-1.5l-3.2,2.1-4.6-4.4,2-3.3c-.7-1.2-1.3-2.5-1.7-3.8l-3.8-.8v-6.4c-.1,0,3.6-.9,3.6-.9.3-1.4.8-2.7,1.5-3.9l-2.2-3.3,4.5-4.6,3.3,2h0ZM261.7,32.6c-2.6,2.7-2.6,7.1.2,9.7,2.7,2.6,7.1,2.6,9.7-.2,2.6-2.7,2.6-7.1-.2-9.7-2.7-2.6-7.1-2.6-9.7.2,0,0,0,0,0,0Z"/>
</svg>