<?xml version="1.0" encoding="UTF-8"?>
<svg id="Layer_1" data-name="Layer 1" xmlns="http://www.w3.org/2000/svg" xmlns:xlink="http://www.w3.org/1999/xlink" version="1.1" viewBox="0 0 500 500">
  <defs>
    <style>
      .cls-1 {
        fill-opacity: .7;
        opacity: .2;
      }

      .cls-1, .cls-2, .cls-3, .cls-4, .cls-5, .cls-6, .cls-7, .cls-8, .cls-9, .cls-10, .cls-11, .cls-12, .cls-13, .cls-14, .cls-15 {
        stroke-width: 0px;
      }

      .cls-1, .cls-8, .cls-10, .cls-11, .cls-14 {
        isolation: isolate;
      }

      .cls-1, .cls-9 {
        fill: #000;
      }

      .cls-16 {
        fill: #c799b4;
      }

      .cls-16, .cls-17, .cls-18, .cls-19, .cls-20, .cls-21, .cls-22, .cls-23 {
        stroke-linecap: round;
        stroke-linejoin: round;
      }

      .cls-16, .cls-17, .cls-18, .cls-21, .cls-22, .cls-23 {
        stroke-width: 1.1px;
      }

      .cls-16, .cls-18, .cls-19, .cls-20, .cls-21, .cls-22, .cls-23 {
        stroke: #263238;
      }

      .cls-2 {
        fill: #f5f5f5;
      }

      .cls-17 {
        stroke: #001a35;
      }

      .cls-17, .cls-18, .cls-19, .cls-20, .cls-4 {
        fill: none;
      }

      .cls-3 {
        fill: #ebebeb;
      }

      .cls-24 {
        clip-path: url(#clippath);
      }

      .cls-19 {
        stroke-width: 1.1px;
      }

      .cls-20 {
        stroke-width: 1.1px;
      }

      .cls-25 {
        opacity: 0;
      }

      .cls-21 {
        fill: #001c3a;
      }

      .cls-5 {
        fill: #455a64;
      }

      .cls-6 {
        fill: #263238;
      }

      .cls-22 {
        fill: #f1f5ff;
      }

      .cls-7 {
        fill: #36538e;
      }

      .cls-8 {
        fill: #d5e1ff;
      }

      .cls-8, .cls-10, .cls-11, .cls-14 {
        opacity: .4;
      }

      .cls-26 {
        clip-path: url(#clippath-1);
      }

      .cls-27 {
        clip-path: url(#clippath-4);
      }

      .cls-28 {
        clip-path: url(#clippath-3);
      }

      .cls-29 {
        clip-path: url(#clippath-2);
      }

      .cls-30 {
        clip-path: url(#clippath-7);
      }

      .cls-31 {
        clip-path: url(#clippath-8);
      }

      .cls-32 {
        clip-path: url(#clippath-6);
      }

      .cls-33 {
        clip-path: url(#clippath-5);
      }

      .cls-34 {
        clip-path: url(#clippath-9);
      }

      .cls-10 {
        fill: #667686;
      }

      .cls-35 {
        clip-path: url(#clippath-14);
      }

      .cls-36 {
        clip-path: url(#clippath-13);
      }

      .cls-37 {
        clip-path: url(#clippath-12);
      }

      .cls-38 {
        clip-path: url(#clippath-10);
      }

      .cls-39 {
        clip-path: url(#clippath-11);
      }

      .cls-11, .cls-12 {
        fill: #94d7c8;
      }

      .cls-40 {
        opacity: .3;
      }

      .cls-41 {
        opacity: .3;
      }

      .cls-23 {
        fill: #999;
      }

      .cls-13, .cls-14 {
        fill: #fff;
      }

      .cls-15 {
        fill: #99a5be;
      }
    </style>
    <clipPath id="clippath">
      <path class="cls-4" d="M201,313.3l3.8,6.9c.3.5.7.8,1.2,1,.4.1.8.2,1.2.2l6.9-.7c.7,0,1.3-.4,1.7-1l3.8-5.4c.2-.3.3-.5.4-.9,0-.4,0-.9-.2-1.3l-2.8-6.7c-.3-.8-1.1-1.4-2-1.4l-8.1-.6c-1,0-1.9.4-2.3,1.2l-3.5,6.5c-.4.7-.3,1.5,0,2.1Z"/>
    </clipPath>
    <clipPath id="clippath-1">
      <path class="cls-4" d="M249.1,261.7l-1.6,2.8c-.1.2-.2.4-.1.6,0,.2.1.3.2.4l1.8,2.1c.2.2.5.3.8.3h2.8c.1,0,.3,0,.4,0,.2,0,.3-.2.4-.3l1.8-2.5c.2-.3.2-.7,0-1l-1.6-2.9c-.2-.3-.6-.5-1-.5l-3.2.3c-.3,0-.6.2-.8.5Z"/>
    </clipPath>
    <clipPath id="clippath-2">
      <path class="cls-4" d="M171.3,310.8l1.6,2.9c.1.2.3.4.5.4.2,0,.3,0,.5,0l2.9-.3c.3,0,.5-.2.7-.4l1.6-2.2c0-.1.1-.2.2-.4,0-.2,0-.4,0-.5l-1.2-2.8c-.1-.3-.5-.6-.8-.6l-3.4-.3c-.4,0-.8.2-1,.5l-1.5,2.7c-.1.3-.1.6,0,.9Z"/>
    </clipPath>
    <clipPath id="clippath-3">
      <path class="cls-4" d="M158.5,236.5l-3,1.5c-.2.1-.4.3-.5.5,0,.1,0,.3,0,.5l.3,2.8c0,.3.2.5.4.7l2.3,1.6c.1,0,.2.1.4.2.2,0,.4,0,.6,0l2.9-1.1c.4-.1.6-.4.6-.8l.3-3.3c0-.4-.2-.8-.5-.9l-2.8-1.5c-.3-.2-.6-.2-.9,0Z"/>
    </clipPath>
    <clipPath id="clippath-4">
      <path class="cls-4" d="M247.5,287v4.4c0,1.4-.8,2.7-2.2,3.3l-4.3,2c-.6.3-1.2.4-1.8.3-.4,0-.7,0-1-.2l-3.9-1.3c-1.5-.5-2.6-1.9-2.6-3.5v-4.5c0-.4,0-.8.2-1.1.4-1.2,1.3-2.1,2.6-2.4l4.8-1.3c.6-.2,1.2-.2,1.8,0l3.5.7c1.8.4,3,1.8,3,3.6Z"/>
    </clipPath>
    <clipPath id="clippath-5">
      <path class="cls-4" d="M172,248.3v4.4c0,1.4.8,2.7,2.2,3.3l4.3,2c.6.3,1.2.4,1.8.3.4,0,.7,0,1-.2l3.9-1.3c1.5-.5,2.6-1.9,2.6-3.5v-4.4c0-.4,0-.8-.2-1.1-.4-1.2-1.3-2-2.6-2.4l-4.8-1.3c-.6-.2-1.2-.2-1.8,0l-3.5.7c-1.8.4-3,1.8-3,3.5Z"/>
    </clipPath>
    <clipPath id="clippath-6">
      <path class="cls-4" d="M199,293l-2.7,3.6c-1.1,1.5-3.2,2-4.9,1.1l-3.1-1.5c-.7-.4-1.3-1-1.7-1.7l-1.1-2.2c-.4-.8-.5-1.6-.2-2.5.1-.4.3-.9.6-1.2l2.9-3.8c1-1.4,2.8-1.9,4.4-1.3l3.1,1.1c1.2.4,2,1.3,2.4,2.5l.8,2.9c.3,1.1,0,2.2-.6,3.1Z"/>
    </clipPath>
    <clipPath id="clippath-7">
      <path class="cls-4" d="M192.2,218.4l2.5,3.7c.5.7.7,1.6.6,2.5-.1.9-.6,1.7-1.3,2.3l-2.6,2.2c-.6.5-1.4.8-2.2.9l-2.5.2c-1.4,0-2.7-.5-3.4-1.7l-2.7-4c-.9-1.4-.8-3.2.3-4.4l2.2-2.4c.8-.9,2-1.3,3.3-1.2l3.1.3c1.1.1,2.1.7,2.7,1.6Z"/>
    </clipPath>
    <clipPath id="clippath-8">
      <path class="cls-4" d="M236.3,246l-.3,4.4c0,.9-.4,1.7-1.1,2.3-.6.7-1.5,1-2.5,1.1l-3.4.2c-.8,0-1.7-.1-2.4-.6l-2.1-1.3c-.7-.5-1.3-1.2-1.6-2-.1-.4-.2-.9-.2-1.3l.3-4.7c.1-1.6,1.3-3,3-3.3l3.2-.6c1.2-.2,2.5,0,3.4.9l2.3,2c.8.7,1.3,1.8,1.2,2.9Z"/>
    </clipPath>
    <clipPath id="clippath-9">
      <path class="cls-4" d="M166.5,272.6l3.7,5.4c1.6,2.3,1.1,5.3-1,7l-3.8,3.2c-.9.8-2.1,1.2-3.3,1.3l-3.7.3c-2,.1-4-.8-5.1-2.4l-3.9-5.9c-1.4-2-1.2-4.7.5-6.5l3.2-3.5c1.2-1.3,3-2,4.8-1.8l4.6.5c1.6.2,3.1,1,4.1,2.3Z"/>
    </clipPath>
    <clipPath id="clippath-10">
      <path class="cls-4" d="M216.4,234.5l4.3,5.8c1.8,2.4,5.1,3.2,7.8,1.8l4.9-2.5c1.2-.6,2.1-1.5,2.7-2.7l1.7-3.5c.6-1.2.7-2.6.4-3.9-.2-.7-.5-1.4-1-2l-4.6-6.2c-1.6-2.1-4.5-3-7.1-2.1l-4.9,1.7c-1.9.7-3.3,2.1-3.8,4l-1.3,4.6c-.5,1.7-.1,3.5.9,4.9Z"/>
    </clipPath>
    <clipPath id="clippath-11">
      <path class="cls-4" d="M213.1,262.9l-6,11c-.4.8-1.1,1.4-1.9,1.7-.6.2-1.2.3-1.9.2l-11-1.2c-1.1-.1-2.1-.7-2.7-1.6l-6.1-8.6c-.3-.4-.5-.9-.6-1.4-.2-.7,0-1.4.2-2.1l4.5-10.6c.5-1.3,1.8-2.2,3.2-2.3l13-1c1.5-.1,3,.7,3.7,2l5.6,10.4c.6,1.1.6,2.3,0,3.3Z"/>
    </clipPath>
    <clipPath id="clippath-12">
      <path class="cls-4" d="M46.5,455.1c1.6-6.6,8.5-10.7,15.4-9.2,6.9,1.6,11.2,8.2,9.6,14.8s-8.5,10.7-15.4,9.2-11.2-8.2-9.6-14.8Z"/>
    </clipPath>
    <clipPath id="clippath-13">
      <path class="cls-4" d="M85.9,449.2c5-4.8,13.1-4.8,18.1,0,5,4.8,5,12.6,0,17.4s-13.1,4.8-18.1,0-5-12.6,0-17.4Z"/>
    </clipPath>
    <clipPath id="clippath-14">
      <path class="cls-4" d="M87.1,304.4v28.1h-20.1v-28.1c0-1.4,1.2-2.6,2.7-2.6h14.9c1.4,0,2.6,1.2,2.6,2.6Z"/>
    </clipPath>
  </defs>
  <rect class="cls-15" x="-125" y=".5" width="750" height="500"/>
  <g id="freepik--Plant--inject-19" class="cls-25">
    <path class="cls-5" d="M70.2,157.3c14.4,4.2,26.8,15.3,34.2,30.7,7.3,15.4,11.6,32.5,12.7,50.2,2.7,33.9-7.1,71.4-19.3,102-27.5-18.5-40.2-59.6-45.6-81-8.5-33.7-6.9-101,18-102"/>
    <path class="cls-5" d="M134.3,388.1c-6.7-18.4-4.7-39.7,5.3-55.8,10.2-15.7,25.2-25.9,41.6-28.1,7.4-1.9,15.1,0,21.2,5.5,5,6.3,6.7,15.4,4.4,23.7-2.2,8.1-6.2,15.4-11.5,21-17.4,20.3-37.4,36-61.5,33.6"/>
    <path class="cls-6" d="M122.5,497.3c-.3-2.3-.4-4.7-.4-7,0-5,0-11.4-.4-19.1-1.1-21.1.7-42.4,5.3-62.8,4.9-20.5,14.3-39.1,27.2-53.8,3.9-4.4,8.3-8.2,13-11.3,1.2-.9,2.5-1.6,3.9-2.3.4-.3.9-.5,1.4-.6-6.2,4.5-11.9,9.7-17.3,15.5-12.4,14.7-21.5,33-26.5,53.2-4.6,20.2-6.6,41.2-6,62.1v19.1c0,2.3,0,4.7-.2,7Z"/>
    <path class="cls-6" d="M72.7,208.7c.3.9.6,1.9.8,2.9.5,2.2,1.2,5,1.9,8.4,1.6,7.3,3.9,18,6.6,31.2,5.3,26.4,12.4,63,19.4,103.6,7,40.6,12.6,77.5,16.4,104.3,1.9,13.4,3.3,24.2,4.2,31.9.4,3.6.7,6.4,1,8.7,0,1,0,2,0,3.1-.3-1-.5-2-.6-3-.4-2.2-.8-5-1.4-8.6-1.2-7.7-2.9-18.5-4.9-31.6-4.1-26.7-10-63.8-16.9-104.1-7-40.4-13.8-77.2-18.7-103.6-2.5-12.8-4.5-23.7-5.9-31.4-.6-3.5-1.2-6.4-1.5-8.5-.2-1-.2-2.1-.2-3.1Z"/>
    <path class="cls-5" d="M97.8,418.5c-12.9-39.2-40.7-68.5-74.6-78.8-8.5-2.5-19.1-2.8-24.3,5.7s-1.5,20.7,3.3,29.5c21.1,37.3,58.6,55.7,95.3,46.7"/>
    <path class="cls-6" d="M32.5,369.9c1.8.3,3.6.7,5.3,1.3,2.1.6,4.2,1.3,6.2,2.2,2.3,1,5.3,1.9,8,3.5s6.1,3.1,9.4,5.3c3.5,2.2,7,4.6,10.3,7.3,7.6,6.1,14.6,13.2,20.8,21.2,6.1,8.1,11.4,17,15.9,26.6,2,4.1,3.7,8.4,5.3,12.8,1.4,3.8,2.5,7.7,3.5,11.7,1.1,3.6,1.5,7,2.1,9.9.5,2.5.9,5.1,1.2,7.7.3,2.1.5,4.2.5,6.4-.5,0-1.3-9.3-5.3-23.7-1-3.9-2.3-7.7-3.7-11.4-1.6-4.4-3.3-8.6-5.3-12.8-4.5-9.3-9.8-18.1-15.9-26-6.2-7.8-13-14.9-20.3-21-3.5-2.7-6.8-5.3-10.1-7.3-3-2-6-3.9-9.2-5.5-11.3-5.6-18.9-7.7-18.8-8.2Z"/>
  </g>
  <g>
    <g id="freepik--Graphics--inject-4">
      <path class="cls-17" d="M150.8,388.5l64.5-3.8s2.7,59.8,18.7,91.5l-71.3,9.8s-10.4-51.4-12-97.5Z"/>
      <path class="cls-17" d="M148.9,394.5s-.2,40.6,9.4,97l68.3-6.6-.9-4.4"/>
      <path class="cls-17" d="M161,406.3s5.3-3.4,8.4-2.3,1.5,5.5,4.6,3.1c3.1-2.4,8.4-4.7,9.6-2.5,1.1,2.3,10.4,0,10.4,0,0,0,9.6-1.4,14.8-1.6"/>
      <path class="cls-17" d="M164.3,423.7c2.6-1,5.1-2.2,7.5-3.6-.4.9-.5,2-.1,3,1.1-.6,2.2-1.1,3.3-1.7.1.8.9,1.3,1.7,1.2.9-.2,1.8-1.1,2.5-.6.2.1.4.3.6.4.4.2.8,0,1.1-.3l3.4-2.4c0,1,1.1,1.8,2.2,1.9,1.1,0,2.2-.3,3.2-.7,6.1-1.8,13.1.6,18.7-2.3"/>
      <path class="cls-17" d="M165.9,437.9c1.4-.7,2.9-1.1,4.4-1.2.2.5.3,1,.5,1.5.8-.2,1.5-.5,2.2-.9.4.4,1.1.2,1.6-.1l6-3.2c-.5,1.9-.6,3.8-.5,5.8l4.6-4.3c.3,1,1.8,1.1,2.7.4.3-.2.6-.5,1-.5s.5.8,0,.7c.6-.7,1.8-.4,2.7-.2,3,.4,5.6-1.5,8.5-2.5,3.4-1.1,7.1-.8,10.6-.4"/>
      <path class="cls-17" d="M169.4,454.4c.6.1,1.3-.1,1.6-.6.4-.5.8-.9,1.4-1.2.6-.2,1.4.2,1.3.8,1.9-.8,3.7-1.9,5.3-3.2-.1,1.8.3,3.6,1.2,5.1,1,.4,1.9-.5,2.5-1.3s1.3-1.8,2.3-1.8c.4,0,.8.2,1.3.3,1,.1,1.9-.7,2.9-1.1,1.6-.6,3.6,0,5.1-.7,2-1.1,2.3-4.3,4.5-4.6-.2,2.7-.3,5.4-.5,8,1.1-1.5,2.4-2.9,4-3.9.6.9,2,.6,2.9,0s1.7-1.4,2.8-1.5c.6,0,1.2,0,1.8.2,1.2.2,2.4,0,3.5-.4"/>
      <path class="cls-17" d="M-42.4,423.2H-5.9c2,0,3.6,1.5,3.6,3.4v55.9c0,1.9-1.6,3.4-3.6,3.4h-36.5c-2,0-3.6-1.5-3.6-3.4v-55.9c0-1.9,1.6-3.4,3.6-3.4Z"/>
      <polyline class="cls-17" points="-42.3 421.1 -42.3 407.7 -5.5 407.7 -5.5 421.1 -37.1 421.1"/>
      <line class="cls-17" x1="-8.5" y1="409.8" x2="-8.5" y2="419.2"/>
      <line class="cls-17" x1="-39" y1="409.8" x2="-39" y2="419.2"/>
      <line class="cls-17" x1="-33.1" y1="409.8" x2="-33.1" y2="419.2"/>
      <line class="cls-17" x1="-14.7" y1="409.9" x2="-14.7" y2="419.2"/>
      <line class="cls-17" x1="-23.1" y1="409.9" x2="-23.1" y2="419.2"/>
      <polyline class="cls-17" points="-44.8 440.5 -11.9 440.5 -11.9 466.2 -44.8 466.2"/>
      <line class="cls-17" x1="-4.7" y1="427.5" x2="-4.7" y2="458.8"/>
      <line class="cls-17" x1="-4.7" y1="461.1" x2="-4.7" y2="466.2"/>
      <line class="cls-17" x1="-92.4" y1="479.6" x2="-48.7" y2="479.6"/>
      <line class="cls-17" x1="-2.4" y1="479.6" x2="10.5" y2="479.6"/>
      <line class="cls-17" x1="144.1" y1="479.6" x2="155.7" y2="479.6"/>
      <line class="cls-17" x1="232.9" y1="479.6" x2="260.1" y2="479.6"/>
    </g>
    <g id="freepik--Bubble--inject-4">
      <path class="cls-22" d="M262.9,306.7c21.5-32.6,11.4-75.7-22.5-96.3-33.9-20.6-78.9-11-100.4,21.6-20.3,30.7-12.6,71.1,17.6,93l-3.4,16,13.6-9.8c33.5,16.8,74.9,6.2,95.1-24.5Z"/>
      <path class="cls-6" d="M153.9,223.8c26.2-25.2,68.7-25.2,95,0,26.2,25.2,26.2,66,0,91.1-26.2,25.2-68.7,25.2-95,0-26.2-25.2-26.2-66,0-91.1Z"/>
      <path class="cls-13" d="M201,313.3l3.8,6.9c.3.5.7.8,1.2,1,.4.1.8.2,1.2.2l6.9-.7c.7,0,1.3-.4,1.7-1l3.8-5.4c.2-.3.3-.5.4-.9,0-.4,0-.9-.2-1.3l-2.8-6.7c-.3-.8-1.1-1.4-2-1.4l-8.1-.6c-1,0-1.9.4-2.3,1.2l-3.5,6.5c-.4.7-.3,1.5,0,2.1Z"/>
      <g class="cls-24">
        <path class="cls-11" d="M206,321.2c.4.1.8.2,1.2.2l6.9-.7c.7,0,1.3-.4,1.7-1l3.8-5.4c.2-.3.3-.5.4-.9h-7.3c-1,0-1.9.5-2.4,1.3l-4.3,6.5Z"/>
      </g>
      <path class="cls-18" d="M201,313.3l3.8,6.9c.3.5.7.8,1.2,1,.4.1.8.2,1.2.2l6.9-.7c.7,0,1.3-.4,1.7-1l3.8-5.4c.2-.3.3-.5.4-.9,0-.4,0-.9-.2-1.3l-2.8-6.7c-.3-.8-1.1-1.4-2-1.4l-8.1-.6c-1,0-1.9.4-2.3,1.2l-3.5,6.5c-.4.7-.3,1.5,0,2.1Z"/>
      <path class="cls-18" d="M218.4,312.4h-5.7c-1.1,0-2.1-.6-2.6-1.5l-3-5.6"/>
      <line class="cls-18" x1="210.3" y1="314.4" x2="207.1" y2="319.5"/>
      <path class="cls-13" d="M249.1,261.7l-1.6,2.8c-.1.2-.2.4-.1.6,0,.2.1.3.2.4l1.8,2.1c.2.2.5.3.8.3h2.8c.1,0,.3,0,.4,0,.2,0,.3-.2.4-.3l1.8-2.5c.2-.3.2-.7,0-1l-1.6-2.9c-.2-.3-.6-.5-1-.5l-3.2.3c-.3,0-.6.2-.8.5Z"/>
      <g class="cls-26">
        <path class="cls-11" d="M247.3,265.2c0,.2.1.3.2.4l1.8,2.1c.2.2.5.3.8.3h2.8c.1,0,.3,0,.4,0l-1.7-2.4c-.2-.3-.6-.5-1-.5h-3.4Z"/>
      </g>
      <path class="cls-18" d="M249.1,261.7l-1.6,2.8c-.1.2-.2.4-.1.6,0,.2.1.3.2.4l1.8,2.1c.2.2.5.3.8.3h2.8c.1,0,.3,0,.4,0,.2,0,.3-.2.4-.3l1.8-2.5c.2-.3.2-.7,0-1l-1.6-2.9c-.2-.3-.6-.5-1-.5l-3.2.3c-.3,0-.6.2-.8.5Z"/>
      <path class="cls-18" d="M253.4,267.4l-1.3-1.9c-.2-.4-.2-.8,0-1.2l1.3-2.3"/>
      <line class="cls-18" x1="250.8" y1="265.1" x2="248.2" y2="265.2"/>
      <path class="cls-13" d="M171.3,310.8l1.6,2.9c.1.2.3.4.5.4.2,0,.3,0,.5,0l2.9-.3c.3,0,.5-.2.7-.4l1.6-2.2c0-.1.1-.2.2-.4,0-.2,0-.4,0-.5l-1.2-2.8c-.1-.3-.5-.6-.8-.6l-3.4-.3c-.4,0-.8.2-1,.5l-1.5,2.7c-.1.3-.1.6,0,.9Z"/>
      <g class="cls-29">
        <path class="cls-11" d="M173.4,314.1c.2,0,.3,0,.5,0l2.9-.3c.3,0,.5-.2.7-.4l1.6-2.2c0-.1.1-.2.2-.4h-3c-.4,0-.8.2-1,.5l-1.8,2.7Z"/>
      </g>
      <path class="cls-18" d="M171.3,310.8l1.6,2.9c.1.2.3.4.5.4.2,0,.3,0,.5,0l2.9-.3c.3,0,.5-.2.7-.4l1.6-2.2c0-.1.1-.2.2-.4,0-.2,0-.4,0-.5l-1.2-2.8c-.1-.3-.5-.6-.8-.6l-3.4-.3c-.4,0-.8.2-1,.5l-1.5,2.7c-.1.3-.1.6,0,.9Z"/>
      <path class="cls-18" d="M178.6,310.4h-2.4c-.4,0-.9-.2-1.1-.6l-1.3-2.3"/>
      <line class="cls-18" x1="175.2" y1="311.3" x2="173.9" y2="313.4"/>
      <path class="cls-13" d="M158.5,236.5l-3,1.5c-.2.1-.4.3-.5.5,0,.1,0,.3,0,.5l.3,2.8c0,.3.2.5.4.7l2.3,1.6c.1,0,.2.1.4.2.2,0,.4,0,.6,0l2.9-1.1c.4-.1.6-.4.6-.8l.3-3.3c0-.4-.2-.8-.5-.9l-2.8-1.5c-.3-.2-.6-.2-.9,0Z"/>
      <g class="cls-28">
        <path class="cls-11" d="M155,238.4c0,.1,0,.3,0,.5l.3,2.8c0,.3.2.5.4.7l2.3,1.6c.1,0,.2.1.4.2v-2.9c0-.4-.1-.7-.5-1l-2.8-1.8Z"/>
      </g>
      <path class="cls-18" d="M158.5,236.5l-3,1.5c-.2.1-.4.3-.5.5,0,.1,0,.3,0,.5l.3,2.8c0,.3.2.5.4.7l2.3,1.6c.1,0,.2.1.4.2.2,0,.4,0,.6,0l2.9-1.1c.4-.1.6-.4.6-.8l.3-3.3c0-.4-.2-.8-.5-.9l-2.8-1.5c-.3-.2-.6-.2-.9,0Z"/>
      <path class="cls-18" d="M158.7,243.5v-2.3c0-.4.3-.8.7-1l2.4-1.2"/>
      <line class="cls-18" x1="157.9" y1="240.2" x2="155.7" y2="238.9"/>
      <path class="cls-13" d="M247.5,287v4.4c0,1.4-.8,2.7-2.2,3.3l-4.3,2c-.6.3-1.2.4-1.8.3-.4,0-.7,0-1-.2l-3.9-1.3c-1.5-.5-2.6-1.9-2.6-3.5v-4.5c0-.4,0-.8.2-1.1.4-1.2,1.3-2.1,2.6-2.4l4.8-1.3c.6-.2,1.2-.2,1.8,0l3.5.7c1.8.4,3,1.8,3,3.6Z"/>
      <g class="cls-27">
        <path class="cls-11" d="M239.4,288.1s0,5.1-.2,9c-.4,0-.7,0-1-.2l-3.9-1.3c-1.5-.5-2.6-1.9-2.6-3.5v-4.5c0-.4,0-.8.2-1.1l7.5,1.6Z"/>
      </g>
      <path class="cls-18" d="M247.5,287v4.4c0,1.4-.8,2.7-2.2,3.3l-4.3,2c-.6.3-1.2.4-1.8.3-.4,0-.7,0-1-.2l-3.9-1.3c-1.5-.5-2.6-1.9-2.6-3.5v-4.5c0-.4,0-.8.2-1.1.4-1.2,1.3-2.1,2.6-2.4l4.8-1.3c.6-.2,1.2-.2,1.8,0l3.5.7c1.8.4,3,1.8,3,3.6Z"/>
      <path class="cls-18" d="M234.7,287l4.1.8c.5,0,.9.5.9,1v5.6"/>
      <line class="cls-18" x1="245.2" y1="286.1" x2="241.2" y2="287.6"/>
      <path class="cls-13" d="M172,248.3v4.4c0,1.4.8,2.7,2.2,3.3l4.3,2c.6.3,1.2.4,1.8.3.4,0,.7,0,1-.2l3.9-1.3c1.5-.5,2.6-1.9,2.6-3.5v-4.4c0-.4,0-.8-.2-1.1-.4-1.2-1.3-2-2.6-2.4l-4.8-1.3c-.6-.2-1.2-.2-1.8,0l-3.5.7c-1.8.4-3,1.8-3,3.5Z"/>
      <g class="cls-33">
        <path class="cls-11" d="M180.1,249.4s0,5.1.2,9c.4,0,.7,0,1-.2l3.9-1.3c1.5-.5,2.6-1.9,2.6-3.5v-4.4c0-.4,0-.8-.2-1.1l-7.5,1.6Z"/>
      </g>
      <path class="cls-18" d="M172,248.3v4.4c0,1.4.8,2.7,2.2,3.3l4.3,2c.6.3,1.2.4,1.8.3.4,0,.7,0,1-.2l3.9-1.3c1.5-.5,2.6-1.9,2.6-3.5v-4.4c0-.4,0-.8-.2-1.1-.4-1.2-1.3-2-2.6-2.4l-4.8-1.3c-.6-.2-1.2-.2-1.8,0l-3.5.7c-1.8.4-3,1.8-3,3.5Z"/>
      <path class="cls-18" d="M184.8,248.2l-4.1.8c-.5,0-.9.5-.9,1v5.6"/>
      <line class="cls-18" x1="174.3" y1="247.4" x2="178.2" y2="248.9"/>
      <path class="cls-13" d="M199,293l-2.7,3.6c-1.1,1.5-3.2,2-4.9,1.1l-3.1-1.5c-.7-.4-1.3-1-1.7-1.7l-1.1-2.2c-.4-.8-.5-1.6-.2-2.5.1-.4.3-.9.6-1.2l2.9-3.8c1-1.4,2.8-1.9,4.4-1.3l3.1,1.1c1.2.4,2,1.3,2.4,2.5l.8,2.9c.3,1.1,0,2.2-.6,3.1Z"/>
      <g class="cls-32">
        <path class="cls-11" d="M194.2,298c-.9.2-1.8.1-2.7-.3l-3.1-1.5c-.7-.4-1.3-1-1.7-1.7l-1.1-2.2c-.4-.8-.5-1.6-.2-2.5l6.7,2,2.1,6.2Z"/>
      </g>
      <path class="cls-18" d="M199,293l-2.7,3.6c-1.1,1.5-3.2,2-4.9,1.1l-3.1-1.5c-.7-.4-1.3-1-1.7-1.7l-1.1-2.2c-.4-.8-.5-1.6-.2-2.5.1-.4.3-.9.6-1.2l2.9-3.8c1-1.4,2.8-1.9,4.4-1.3l3.1,1.1c1.2.4,2,1.3,2.4,2.5l.8,2.9c.3,1.1,0,2.2-.6,3.1Z"/>
      <path class="cls-18" d="M188,290.7l3.1,1c.8.3,1.7,0,2.2-.7l2.8-4"/>
      <line class="cls-18" x1="192.5" y1="293.3" x2="193.3" y2="295.7"/>
      <path class="cls-13" d="M192.2,218.4l2.5,3.7c.5.7.7,1.6.6,2.5-.1.9-.6,1.7-1.3,2.3l-2.6,2.2c-.6.5-1.4.8-2.2.9l-2.5.2c-1.4,0-2.7-.5-3.4-1.7l-2.7-4c-.9-1.4-.8-3.2.3-4.4l2.2-2.4c.8-.9,2-1.3,3.3-1.2l3.1.3c1.1.1,2.1.7,2.7,1.6Z"/>
      <g class="cls-30">
        <path class="cls-11" d="M195.3,224.6c-.1.9-.6,1.7-1.3,2.3l-2.6,2.2c-.6.5-1.4.8-2.2.9l-2.5.2c-.9,0-1.8-.2-2.5-.7l4.4-5.2,6.8.4Z"/>
      </g>
      <path class="cls-18" d="M192.2,218.4l2.5,3.7c.5.7.7,1.6.6,2.5-.1.9-.6,1.7-1.3,2.3l-2.6,2.2c-.6.5-1.4.8-2.2.9l-2.5.2c-1.4,0-2.7-.5-3.4-1.7l-2.7-4c-.9-1.4-.8-3.2.3-4.4l2.2-2.4c.8-.9,2-1.3,3.3-1.2l3.1.3c1.1.1,2.1.7,2.7,1.6Z"/>
      <path class="cls-18" d="M185.9,227.4l2.1-2.4c.6-.6.6-1.5.1-2.2l-2.9-4"/>
      <line class="cls-18" x1="190.1" y1="224.3" x2="192.8" y2="224.5"/>
      <path class="cls-13" d="M236.3,246l-.3,4.4c0,.9-.4,1.7-1.1,2.3-.6.7-1.5,1-2.5,1.1l-3.4.2c-.8,0-1.7-.1-2.4-.6l-2.1-1.3c-.7-.5-1.3-1.2-1.6-2-.1-.4-.2-.9-.2-1.3l.3-4.7c.1-1.6,1.3-3,3-3.3l3.2-.6c1.2-.2,2.5,0,3.4.9l2.3,2c.8.7,1.3,1.8,1.2,2.9Z"/>
      <g class="cls-31">
        <path class="cls-11" d="M234.9,252.8c-.6.7-1.5,1-2.5,1.1l-3.4.2c-.8,0-1.7-.1-2.4-.6l-2.1-1.3c-.7-.5-1.3-1.2-1.6-2l6.7-1.7,5.2,4.2Z"/>
      </g>
      <path class="cls-18" d="M236.3,246l-.3,4.4c0,.9-.4,1.7-1.1,2.3-.6.7-1.5,1-2.5,1.1l-3.4.2c-.8,0-1.7-.1-2.4-.6l-2.1-1.3c-.7-.5-1.3-1.2-1.6-2-.1-.4-.2-.9-.2-1.3l.3-4.7c.1-1.6,1.3-3,3-3.3l3.2-.6c1.2-.2,2.5,0,3.4.9l2.3,2c.8.7,1.3,1.8,1.2,2.9Z"/>
      <path class="cls-18" d="M225.7,249.6l3.2-.7c.8-.2,1.4-.9,1.5-1.7v-4.8"/>
      <line class="cls-18" x1="230.9" y1="249.6" x2="232.9" y2="251.3"/>
      <path class="cls-13" d="M166.5,272.6l3.7,5.4c1.6,2.3,1.1,5.3-1,7l-3.8,3.2c-.9.8-2.1,1.2-3.3,1.3l-3.7.3c-2,.1-4-.8-5.1-2.4l-3.9-5.9c-1.4-2-1.2-4.7.5-6.5l3.2-3.5c1.2-1.3,3-2,4.8-1.8l4.6.5c1.6.2,3.1,1,4.1,2.3Z"/>
      <g class="cls-34">
        <path class="cls-11" d="M171.1,281.7c-.2,1.3-.8,2.5-1.9,3.4l-3.8,3.2c-.9.8-2.1,1.2-3.3,1.3l-3.7.2c-1.3,0-2.6-.3-3.6-1l6.4-7.7,10,.5Z"/>
      </g>
      <path class="cls-18" d="M166.5,272.6l3.7,5.4c1.6,2.3,1.1,5.3-1,7l-3.8,3.2c-.9.8-2.1,1.2-3.3,1.3l-3.7.3c-2,.1-4-.8-5.1-2.4l-3.9-5.9c-1.4-2-1.2-4.7.5-6.5l3.2-3.5c1.2-1.3,3-2,4.8-1.8l4.6.5c1.6.2,3.1,1,4.1,2.3Z"/>
      <path class="cls-18" d="M157.4,285.9l3.1-3.5c.8-.9.9-2.3.2-3.3l-4.3-5.8"/>
      <line class="cls-18" x1="163.5" y1="281.4" x2="167.4" y2="281.7"/>
      <path class="cls-13" d="M216.4,234.5l4.3,5.8c1.8,2.4,5.1,3.2,7.8,1.8l4.9-2.5c1.2-.6,2.1-1.5,2.7-2.7l1.7-3.5c.6-1.2.7-2.6.4-3.9-.2-.7-.5-1.4-1-2l-4.6-6.2c-1.6-2.1-4.5-3-7.1-2.1l-4.9,1.7c-1.9.7-3.3,2.1-3.8,4l-1.3,4.6c-.5,1.7-.1,3.5.9,4.9Z"/>
      <g class="cls-38">
        <path class="cls-11" d="M224.2,242.6c1.4.4,3,.2,4.3-.5l4.9-2.5c1.2-.6,2.1-1.5,2.7-2.7l1.7-3.5c.6-1.2.7-2.6.4-3.9l-10.7,3.2-3.3,9.9Z"/>
      </g>
      <path class="cls-18" d="M216.4,234.5l4.3,5.8c1.8,2.4,5.1,3.2,7.8,1.8l4.9-2.5c1.2-.6,2.1-1.5,2.7-2.7l1.7-3.5c.6-1.2.7-2.6.4-3.9-.2-.7-.5-1.4-1-2l-4.6-6.2c-1.6-2.1-4.5-3-7.1-2.1l-4.9,1.7c-1.9.7-3.3,2.1-3.8,4l-1.3,4.6c-.5,1.7-.1,3.5.9,4.9Z"/>
      <path class="cls-18" d="M234,230.8l-4.9,1.6c-1.3.4-2.7,0-3.5-1.1l-4.4-6.5"/>
      <line class="cls-18" x1="226.8" y1="235" x2="225.6" y2="238.9"/>
      <path class="cls-13" d="M213.1,262.9l-6,11c-.4.8-1.1,1.4-1.9,1.7-.6.2-1.2.3-1.9.2l-11-1.2c-1.1-.1-2.1-.7-2.7-1.6l-6.1-8.6c-.3-.4-.5-.9-.6-1.4-.2-.7,0-1.4.2-2.1l4.5-10.6c.5-1.3,1.8-2.2,3.2-2.3l13-1c1.5-.1,3,.7,3.7,2l5.6,10.4c.6,1.1.6,2.3,0,3.3Z"/>
      <g class="cls-39">
        <path class="cls-11" d="M205.1,275.6c-.6.2-1.2.3-1.9.2l-11-1.2c-1.1-.1-2.1-.7-2.7-1.6l-6.1-8.6c-.3-.4-.5-.9-.6-1.4h11.7c1.5,0,3,.8,3.8,2l6.8,10.4Z"/>
      </g>
      <path class="cls-18" d="M213.1,262.9l-6,11c-.4.8-1.1,1.4-1.9,1.7-.6.2-1.2.3-1.9.2l-11-1.2c-1.1-.1-2.1-.7-2.7-1.6l-6.1-8.6c-.3-.4-.5-.9-.6-1.4-.2-.7,0-1.4.2-2.1l4.5-10.6c.5-1.3,1.8-2.2,3.2-2.3l13-1c1.5-.1,3,.7,3.7,2l5.6,10.4c.6,1.1.6,2.3,0,3.3Z"/>
      <path class="cls-18" d="M185.3,261.5h9.1c1.7,0,3.3-.9,4.1-2.4l4.8-8.9"/>
      <line class="cls-18" x1="198.2" y1="264.7" x2="203.3" y2="272.8"/>
    </g>
    <g id="freepik--Device--inject-4">
      <path class="cls-21" d="M25.6,329.9h102.9c6.7,0,12,5.2,12,11.6v137.9c0,6.4-5.4,11.6-12,11.6H25.6c-6.7,0-12-5.2-12-11.6v-137.9c0-6.4,5.4-11.6,12-11.6Z"/>
      <path class="cls-14" d="M134.5,342.9v135c0,4-3.4,7.3-7.6,7.3H27.1c-4.2,0-7.6-3.3-7.6-7.3v-135c0-4,3.4-7.3,7.6-7.3h99.8c4.2,0,7.6,3.3,7.6,7.3Z"/>
      <path class="cls-18" d="M134.5,401.9v73.4c0,5.4-4.6,9.8-10.2,9.8h-56.6"/>
      <line class="cls-18" x1="106.9" y1="335.6" x2="109.9" y2="335.6"/>
      <path class="cls-18" d="M19.5,424.7v-79.2c0-5.4,4.6-9.8,10.2-9.8h65.5"/>
      <line class="cls-18" x1="19.5" y1="449.8" x2="19.5" y2="431"/>
      <line class="cls-18" x1="19.5" y1="460.4" x2="19.5" y2="457.9"/>
      <line class="cls-18" x1="64.2" y1="485.2" x2="58" y2="485.2"/>
      <line class="cls-18" x1="134.5" y1="379.9" x2="134.5" y2="393.7"/>
      <line class="cls-18" x1="134.5" y1="360.4" x2="134.5" y2="364"/>
      <path class="cls-6" d="M29.8,346.6h94.3c3.6,0,6.6,2.8,6.6,6.3v70.6c0,3.5-2.9,6.3-6.6,6.3H29.8c-3.6,0-6.6-2.8-6.6-6.3v-70.6c0-3.5,2.9-6.3,6.6-6.3Z"/>
      <path class="cls-23" d="M31.5,353.8h91c2.3,0,4.1,1.8,4.1,4v60.8c0,2.2-1.9,4-4.1,4H31.5c-2.3,0-4.1-1.8-4.1-4v-60.8c0-2.2,1.9-4,4.1-4Z"/>
      <path class="cls-12" d="M46.5,455.1c1.6-6.6,8.5-10.7,15.4-9.2,6.9,1.6,11.2,8.2,9.6,14.8s-8.5,10.7-15.4,9.2-11.2-8.2-9.6-14.8Z"/>
      <g class="cls-37">
        <path class="cls-1" d="M59,445.6c-7.1,0-12.8,5.5-12.8,12.3,0,6.8,5.7,12.3,12.8,12.3,7.1,0,12.8-5.5,12.8-12.3h0c0-6.8-5.7-12.3-12.8-12.3ZM57.6,464.7c-4.8,0-8.8-3.8-8.8-8.4s3.9-8.4,8.8-8.4,8.8,3.8,8.8,8.4-3.9,8.4-8.8,8.4h0Z"/>
      </g>
      <path class="cls-20" d="M46.5,455.1c1.6-6.6,8.5-10.7,15.4-9.2,6.9,1.6,11.2,8.2,9.6,14.8s-8.5,10.7-15.4,9.2-11.2-8.2-9.6-14.8Z"/>
      <polygon class="cls-6" points="52.8 457.9 62.8 462.7 62.8 453 52.8 457.9"/>
      <path class="cls-12" d="M85.9,449.2c5-4.8,13.1-4.8,18.1,0,5,4.8,5,12.6,0,17.4s-13.1,4.8-18.1,0-5-12.6,0-17.4Z"/>
      <g class="cls-36">
        <path class="cls-1" d="M94.9,445.6c-7.1,0-12.8,5.5-12.8,12.3,0,6.8,5.7,12.3,12.8,12.3,7.1,0,12.8-5.5,12.8-12.3h0c0-6.8-5.7-12.3-12.8-12.3ZM93.6,464.7c-4.8,0-8.7-3.8-8.7-8.4s4-8.4,8.8-8.4c4.8,0,8.7,3.8,8.7,8.4,0,4.6-3.9,8.4-8.7,8.4,0,0,0,0,0,0h0Z"/>
      </g>
      <path class="cls-19" d="M85.9,449.2c5-4.8,13.1-4.8,18.1,0,5,4.8,5,12.6,0,17.4s-13.1,4.8-18.1,0-5-12.6,0-17.4Z"/>
      <polygon class="cls-6" points="101.2 457.9 91.1 453 91.1 462.7 101.2 457.9"/>
      <polygon class="cls-6" points="38.8 386.7 38.8 373 37 371.8 35.3 373 35.3 386.7 37 387.9 38.8 386.7"/>
      <polygon class="cls-6" points="55.2 386.7 57 387.9 58.7 386.7 58.7 373 57 371.8 55.2 373 55.2 386.7"/>
      <polygon class="cls-6" points="57 389.7 55.3 390.8 55.3 404.6 57 405.8 58.8 404.6 58.8 390.8 57 389.7"/>
      <polygon class="cls-6" points="54.2 372.3 55.4 370.6 54.2 368.9 39.9 368.9 38.7 370.6 39.9 372.3 54.2 372.3"/>
      <polygon class="cls-6" points="39.9 387.1 38.7 388.8 39.9 390.5 54.2 390.5 55.4 388.8 54.2 387.1 39.9 387.1"/>
      <polygon class="cls-6" points="39.9 405.3 38.7 407 39.9 408.7 54.2 408.7 55.4 407 54.2 405.3 39.9 405.3"/>
      <polygon class="cls-6" points="71.1 386.7 71.1 373 69.4 371.8 67.6 373 67.6 386.7 69.4 387.9 71.1 386.7"/>
      <polygon class="cls-6" points="89.4 389.7 87.6 390.8 87.6 404.6 89.4 405.8 91.1 404.6 91.1 390.8 89.4 389.7"/>
      <polygon class="cls-6" points="86.6 372.3 87.8 370.6 86.6 368.9 72.2 368.9 71 370.6 72.2 372.3 86.6 372.3"/>
      <polygon class="cls-6" points="72.2 387.1 71 388.8 72.2 390.5 86.6 390.5 87.8 388.8 86.6 387.1 72.2 387.1"/>
      <polygon class="cls-6" points="72.2 405.3 71 407 72.2 408.7 86.6 408.7 87.8 407 86.6 405.3 72.2 405.3"/>
      <polygon class="cls-6" points="98.7 386.7 98.7 373 96.9 371.8 95.2 373 95.2 386.7 96.9 387.9 98.7 386.7"/>
      <polygon class="cls-6" points="98.7 390.8 97 389.7 95.2 390.8 95.2 404.6 97 405.8 98.7 404.6 98.7 390.8"/>
      <polygon class="cls-6" points="115.1 386.7 116.9 387.9 118.6 386.7 118.6 373 116.9 371.8 115.1 373 115.1 386.7"/>
      <polygon class="cls-6" points="116.9 389.7 115.2 390.8 115.2 404.6 116.9 405.8 118.7 404.6 118.7 390.8 116.9 389.7"/>
      <polygon class="cls-6" points="114.1 372.3 115.3 370.6 114.1 368.9 99.7 368.9 98.5 370.6 99.7 372.3 114.1 372.3"/>
      <polygon class="cls-6" points="99.7 405.3 98.5 407 99.7 408.7 114.1 408.7 115.3 407 114.1 405.3 99.7 405.3"/>
      <rect class="cls-6" x="62.1" y="407" width="2.4" height="2.3"/>
      <path class="cls-14" d="M93,348.7l-48.8,77.1h-11.2c-4,0-7.2-3.1-7.2-6.9h0v-62.7c0-4.1,3.5-7.5,7.8-7.5h59.4Z"/>
      <path class="cls-13" d="M87.1,304.4v28.1h-20.1v-28.1c0-1.4,1.2-2.6,2.7-2.6h14.9c1.4,0,2.6,1.2,2.6,2.6Z"/>
      <g class="cls-35">
        <path class="cls-11" d="M87.1,304.4v16.9h-20.1v-16.9c0-1.4,1.2-2.6,2.7-2.6h14.9c1.4,0,2.6,1.2,2.6,2.6Z"/>
      </g>
      <path class="cls-18" d="M87.1,304.4v28.1h-20.1v-28.1c0-1.4,1.2-2.6,2.7-2.6h14.9c1.4,0,2.6,1.2,2.6,2.6Z"/>
      <line class="cls-18" x1="58.2" y1="332.5" x2="95.8" y2="332.5"/>
    </g>
    <g id="freepik--Blood--inject-4">
      <path class="cls-16" d="M77,294.3s10.7,18.9,0,18.9,0-18.9,0-18.9Z"/>
    </g>
    <g id="freepik--Hand--inject-4">
      <path class="cls-13" d="M84,285.4s-1.6,7.7-12.5,2c-10.9-5.6-16.4-11.1-16.4-11.1-6.4-3.8-12.5-8.1-18.1-12.9l-7.5-3s1,2.7,2,5.7c.9,2.7,1.8,5.5,2.1,6.6.6,2.3-4.6,7.3-6.4,8.5,0,0,2.8,4.1,0,7.7s-26.2.6-26.2.6c0,0-3.6.3-13-2.9,0,0-21.2,0-35.3-3.6-8.9-2.3-17.5-5.5-25.7-9.6,0,0-9.1,2.2-16.1-1.5-5.5-.1-11,0-16.5.5-1.6.2-4.1.4-7.3.9-2.7.3-5.7.7-9.2,1.2l-8.2-52.8c12.7.2,24.7.3,27.1.2,10.8-.8,18.8.1,25.1,0,18.9-.4,65.8-6.4,75.2-5.9,9.4.6,17.5,10.7,17.5,10.7l29.3,16.7,21.5,19.8s12.3,18.1,18.5,22.3Z"/>
      <path class="cls-10" d="M33.7,272.7c.6,2.3-4.6,7.3-6.4,8.5,0,0,2.8,4.1,0,7.7-2.8,3.5-26.2.6-26.2.6,0,0-3.6.3-13-2.9,0,0-21.2,0-35.3-3.6-8.9-2.3-17.5-5.5-25.7-9.6,0,0-9.1,2.2-16.1-1.5-5.5-.1-11,0-16.5.5-1.6.2-4.1.4-7.3.9,4.2-2.4,9-4,13.9-4.5,0,0-9.7-13-6.6-22.6,0,0,3.6,14.3,16.1,19.3,12.6,5,41.9-13.2,41.9-13.2,0,0,8.2,3.7,11.5,1,3.3-2.7.6,5,3.2,8l.6-1.9c-.1.5-1,5.1,1.5,6.1l1-2s3.8,11.2,6.6,14.5,16.3,5,17.6,2.8-5.2-30.7-5.4-31.5c.3.3,5,6.1,5.5,9.1s4.6,21.9,5.7,23.9,8.8,3.1,11.6,0c0,0-4.8-27.7-4.9-30.1s3.4-1.1,3.5,3.2,6,10.8,9,15.9,11.8,4.7,14.1,1.5Z"/>
      <path class="cls-8" d="M84,285.4s-1.6,7.7-12.5,2c-10.9-5.6-16.4-11.1-16.4-11.1-6.4-3.8-12.5-8.1-18.1-12.9l-7.5-3s1,2.7,2,5.7c-.3-.3-.7-.7-1.1-1,0,0-4.1-17.1-11.8-23.2,0,0-2.6-2.9-3.3-5.4s6.5,3.7,7.8,6.1,11.9,11.4,14.6,12.6c2.7,1.2,16.1,11.6,19.2,13.2,3.2,1.6,16,26.2,27,16.9Z"/>
      <path class="cls-18" d="M-130.2,221.6c12.7.2,24.7.3,27.1.2,10.8-.8,18.8.1,25.1,0,18.9-.4,65.8-6.4,75.2-5.9,9.4.6,17.5,10.7,17.5,10.7l29.3,16.7,21.5,19.8s12.4,18.1,18.5,22.3c0,0-1.6,7.7-12.5,2-10.9-5.6-16.4-11.1-16.4-11.1-6.4-3.8-12.5-8.1-18.1-12.9l-7.5-3s3.6,10,4.1,12.2-4.6,7.3-6.4,8.5c0,0,2.8,4.1,0,7.7s-26.1.6-26.1.6c0,0-3.6.3-13-2.9,0,0-21.2,0-35.3-3.6-8.9-2.3-17.5-5.5-25.7-9.6,0,0-9.2,2.2-16.1-1.5-5.5-.2-11,0-16.5.5-2.8.3-8.8.9-16.5,2"/>
      <path class="cls-18" d="M14.7,234.1s0,2.1,2.5,5.8,9.4,11.9,12.4,20.5"/>
      <path class="cls-18" d="M7.2,246.1c-.2,2.4-.2,4.8,0,7.1.4,2.9,4.5,24.1,4.7,27s-.3,8.8-10.8,9.3"/>
      <path class="cls-18" d="M-11.7,244.3c.2,2.5.7,5,1.4,7.5,1.2,4.2,5.3,24.1,4.8,29s-6.4,5.9-6.4,5.9"/>
      <path class="cls-18" d="M-63.3,270.3c8,0,15.8-2.7,22.2-7.4"/>
      <path class="cls-18" d="M-44.3,257.5s.2,5.3,11.4,11.3"/>
      <path class="cls-18" d="M-27.8,261.4s-6.1,5.8-5.1,9.8c1,4,5.1,7.7,5.1,7.7"/>
      <path class="cls-18" d="M-38.1,265.5c-.9,1.5-1.8,3.2-2.4,4.8-.8,2.2-2.7,9.2,0,11.1s9.6,3.6,21.3,5.1"/>
      <path class="cls-18" d="M-32.9,271.2s-3.3,2.8-4.1,5.6"/>
      <path class="cls-18" d="M-30.4,255.3c-1.6,3.2-2.8,6.6-3.5,10.2"/>
      <path class="cls-18" d="M10.5,271.9s4.7,4.7,9.6,6.1"/>
      <path class="cls-18" d="M27.2,281.2s-5.3,2.3-15.3,0"/>
      <path class="cls-18" d="M-44.3,269.2s3.6-2.6,4.9-4.7"/>
      <path class="cls-18" d="M-9.7,219.8c7.9,2.1,8.6,3.8,10,9.6"/>
      <path class="cls-18" d="M-30.4,227.9c7.3,1.7,7.1,4.3,8.3,7.3"/>
      <path class="cls-18" d="M37,263.5c.4-1.1,1-2.1,1.6-3.1"/>
      <path class="cls-18" d="M55.1,276.3s2.7-.3,3.9-1.4"/>
      <path class="cls-18" d="M-105.5,248.8s2.2,14,13.1,19.1"/>
    </g>
  </g>
  <g id="freepik--Character--inject-19">
    <path class="cls-7" d="M371.4,260.8l-45.6-4.9-19.3-45.4-15,4s11.1,47.9,23.5,55.4c12.4,7.4,54.8,8.8,54.8,8.8l1.6-17.9Z"/>
    <path class="cls-6" d="M365.4,256.1c7.4-8.6,20.2-9.4,28.5-1.7,8.3,7.7,9.1,20.9,1.7,29.5s-20.2,9.4-28.5,1.7c-8.3-7.7-9.1-20.9-1.7-29.5Z"/>
    <path class="cls-6" d="M380.5,290.9c-11.2,0-20.3-9.4-20.3-21,0-11.6,9.1-21,20.3-21,11.2,0,20.3,9.4,20.3,21,0,5.6-2.1,10.9-5.9,14.8-3.8,3.9-8.9,6.2-14.3,6.1ZM380.5,249.1c-11.2,0-20.2,9.3-20.2,20.9,0,11.5,9,20.9,20.2,20.9,11.2,0,20.2-9.3,20.2-20.9,0-5.5-2.1-10.9-5.9-14.8-3.8-3.9-8.9-6.1-14.3-6.1h0Z"/>
    <path class="cls-6" d="M314.6,243.1c8.1-2,16.3,3.2,18.3,11.6s-3.1,16.9-11.2,18.9c-8.1,2-16.3-3.2-18.3-11.6-2-8.4,3.1-16.9,11.2-18.9Z"/>
    <path class="cls-6" d="M289.1,196.1c4.8-5,12.7-5,17.5,0,4.8,5,4.8,13.1,0,18.1s-12.7,5-17.5,0c-4.8-5-4.8-13.1,0-18.1Z"/>
    <path class="cls-6" d="M317.2,198.3l-10.2,8.9h0l-3.7-4.5h0l10.2-8.9c1.1-1,2.8-.8,3.7.3l.3.3c.9,1.2.8,2.9-.3,3.9,0,0,0,0,0,0Z"/>
    <path class="cls-6" d="M304.2,181.9v13.4c0,.2-.2.4-.4.4h-4.9c-.2,0-.4-.2-.4-.4h0v-13.4c0-1.5,1.2-2.7,2.7-2.7h.4c1.5,0,2.7,1.2,2.7,2.7h0Z"/>
    <path class="cls-6" d="M295,182l2.8,13.1c0,.2,0,.4-.3.5h0l-4.8,1.1c-.2,0-.4,0-.5-.3h0s-2.8-13.1-2.8-13.1c-.3-1.5.6-2.9,2-3.3h.4c1.4-.4,2.8.5,3.2,2h0Z"/>
    <path class="cls-6" d="M285.1,185.3l6.5,11.6c.1.2,0,.4-.1.5h0l-4.3,2.6c-.2.1-.4,0-.5-.1h0s-6.5-11.6-6.5-11.6c-.7-1.3-.3-3,1-3.7l.3-.2c1.3-.8,2.9-.3,3.6,1h0Z"/>
    <polygon class="cls-7" points="583.1 372.3 569.5 378.3 530.1 282.5 543.8 276.5 583.1 372.3"/>
    <path class="cls-6" d="M514.9,258.6c7.2-8.8,20-9.9,28.5-2.4,8.5,7.5,9.6,20.7,2.4,29.5s-20,9.9-28.5,2.4c-8.5-7.5-9.6-20.7-2.4-29.5Z"/>
    <path class="cls-6" d="M530.3,293.1c-11.2,0-20.3-9.4-20.3-21,0-2.1.3-4.2.9-6.2,3.3-11.1,14.6-17.2,25.3-13.8,10.7,3.4,16.7,15.2,13.3,26.2-2.6,8.8-10.4,14.7-19.3,14.8ZM530.3,251.3c-11.2,0-20.2,9.4-20.2,20.9,0,11.5,9.1,20.9,20.2,20.9,8.9,0,16.7-6,19.3-14.7h0c3.3-11-2.7-22.7-13.3-26.1-2-.6-4-.9-6-.9h0Z"/>
    <path class="cls-6" d="M542,326.3c2.2-8.3,10.6-13.2,18.7-10.9,8.1,2.3,12.8,11,10.6,19.3-2.2,8.3-10.6,13.2-18.7,10.9-8.1-2.3-12.8-11-10.6-19.3Z"/>
    <ellipse class="cls-6" cx="579.5" cy="379.3" rx="12.4" ry="12.8"/>
    <path class="cls-6" d="M563.3,392.2l6.9-11.8h0l4.9,3.1h0l-6.9,11.8c-.8,1.3-2.4,1.7-3.6.9h0s-.3-.2-.3-.2c-1.3-.8-1.7-2.5-.9-3.8,0,0,0,0,0,0Z"/>
    <path class="cls-6" d="M580.5,403.5l-4.1-12.7c0-.2,0-.4.2-.5h0l4.7-1.6c.2,0,.4,0,.5.2h0l4.1,12.7c.4,1.4-.3,3-1.7,3.5h0s-.4.1-.4.1c-1.4.5-2.8-.3-3.3-1.7Z"/>
    <path class="cls-6" d="M589.3,400.4l-6.7-11.5c-.1-.2,0-.4.1-.5h0l4.2-2.6c.2-.1.4,0,.5.1h0l6.7,11.5c.8,1.3.4,3-.9,3.8h0s-.3.2-.3.2c-1.3.8-2.9.4-3.6-.9h0Z"/>
    <path class="cls-6" d="M597.6,394.1l-9.7-8.9c-.2-.1-.2-.4,0-.6h0l3.3-3.8c.1-.2.4-.2.5,0h0l9.7,8.9c1.1,1,1.2,2.7.2,3.9h0s-.3.3-.3.3c-1,1.1-2.6,1.2-3.7.2Z"/>
    <path class="cls-7" d="M374.5,248.2s1.5,146.9,81.1,149.7c79.7,2.9,83-148.7,83-149.7,0,0-9.4-21.9-82.1-21-72.6.9-82.1,21-82.1,21Z"/>
    <path class="cls-6" d="M486.5,222.4h-67.3c-4.4,0-8-3.7-8-8.2v-1.2c0-4.5,3.6-8.2,8-8.2h67.3c4.4,0,8,3.7,8,8.2v1.2c0,4.5-3.6,8.2-8,8.2Z"/>
    <rect class="cls-6" x="450" y="61.3" width="5.8" height="30.4"/>
    <path class="cls-7" d="M533.8,147.9c9.2-2.3,18.4,3.6,20.6,13.1s-3.5,19-12.7,21.3c-9.2,2.3-18.4-3.6-20.6-13.1-2.2-9.5,3.5-19,12.7-21.3Z"/>
    <path class="cls-7" d="M361.6,146.7c9.2-2.2,18.3,3.8,20.4,13.3,2.1,9.5-3.7,19-12.9,21.1-9.2,2.2-18.3-3.8-20.4-13.3-2.1-9.5,3.7-19,12.9-21.1Z"/>
    <path class="cls-7" d="M449.5,85.2s-69.4-.9-80.4,61.4c-11,62.3,47.7,63.4,64.6,64.6,7.7.5,24,.6,38.5.3,32-.6,54.6-7,62.3-37.7.9-3.6,1.5-7.3,1.7-11,2-33.7-20-79.3-86.8-77.6Z"/>
    <path class="cls-6" d="M499.8,180l-100.9,1.6c-10.6.2-19.3-8.5-19.5-19.5,0,0,0,0,0,0h0c-.2-10.9,8.2-20,18.8-20.2,0,0,0,0,0,0l100.9-1.6c10.6-.2,19.3,8.5,19.5,19.4,0,0,0,0,0,0h0c.2,10.9-8.2,20-18.8,20.2,0,0,0,0,0,0Z"/>
    <path class="cls-13" d="M419.9,159.9c-.7,3.4-3.9,5.7-7.2,5-3.3-.7-5.5-4-4.8-7.5.7-3.4,3.9-5.7,7.2-5,3.3.7,5.5,4,4.8,7.5,0,0,0,0,0,0Z"/>
    <path class="cls-13" d="M490.4,158.8c-.6,3.4-3.9,5.7-7.2,5-3.3-.7-5.5-4-4.9-7.5s3.9-5.7,7.2-5c0,0,0,0,0,0,3.3.7,5.5,4,4.8,7.5Z"/>
    <path class="cls-6" d="M480.2,306.5c-1.1,15.7-14.3,27.4-29.4,26.3-15.1-1.1-26.5-14.8-25.4-30.4,1.1-15.6,14.3-27.4,29.4-26.3,15.1,1.1,26.5,14.8,25.4,30.4Z"/>
    <path class="cls-13" d="M472.8,306c-.8,11.4-10.4,20-21.4,19.1-11-.8-19.3-10.8-18.5-22.2.8-11.4,10.4-20,21.4-19.1h0c11,.8,19.3,10.7,18.5,22.1h0Z"/>
    <path class="cls-7" d="M463.2,309.8c-.2-1.1-.2-2.3-.2-3.4,0-2.1,0-5.2,0-9l.2.4-10.3-6.2h.6l-10.4,6c-.3.5.4-.7.3-.5h0v3.2c0,1.1,0,2.1,0,3.1,0,2.1,0,4.1-.1,6l-.3-.5,10.2,6.4h-.5c3.2-1.8,5.8-3.2,7.6-4.1,1-.6,2-1.1,3-1.5-.8.7-1.7,1.3-2.6,1.8-1.8,1.1-4.3,2.7-7.6,4.6h-.2c0,.1-.2,0-.2,0l-10.3-6.2-.3-.2v-.4c0-1.9,0-3.9,0-6v-6.3h0c0,.1.6-1,.3-.5l10.4-6,.3-.2.3.2,10.2,6.4h.2v.4c-.1,3.9-.2,7-.3,9.1,0,1.1,0,2.1-.2,3.2Z"/>
    <path class="cls-7" d="M446.1,53.7c3.7-3.9,9.8-3.9,13.5,0,3.7,3.9,3.7,10.1,0,14s-9.8,3.9-13.5,0-3.7-10.1,0-14Z"/>
    <path class="cls-13" d="M437.6,157c.5,0,.2,2.2,1.6,5.2.8,1.7,1.9,3.2,3.2,4.5,1.6,1.5,3.6,2.4,5.8,2.7,2.2.1,4.3-.4,6.1-1.5,1.6-.9,2.9-2.2,4-3.8,1.8-2.7,2-4.9,2.5-4.8.2,0,.4.6.4,1.6,0,1.5-.4,3-1.1,4.3-1,2-2.5,3.7-4.3,5-4.7,3.4-11,2.8-15-1.4-1.6-1.6-2.7-3.5-3.4-5.7-.5-1.4-.6-3-.3-4.5.2-1,.5-1.6.6-1.5Z"/>
    <path class="cls-6" d="M530,186c-.1,0,1.1-2,2.3-5.5,1.5-4.6,2.4-9.4,2.8-14.3.4-4.8.5-9.7.3-14.6,0-1.9-.2-3.4-.2-4.5,0-.5,0-1.1,0-1.6.1.5.2,1.1.3,1.6.2,1,.3,2.6.4,4.5.3,4.9.3,9.8-.2,14.7-.4,4.9-1.4,9.7-3,14.4-.5,1.4-1.1,2.7-1.8,4-.3.5-.5.9-.9,1.3Z"/>
    <path class="cls-6" d="M369.2,144.5c0,.5-.2,1.1-.3,1.6-.1.5-.3,1.1-.4,1.9s-.4,1.5-.5,2.5c-.4,2.2-.6,4.3-.8,6.5-.1,2.7-.1,5.4.1,8,.2,2.7.7,5.3,1.3,7.9.5,2.1,1.1,4.2,1.9,6.3.3.9.6,1.7.9,2.4s.5,1.3.7,1.7c.2.5.4,1,.6,1.5-.3-.4-.6-.9-.8-1.4-.3-.6-.6-1.1-.8-1.7-.3-.7-.7-1.4-1-2.3-.8-2.1-1.5-4.2-2-6.3-.6-2.6-1.1-5.3-1.3-8-.2-2.7-.2-5.4,0-8.1.2-2.2.4-4.4.9-6.6.2-.9.4-1.7.6-2.5s.4-1.3.5-1.8c.1-.5.3-1,.6-1.5Z"/>
    <path class="cls-6" d="M374.1,248.1h.4c0,.1,1.2.5,1.2.5l4.6,1.7,3.3,1.2c1.2.4,2.6.8,4,1.3,2.9.9,6.1,2,9.8,2.9l5.8,1.5c2,.5,4.1.9,6.3,1.4,4.3,1,9.1,1.7,14.1,2.6,10.8,1.5,21.7,2.3,32.6,2.4,10.9,0,21.8-.9,32.6-2.4,5-.8,9.7-1.5,14.1-2.6,2.2-.5,4.3-.9,6.3-1.4l5.8-1.5c3.7-.9,6.9-2,9.8-2.9,1.4-.5,2.8-.9,4-1.3l3.3-1.2,4.6-1.7,1.2-.4c.1,0,.3,0,.4-.1l-.4.2-1.2.5-4.6,1.8-3.4,1.3c-1.2.4-2.6.9-4,1.3-2.9.9-6.1,2.1-9.8,3l-5.8,1.6c-2,.5-4.1.9-6.3,1.4-4.3,1.1-9.1,1.8-14.1,2.6-10.8,1.6-21.7,2.4-32.6,2.5-10.9,0-21.8-.9-32.6-2.5-5-.8-9.7-1.6-14.1-2.6-2.2-.5-4.3-.9-6.3-1.4l-5.8-1.6c-3.7-.9-6.9-2.1-9.8-3-1.4-.5-2.8-.9-4-1.3l-3.3-1.3-4.6-1.8-1.2-.5c-.1,0-.2-.1-.4-.2Z"/>
    <g class="cls-40">
      <path class="cls-9" d="M374.5,248.2s9.4-20.2,82.1-21c72.6-.9,82.1,21,82.1,21,0,0-73.3,37.4-164.1,0Z"/>
    </g>
    <path class="cls-13" d="M440.7,89.8c0,0-.2,0-.2,0h-.7c-.6.1-1.6.2-2.8.3-3.5.3-6.9.9-10.2,1.8-17.5,4.1-32.8,14.7-43.3,29.8-5,7.2-8.9,15.3-11.3,23.9-.4,1.2-.6,2.2-.8,2.8l-.2.7c0,0,0,.2,0,.2,0,0,0-.2,0-.3,0-.2,0-.4.2-.8.2-.6.3-1.6.7-2.9.9-3.5,2.1-6.9,3.5-10.2,4.6-11,11.7-20.6,20.6-28.3,8.9-7.6,19.5-12.9,30.7-15.5,3.4-.8,6.8-1.3,10.3-1.6,1.2-.1,2.2-.1,2.8-.1h.7c.2,0,.2,0,.2,0Z"/>
    <path class="cls-13" d="M372.7,176c-.4-.7-.8-1.4-1-2.2-1.3-3.7-1.9-7.7-1.8-11.7,0-.8,0-1.6.3-2.4.2,0,0,3.7.6,8.3.7,4.5,2,8,1.9,8.1Z"/>
    <path class="cls-13" d="M354.5,170.3s-.2-.2-.6-.6c-.5-.6-.9-1.3-1.2-2-2.4-4.7-1.6-10.5,1.9-14.4.5-.6,1.1-1.1,1.7-1.6.2-.2.5-.3.7-.4,0,0-.9.8-2.1,2.2-3.2,3.9-3.9,9.4-1.8,14,.8,1.8,1.5,2.7,1.5,2.8Z"/>
    <path class="cls-13" d="M453.5,53.8c-.8,0-1.7-.1-2.5,0-3.7.3-6.3,3.7-6,7.4,0,.6.2,1.2.4,1.7.3.8.7,1.6,1.1,2.4,0,0-.2-.1-.5-.5-.4-.5-.7-1.1-1-1.7-1.4-3.6.2-7.7,3.7-9.2.7-.3,1.5-.5,2.3-.5.6,0,1.3,0,1.9.2.5,0,.7.2.7.3Z"/>
    <path class="cls-13" d="M547.8,156.7c-.1.1-1.8-1.5-4.3-2.8-2.5-1.3-4.8-1.6-4.8-1.8,1.8,0,3.5.4,5.1,1.3,1.6.7,3,1.8,4.1,3.3Z"/>
    <path class="cls-13" d="M399.4,352.7c0,0,0-.1-.1-.2l-.4-.7c-.3-.6-.8-1.5-1.3-2.6-.3-.6-.6-1.2-.9-1.9l-1-2.2c-.7-1.6-1.6-3.5-2.4-5.6-.4-1-.8-2.1-1.3-3.3s-.8-2.4-1.3-3.6c-.9-2.5-1.7-5.2-2.6-8-1.7-5.7-3.4-12-4.8-18.8-1.5-6.7-2.5-13.2-3.4-19.1-.9-5.9-1.4-11.2-1.8-15.7-.2-2.2-.3-4.3-.4-6.1s-.2-3.4-.2-4.6c0-1.2,0-2.2,0-2.9v-.8c0,0,0-.2,0-.3,0,0,0,.2,0,.3v.8c0,.7.2,1.7.3,2.9s.2,2.8.3,4.6.3,3.8.5,6.1c.4,4.5,1.1,9.8,1.9,15.7.8,5.9,2,12.3,3.4,19,1.4,6.7,3.1,13,4.8,18.7.9,2.8,1.7,5.5,2.6,8,.4,1.3.8,2.5,1.3,3.6l1.3,3.3c.8,2.1,1.6,4,2.3,5.6l1,2.2c.3.7.6,1.3.9,1.9l1.2,2.6.3.7c0,0,.1.2.1.3Z"/>
    <path class="cls-13" d="M357,261.4c-2.6.1-5.3,0-7.9-.3-2.6,0-5.3-.4-7.9-.9,2.6-.1,5.3,0,7.9.3,2.6,0,5.3.4,7.9.9Z"/>
    <path class="cls-13" d="M316.3,237.5c-1.5-2.3-2.9-4.7-4.1-7.2-1.4-2.4-2.6-4.9-3.6-7.5,1.5,2.3,2.9,4.7,4.1,7.3,1.4,2.4,2.6,4.9,3.6,7.5Z"/>
    <path class="cls-13" d="M437.8,388.1c-.4,0-.9,0-1.3-.2-1.1-.2-2.3-.5-3.4-.9-1.7-.5-3.3-1.2-4.8-1.9-1.9-1-3.7-2.1-5.5-3.3-1.7-1.3-3.3-2.7-4.8-4.2-1.2-1.3-2.3-2.6-3.4-4.1-.7-1-1.3-2-1.9-3-.2-.4-.4-.8-.6-1.2,0,0,1,1.6,2.8,3.9,1.1,1.4,2.2,2.7,3.4,3.9,3,3,6.4,5.5,10.2,7.4,1.5.8,3.1,1.4,4.7,2,2.8,1,4.6,1.3,4.5,1.4Z"/>
    <path class="cls-13" d="M454.4,336.3c-.3,0-.5,0-.8,0-.7,0-1.4,0-2.2,0-2.7,0-5.4-.5-7.9-1.3-1.8-.6-3.5-1.3-5.2-2.2-1.9-1-3.7-2.2-5.4-3.6-8-6.3-12.2-16.4-11.2-26.8.2-2.2.6-4.4,1.1-6.5.5-1.8,1.2-3.6,2-5.4,1.2-2.5,2.7-4.8,4.5-6.9.5-.6,1-1.1,1.5-1.6.2-.2.4-.4.6-.5,0,0-.7.8-1.9,2.2-1.7,2.1-3.2,4.4-4.3,6.9-1.7,3.7-2.7,7.7-3,11.7-.9,10.1,3.3,20.1,11,26.3,1.6,1.4,3.4,2.6,5.3,3.6,1.6.9,3.3,1.6,5.1,2.2,2.5.9,5.2,1.4,7.8,1.5,2,0,3,0,3,0Z"/>
    <path class="cls-13" d="M323.3,248c0,0-.8-.3-2.2-.6-3.6-.8-7.4.1-10.2,2.5-1.1.9-1.6,1.7-1.7,1.6.3-.7.8-1.4,1.3-1.9,2.9-2.7,6.9-3.7,10.6-2.6.8.2,1.5.5,2.1,1Z"/>
    <path class="cls-13" d="M483.2,136.7c0,.2-13.3.3-29.7.3s-29.7-.1-29.7-.3,13.3-.3,29.7-.3,29.7.1,29.7.3Z"/>
    <path class="cls-13" d="M432.5,206.7c-.2,0-.3,0-.5,0h-1.5c-.6.2-1.4.2-2.3.3s-1.9,0-3,0c-2.3,0-4.9-.2-7.9-.5-3.2-.4-6.4-1-9.6-1.7-3.2-.8-6.3-1.7-9.3-2.9-2.5-.9-4.9-2-7.3-3.2-1.1-.5-1.9-1-2.7-1.4s-1.5-.8-2-1.1l-1.2-.8c-.1,0-.3-.2-.4-.3,0,0,.2,0,.5.2l1.3.7c.6.3,1.2.7,2,1.1s1.7.9,2.7,1.4c2,1,4.5,2,7.3,3.1,6.1,2.3,12.4,3.8,18.8,4.6,2.9.4,5.6.6,7.9.6,1.1,0,2.2,0,3,0h3.7c.2,0,.3,0,.5,0Z"/>
    <path class="cls-13" d="M518.9,257.2c0,0-.2,0-.3.1l-.8.3-3,1.1c-1.3.5-2.9,1.1-4.8,1.6s-4,1.3-6.4,1.9l-3.8,1c-1.3.3-2.7.6-4.1,1-2.8.7-5.9,1.3-9.1,1.9-14,2.5-28.3,3.4-42.6,2.7-3.2-.2-6.4-.4-9.3-.7-1.5-.2-2.9-.3-4.2-.5l-3.9-.5c-2.5-.3-4.7-.8-6.6-1.1s-3.6-.7-5-1l-3.1-.7-.8-.2c0,0-.2,0-.3,0,0,0,.2,0,.3,0h.8c0,.1,3.1.8,3.1.8,1.4.3,3,.6,5,.9s4.1.7,6.6,1l3.9.5c1.3.2,2.7.3,4.2.4,2.9.3,6,.5,9.3.7,6.5.3,13.7.3,21.3-.2,7.6-.5,14.7-1.4,21.1-2.5,3.2-.6,6.3-1.1,9.1-1.8,1.4-.3,2.8-.6,4.1-1l3.8-1c2.4-.6,4.5-1.3,6.4-1.8s3.5-1.1,4.8-1.5l3-1,.8-.2h.3Z"/>
  </g>
  <g id="freepik--background-complete--inject-19" class="cls-41">
    <path class="cls-3" d="M56.3,233.5l-7.9-5.3s-4.6,6.5-11.6,2c-2.8-1.7-4.2-5-3.4-8.2.6-2.6,2.4-4.8,5-5.9,2.9-1.3,7.2-1.2,11.9,3.3l12.3-17.5-7.8-5.3-7.2,10.2s-12.9-4.6-21.3,7.2c-8,11.4.6,21,5,24,3.4,2.3,15.5,9.4,25-4.4Z"/>
    <polygon class="cls-3" points="69.2 194.1 61.2 188.8 66.3 181.5 74.3 186.9 69.2 194.1"/>
    <path class="cls-3" d="M79.9,239.5l4.2-1.1c-.5-2,.7-3.9,2.7-4.5,0,0,0,0,0,0,1.4-.4,3,0,3.9,1.3.7,1,1,2.2.6,3.4-.4,1.3-1.7,2.8-4.6,3l2.5,9.3,4.2-1.1-1.5-5.5c3.2-1.9,4.8-5.7,3.7-9.3-1.6-6-7.5-6-9.9-5.4-1.8.5-7.8,2.5-5.8,9.7Z"/>
    <polygon class="cls-3" points="89.6 252.9 93.8 251.8 94.9 255.7 90.7 256.8 89.6 252.9"/>
    <path class="cls-2" d="M125.4,84.5c2.1-1.3,4.4-2.3,6.8-2.9l1.4-6.6,11.4-.2,1.6,6.6c2.4.6,4.7,1.5,6.9,2.7l5.8-3.7,8.2,7.8-3.6,5.8c1.3,2.1,2.3,4.3,3,6.7l6.7,1.4.2,11.2-6.7,1.6c-.6,2.4-1.5,4.6-2.7,6.8l3.8,5.6-7.9,8-5.9-3.5c-2.1,1.3-4.4,2.3-6.8,2.9l-1.4,6.6-11.4.2-1.6-6.6c-2.4-.6-4.7-1.5-6.9-2.7l-5.8,3.7-8.2-7.8,3.6-5.8c-1.3-2.1-2.3-4.3-3-6.7l-6.7-1.4-.2-11.2,6.7-1.6c.6-2.4,1.5-4.7,2.7-6.8l-3.8-5.6,7.9-8,5.9,3.5ZM131.4,99.4c-4.7,4.8-4.5,12.4.3,16.9,4.9,4.6,12.6,4.4,17.3-.3,4.7-4.8,4.5-12.4-.3-16.9-4.9-4.6-12.6-4.4-17.3.3Z"/>
    <path class="cls-3" d="M37.4,56.2c1.2-.7,2.5-1.3,3.9-1.7l.8-3.8h6.6c0-.1.9,3.7.9,3.7,1.4.3,2.7.8,4,1.5l3.3-2.1,4.7,4.5-2.1,3.3c.7,1.2,1.3,2.5,1.7,3.9l3.9.8v6.4c.1,0-3.7.9-3.7.9-.3,1.4-.9,2.7-1.6,3.9l2.2,3.3-4.6,4.6-3.4-2c-1.2.7-2.5,1.3-3.9,1.7l-.8,3.8h-6.6c0,.1-.9-3.7-.9-3.7-1.4-.3-2.7-.9-4-1.5l-3.3,2.1-4.7-4.5,2-3.3c-.7-1.2-1.3-2.5-1.7-3.8l-3.9-.8v-6.4c-.1,0,3.7-.9,3.7-.9.3-1.4.9-2.7,1.6-3.9l-2.2-3.3,4.6-4.6,3.4,2ZM40.9,64.8c-2.7,2.7-2.6,7.1.1,9.8s7.2,2.6,10-.1c2.7-2.7,2.6-7.1-.1-9.8,0,0,0,0,0,0-2.8-2.6-7.2-2.6-9.9.2h0Z"/>
    <path class="cls-3" d="M219,52c1.2-.7,2.5-1.3,3.9-1.7l.8-3.8h6.6c0-.1.9,3.7.9,3.7,1.4.3,2.7.8,4,1.5l3.3-2.1,4.7,4.5-2.1,3.3c.7,1.2,1.3,2.5,1.7,3.9l3.9.8v6.4c.1,0-3.7.9-3.7.9-.3,1.4-.9,2.7-1.6,3.9l2.2,3.3-4.6,4.6-3.4-2c-1.2.7-2.5,1.3-3.9,1.7l-.8,3.8h-6.6c0,.1-.9-3.7-.9-3.7-1.4-.3-2.7-.8-4-1.5l-3.3,2.1-4.7-4.5,2.1-3.3c-.7-1.2-1.3-2.5-1.7-3.9l-3.9-.8v-6.4c-.1,0,3.7-.9,3.7-.9.3-1.4.9-2.7,1.6-3.9l-2.2-3.3,4.6-4.6,3.4,2h0ZM222.5,60.6c-2.7,2.7-2.6,7.1.2,9.8,2.8,2.6,7.3,2.6,10-.2s2.6-7.1-.2-9.8c0,0,0,0,0,0-2.8-2.6-7.3-2.6-10,.2Z"/>
  </g>
  <image width="417" height="465" transform="translate(441.4 290.7) scale(0)" xlink:href="../../../logo copy.png"/>
</svg>