<?xml version="1.0" encoding="UTF-8"?>
<svg id="Layer_1" data-name="Layer 1" xmlns="http://www.w3.org/2000/svg" xmlns:xlink="http://www.w3.org/1999/xlink" version="1.1" viewBox="0 0 500 500">
  <defs>
    <style>
      .cls-1 {
        fill-opacity: .7;
        opacity: .2;
      }

      .cls-1, .cls-2, .cls-3, .cls-4, .cls-5, .cls-6, .cls-7, .cls-8, .cls-9, .cls-10, .cls-11, .cls-12, .cls-13, .cls-14, .cls-15, .cls-16 {
        stroke-width: 0px;
      }

      .cls-1, .cls-8, .cls-10, .cls-11, .cls-15 {
        isolation: isolate;
      }

      .cls-1, .cls-9 {
        fill: #000;
      }

      .cls-17 {
        fill: #c799b4;
      }

      .cls-17, .cls-18, .cls-19, .cls-20, .cls-21, .cls-22, .cls-23, .cls-24 {
        stroke-linecap: round;
        stroke-linejoin: round;
      }

      .cls-17, .cls-18, .cls-19, .cls-22, .cls-23, .cls-24 {
        stroke-width: 1.1px;
      }

      .cls-17, .cls-19, .cls-20, .cls-21, .cls-22, .cls-23, .cls-24 {
        stroke: #263238;
      }

      .cls-2 {
        fill: #f5f5f5;
      }

      .cls-18 {
        stroke: #001a35;
      }

      .cls-18, .cls-19, .cls-20, .cls-21, .cls-4 {
        fill: none;
      }

      .cls-3 {
        fill: #ebebeb;
      }

      .cls-25 {
        clip-path: url(#clippath);
      }

      .cls-20 {
        stroke-width: 1.1px;
      }

      .cls-21 {
        stroke-width: 1.1px;
      }

      .cls-26 {
        opacity: 0;
      }

      .cls-22 {
        fill: #001c3a;
      }

      .cls-5 {
        fill: #455a64;
      }

      .cls-6 {
        fill: #263238;
      }

      .cls-23 {
        fill: #f1f5ff;
      }

      .cls-7 {
        fill: #36538e;
      }

      .cls-8 {
        fill: #d5e1ff;
      }

      .cls-8, .cls-10, .cls-11, .cls-15 {
        opacity: .4;
      }

      .cls-27 {
        clip-path: url(#clippath-1);
      }

      .cls-28 {
        clip-path: url(#clippath-4);
      }

      .cls-29 {
        clip-path: url(#clippath-3);
      }

      .cls-30 {
        clip-path: url(#clippath-2);
      }

      .cls-31 {
        clip-path: url(#clippath-7);
      }

      .cls-32 {
        clip-path: url(#clippath-8);
      }

      .cls-33 {
        clip-path: url(#clippath-6);
      }

      .cls-34 {
        clip-path: url(#clippath-5);
      }

      .cls-35 {
        clip-path: url(#clippath-9);
      }

      .cls-10 {
        fill: #667686;
      }

      .cls-36 {
        clip-path: url(#clippath-14);
      }

      .cls-37 {
        clip-path: url(#clippath-13);
      }

      .cls-38 {
        clip-path: url(#clippath-12);
      }

      .cls-39 {
        clip-path: url(#clippath-10);
      }

      .cls-40 {
        clip-path: url(#clippath-11);
      }

      .cls-11, .cls-12 {
        fill: #94d7c8;
      }

      .cls-41 {
        opacity: .3;
      }

      .cls-42 {
        opacity: .3;
      }

      .cls-13 {
        fill: #c7d7ff;
      }

      .cls-24 {
        fill: #999;
      }

      .cls-14, .cls-15 {
        fill: #fff;
      }

      .cls-16 {
        fill: #99a5be;
      }
    </style>
    <clipPath id="clippath">
      <path class="cls-4" d="M248.4,348.1l2.9,5.4c.2.4.5.7.9.8.3.1.6.2.9.1l5.2-.6c.5,0,1-.3,1.3-.8l2.9-4.2c.1-.2.2-.4.3-.7,0-.3,0-.7-.1-1l-2.1-5.2c-.3-.6-.8-1.1-1.5-1.1l-6.1-.5c-.7,0-1.4.3-1.7,1l-2.6,5.1c-.3.5-.3,1.2,0,1.7Z"/>
    </clipPath>
    <clipPath id="clippath-1">
      <path class="cls-4" d="M284.7,308l-1.2,2.2c0,.2-.1.3,0,.5,0,.1,0,.2.2.3l1.4,1.7c.1.2.3.3.6.3h2.1c.1,0,.2,0,.3,0,.1,0,.3-.1.3-.3l1.3-1.9c.2-.2.2-.5,0-.8l-1.2-2.2c-.1-.3-.4-.4-.7-.4l-2.4.3c-.3,0-.5.2-.6.4Z"/>
    </clipPath>
    <clipPath id="clippath-2">
      <path class="cls-4" d="M226,346.2l1.2,2.2c0,.2.2.3.4.3.1,0,.2,0,.4,0l2.2-.2c.2,0,.4-.1.5-.3l1.2-1.7c0,0,0-.2.1-.3,0-.1,0-.3,0-.4l-.9-2.2c-.1-.3-.3-.4-.6-.5l-2.6-.2c-.3,0-.6.1-.7.4l-1.1,2.1c-.1.2-.1.5,0,.7Z"/>
    </clipPath>
    <clipPath id="clippath-3">
      <path class="cls-4" d="M216.4,288.4l-2.3,1.1c-.2,0-.3.2-.4.4,0,.1,0,.2,0,.4l.2,2.2c0,.2.1.4.3.5l1.7,1.2c0,0,.2,0,.3.1.1,0,.3,0,.4,0l2.2-.8c.3-.1.5-.3.5-.6l.3-2.5c0-.3-.1-.6-.4-.7l-2.1-1.1c-.2-.1-.5-.1-.7,0Z"/>
    </clipPath>
    <clipPath id="clippath-4">
      <path class="cls-4" d="M283.5,327.7v3.4c0,1.1-.6,2.1-1.6,2.6l-3.3,1.6c-.4.2-.9.3-1.4.3-.3,0-.5,0-.8-.2l-2.9-1c-1.2-.4-1.9-1.5-1.9-2.7v-3.5c0-.3,0-.6.1-.9.3-.9,1-1.6,1.9-1.9l3.6-1c.5-.1.9-.2,1.4,0l2.6.6c1.3.3,2.3,1.4,2.3,2.8Z"/>
    </clipPath>
    <clipPath id="clippath-5">
      <path class="cls-4" d="M226.5,297.5v3.4c0,1.1.6,2.1,1.6,2.6l3.3,1.5c.4.2.9.3,1.4.3.3,0,.5,0,.8-.2l2.9-1c1.2-.4,1.9-1.5,1.9-2.7v-3.5c0-.3,0-.6-.1-.9-.3-.9-1-1.6-1.9-1.9l-3.6-1c-.5-.1-.9-.2-1.4,0l-2.6.6c-1.3.3-2.3,1.4-2.3,2.8Z"/>
    </clipPath>
    <clipPath id="clippath-6">
      <path class="cls-4" d="M247,332.3l-2,2.8c-.8,1.2-2.4,1.5-3.7.9l-2.3-1.2c-.6-.3-1-.8-1.3-1.3l-.8-1.7c-.3-.6-.3-1.3-.2-1.9,0-.3.2-.7.4-1l2.2-3c.8-1.1,2.1-1.5,3.4-1l2.3.8c.9.3,1.5,1,1.8,1.9l.6,2.2c.2.8,0,1.7-.4,2.4Z"/>
    </clipPath>
    <clipPath id="clippath-7">
      <path class="cls-4" d="M241.8,274.3l1.9,2.9c.4.6.5,1.3.4,1.9,0,.7-.4,1.3-1,1.8l-2,1.7c-.5.4-1.1.6-1.7.7h-1.9c-1,.2-2-.3-2.6-1.2l-2-3.1c-.7-1.1-.6-2.5.3-3.4l1.6-1.8c.6-.7,1.5-1,2.5-.9l2.3.3c.8.1,1.6.6,2.1,1.3Z"/>
    </clipPath>
    <clipPath id="clippath-8">
      <path class="cls-4" d="M275,295.7l-.2,3.4c0,.7-.3,1.3-.8,1.8-.5.5-1.2.8-1.9.9l-2.6.2c-.6,0-1.3-.1-1.8-.5l-1.6-1c-.6-.4-1-.9-1.2-1.5-.1-.3-.2-.7-.1-1l.2-3.7c0-1.3,1-2.3,2.3-2.6l2.4-.5c.9-.2,1.9,0,2.6.7l1.7,1.6c.6.6,1,1.4.9,2.2Z"/>
    </clipPath>
    <clipPath id="clippath-9">
      <path class="cls-4" d="M222.4,316.5l2.8,4.2c1.2,1.8.8,4.1-.8,5.5l-2.9,2.5c-.7.6-1.6,1-2.5,1l-2.8.2c-1.5.1-3-.6-3.8-1.9l-3-4.6c-1-1.6-.9-3.6.4-5.1l2.4-2.7c.9-1,2.3-1.5,3.6-1.4l3.4.4c1.2.1,2.4.8,3.1,1.8Z"/>
    </clipPath>
    <clipPath id="clippath-10">
      <path class="cls-4" d="M260.1,286.8l3.2,4.5c1.3,1.9,3.9,2.5,5.9,1.4l3.7-1.9c.9-.5,1.6-1.2,2-2.1l1.3-2.7c.4-1,.6-2,.3-3.1-.1-.6-.4-1.1-.7-1.5l-3.5-4.8c-1.2-1.7-3.4-2.3-5.3-1.6l-3.7,1.3c-1.4.5-2.5,1.7-2.9,3.1l-1,3.6c-.4,1.3-.1,2.7.7,3.8Z"/>
    </clipPath>
    <clipPath id="clippath-11">
      <path class="cls-4" d="M257.5,308.9l-4.6,8.6c-.3.6-.8,1.1-1.5,1.3-.4.2-.9.2-1.4.2l-8.3-.9c-.8,0-1.6-.5-2.1-1.2l-4.6-6.7c-.2-.3-.4-.7-.4-1.1-.1-.5,0-1.1.2-1.6l3.4-8.3c.4-1,1.3-1.7,2.4-1.8l9.8-.8c1.2,0,2.3.5,2.8,1.5l4.2,8.1c.4.8.4,1.8,0,2.6Z"/>
    </clipPath>
    <clipPath id="clippath-12">
      <ellipse class="cls-4" cx="141.4" cy="460.6" rx="9.7" ry="9.6"/>
    </clipPath>
    <clipPath id="clippath-13">
      <path class="cls-4" d="M161.6,453.8c3.8-3.7,9.9-3.7,13.7,0,3.8,3.7,3.8,9.8,0,13.5s-9.9,3.7-13.7,0-3.8-9.8,0-13.5Z"/>
    </clipPath>
    <clipPath id="clippath-14">
      <path class="cls-4" d="M162.5,341.2v21.9h-15.2v-21.9c0-1.1.9-2,2-2h11.2c1.1,0,2,.9,2,2Z"/>
    </clipPath>
  </defs>
  <rect class="cls-16" x="0" y=".5" width="500" height="500"/>
  <g id="freepik--Plant--inject-19" class="cls-26">
    <path class="cls-5" d="M70.2,157.3c14.4,4.2,26.8,15.3,34.2,30.7,7.3,15.4,11.6,32.5,12.7,50.2,2.7,33.9-7.1,71.4-19.3,102-27.5-18.5-40.2-59.6-45.6-81-8.5-33.7-6.9-101,18-102"/>
    <path class="cls-5" d="M134.3,388.1c-6.7-18.4-4.7-39.7,5.3-55.8,10.2-15.7,25.2-25.9,41.6-28.1,7.4-1.9,15.1,0,21.2,5.5,5,6.3,6.7,15.4,4.4,23.7-2.2,8.1-6.2,15.4-11.5,21-17.4,20.3-37.4,36-61.5,33.6"/>
    <path class="cls-6" d="M122.5,497.3c-.3-2.3-.4-4.7-.4-7,0-5,0-11.4-.4-19.1-1.1-21.1.7-42.4,5.3-62.8,4.9-20.5,14.3-39.1,27.2-53.8,3.9-4.4,8.3-8.2,13-11.3,1.2-.9,2.5-1.6,3.9-2.3.4-.3.9-.5,1.4-.6-6.2,4.5-11.9,9.7-17.3,15.5-12.4,14.7-21.5,33-26.5,53.2-4.6,20.2-6.6,41.2-6,62.1v19.1c0,2.3,0,4.7-.2,7Z"/>
    <path class="cls-6" d="M72.7,208.7c.3.9.6,1.9.8,2.9.5,2.2,1.2,5,1.9,8.4,1.6,7.3,3.9,18,6.6,31.2,5.3,26.4,12.4,63,19.4,103.6,7,40.6,12.6,77.5,16.4,104.3,1.9,13.4,3.3,24.2,4.2,31.9.4,3.6.7,6.4,1,8.7,0,1,0,2,0,3.1-.3-1-.5-2-.6-3-.4-2.2-.8-5-1.4-8.6-1.2-7.7-2.9-18.5-4.9-31.6-4.1-26.7-10-63.8-16.9-104.1-7-40.4-13.8-77.2-18.7-103.6-2.5-12.8-4.5-23.7-5.9-31.4-.6-3.5-1.2-6.4-1.5-8.5-.2-1-.2-2.1-.2-3.1Z"/>
    <path class="cls-5" d="M97.8,418.5c-12.9-39.2-40.7-68.5-74.6-78.8-8.5-2.5-19.1-2.8-24.3,5.7s-1.5,20.7,3.3,29.5c21.1,37.3,58.6,55.7,95.3,46.7"/>
    <path class="cls-6" d="M32.5,369.9c1.8.3,3.6.7,5.3,1.3,2.1.6,4.2,1.3,6.2,2.2,2.3,1,5.3,1.9,8,3.5s6.1,3.1,9.4,5.3c3.5,2.2,7,4.6,10.3,7.3,7.6,6.1,14.6,13.2,20.8,21.2,6.1,8.1,11.4,17,15.9,26.6,2,4.1,3.7,8.4,5.3,12.8,1.4,3.8,2.5,7.7,3.5,11.7,1.1,3.6,1.5,7,2.1,9.9.5,2.5.9,5.1,1.2,7.7.3,2.1.5,4.2.5,6.4-.5,0-1.3-9.3-5.3-23.7-1-3.9-2.3-7.7-3.7-11.4-1.6-4.4-3.3-8.6-5.3-12.8-4.5-9.3-9.8-18.1-15.9-26-6.2-7.8-13-14.9-20.3-21-3.5-2.7-6.8-5.3-10.1-7.3-3-2-6-3.9-9.2-5.5-11.3-5.6-18.9-7.7-18.8-8.2Z"/>
  </g>
  <g>
    <g id="freepik--Graphics--inject-4">
      <path class="cls-18" d="M210.5,406.6l48.7-2.9s2,46.5,14.1,71.1l-53.7,7.6s-7.9-40-9-75.8Z"/>
      <path class="cls-18" d="M209.1,411.3s-.1,31.6,7.1,75.4l51.5-5.1-.7-3.4"/>
      <path class="cls-18" d="M218.3,420.4s4-2.7,6.4-1.8,1.2,4.3,3.5,2.4,6.4-3.7,7.2-1.9,7.8,0,7.8,0c0,0,7.2-1.1,11.1-1.3"/>
      <path class="cls-18" d="M220.8,434c1.9-.8,3.8-1.7,5.6-2.8-.3.7-.4,1.6-.1,2.3.8-.4,1.6-.9,2.5-1.3,0,.6.7,1,1.3.9.7-.1,1.3-.8,1.9-.5.2,0,.3.3.5.3.3.1.6,0,.9-.3l2.6-1.9c0,.8.8,1.4,1.6,1.5.8,0,1.6-.2,2.4-.5,4.6-1.4,9.9.4,14.1-1.8"/>
      <path class="cls-18" d="M222,445c1-.5,2.2-.8,3.4-.9.1.4.2.8.4,1.1.6-.1,1.2-.4,1.7-.7.3.3.9.1,1.2,0l4.5-2.5c-.4,1.5-.5,3-.3,4.5l3.5-3.3c.2.8,1.4.8,2,.3.2-.2.5-.4.8-.4s.4.6,0,.5c.5-.5,1.3-.3,2.1-.2,2.2.3,4.3-1.2,6.4-1.9,2.5-.9,5.3-.6,8-.3"/>
      <path class="cls-18" d="M224.6,457.9c.5,0,.9-.1,1.2-.5.3-.4.6-.7,1.1-.9.4-.2,1.1.2,1,.6,1.5-.6,2.8-1.4,4-2.5-.1,1.4.2,2.8.9,4,.7.3,1.5-.4,1.9-1s1-1.4,1.8-1.4c.3,0,.6.2,1,.2.8,0,1.5-.6,2.2-.8,1.2-.5,2.7,0,3.8-.6,1.5-.8,1.7-3.3,3.4-3.6-.1,2.1-.2,4.2-.3,6.3.8-1.2,1.8-2.2,3-3.1.4.7,1.5.5,2.2,0s1.3-1.1,2.1-1.1c.5,0,.9,0,1.3.2.9.2,1.8,0,2.6-.3"/>
      <path class="cls-18" d="M64.9,433.6h27.5c1.5,0,2.7,1.2,2.7,2.7v43.5c0,1.5-1.2,2.7-2.7,2.7h-27.5c-1.5,0-2.7-1.2-2.7-2.7v-43.5c0-1.5,1.2-2.7,2.7-2.7Z"/>
      <polyline class="cls-18" points="65 432 65 421.5 92.7 421.5 92.7 432 68.9 432"/>
      <line class="cls-18" x1="90.5" y1="423.2" x2="90.5" y2="430.5"/>
      <line class="cls-18" x1="67.4" y1="423.2" x2="67.4" y2="430.5"/>
      <line class="cls-18" x1="71.9" y1="423.2" x2="71.9" y2="430.5"/>
      <line class="cls-18" x1="85.7" y1="423.2" x2="85.7" y2="430.5"/>
      <line class="cls-18" x1="79.5" y1="423.2" x2="79.5" y2="430.5"/>
      <polyline class="cls-18" points="63.1 447 87.9 447 87.9 467 63.1 467"/>
      <line class="cls-18" x1="93.3" y1="436.9" x2="93.3" y2="461.2"/>
      <line class="cls-18" x1="93.3" y1="463" x2="93.3" y2="467"/>
      <line class="cls-18" x1="27.2" y1="477.4" x2="60.1" y2="477.4"/>
      <line class="cls-18" x1="95.1" y1="477.4" x2="104.8" y2="477.4"/>
      <line class="cls-18" x1="205.5" y1="477.4" x2="214.3" y2="477.4"/>
      <line class="cls-18" x1="272.5" y1="477.4" x2="293" y2="477.4"/>
    </g>
    <g id="freepik--Bubble--inject-4">
      <path class="cls-23" d="M295.1,343c16.2-25.3,8.6-58.9-17-74.9-25.6-16-59.5-8.5-75.7,16.8-15.3,23.9-9.5,55.3,13.2,72.3l-2.6,12.4,10.3-7.6c25.3,13.1,56.5,4.8,71.7-19.1Z"/>
      <path class="cls-6" d="M212.9,278.5c19.8-19.6,51.8-19.6,71.6,0,19.8,19.6,19.8,51.3,0,70.9-19.8,19.6-51.8,19.6-71.6,0s-19.8-51.3,0-70.9Z"/>
      <path class="cls-14" d="M248.4,348.1l2.9,5.4c.2.4.5.7.9.8.3.1.6.2.9.1l5.2-.6c.5,0,1-.3,1.3-.8l2.9-4.2c.1-.2.2-.4.3-.7,0-.3,0-.7-.1-1l-2.1-5.2c-.3-.6-.8-1.1-1.5-1.1l-6.1-.5c-.7,0-1.4.3-1.7,1l-2.6,5.1c-.3.5-.3,1.2,0,1.7Z"/>
      <g class="cls-25">
        <path class="cls-11" d="M252.2,354.3c.3.1.6.2.9.1l5.2-.6c.5,0,1-.3,1.3-.8l2.9-4.2c.1-.2.2-.4.3-.7h-5.5c-.7,0-1.4.4-1.8,1l-3.2,5.1Z"/>
      </g>
      <path class="cls-19" d="M248.4,348.1l2.9,5.4c.2.4.5.7.9.8.3.1.6.2.9.1l5.2-.6c.5,0,1-.3,1.3-.8l2.9-4.2c.1-.2.2-.4.3-.7,0-.3,0-.7-.1-1l-2.1-5.2c-.3-.6-.8-1.1-1.5-1.1l-6.1-.5c-.7,0-1.4.3-1.7,1l-2.6,5.1c-.3.5-.3,1.2,0,1.7Z"/>
      <path class="cls-19" d="M261.5,347.4h-4.3c-.8,0-1.6-.4-1.9-1.2l-2.3-4.3"/>
      <line class="cls-19" x1="255.5" y1="348.9" x2="253.1" y2="352.9"/>
      <path class="cls-14" d="M284.7,308l-1.2,2.2c0,.2-.1.3,0,.5,0,.1,0,.2.2.3l1.4,1.7c.1.2.3.3.6.3h2.1c.1,0,.2,0,.3,0,.1,0,.3-.1.3-.3l1.3-1.9c.2-.2.2-.5,0-.8l-1.2-2.2c-.1-.3-.4-.4-.7-.4l-2.4.3c-.3,0-.5.2-.6.4Z"/>
      <g class="cls-27">
        <path class="cls-11" d="M283.4,310.7c0,.1,0,.2.2.3l1.4,1.7c.1.2.3.3.6.3h2.1c.1,0,.2,0,.3,0l-1.3-1.9c-.2-.2-.5-.4-.8-.4h-2.5Z"/>
      </g>
      <path class="cls-19" d="M284.7,308l-1.2,2.2c0,.2-.1.3,0,.5,0,.1,0,.2.2.3l1.4,1.7c.1.2.3.3.6.3h2.1c.1,0,.2,0,.3,0,.1,0,.3-.1.3-.3l1.3-1.9c.2-.2.2-.5,0-.8l-1.2-2.2c-.1-.3-.4-.4-.7-.4l-2.4.3c-.3,0-.5.2-.6.4Z"/>
      <path class="cls-19" d="M287.9,312.4l-1-1.5c-.2-.3-.2-.6,0-.9l1-1.8"/>
      <line class="cls-19" x1="286" y1="310.6" x2="284" y2="310.7"/>
      <path class="cls-14" d="M226,346.2l1.2,2.2c0,.2.2.3.4.3.1,0,.2,0,.4,0l2.2-.2c.2,0,.4-.1.5-.3l1.2-1.7c0,0,0-.2.1-.3,0-.1,0-.3,0-.4l-.9-2.2c-.1-.3-.3-.4-.6-.5l-2.6-.2c-.3,0-.6.1-.7.4l-1.1,2.1c-.1.2-.1.5,0,.7Z"/>
      <g class="cls-30">
        <path class="cls-11" d="M227.6,348.7c.1,0,.2,0,.4,0l2.2-.2c.2,0,.4-.1.5-.3l1.2-1.7c0,0,0-.2.1-.3h-2.3c-.3,0-.6.2-.7.4l-1.3,2.1Z"/>
      </g>
      <path class="cls-19" d="M226,346.2l1.2,2.2c0,.2.2.3.4.3.1,0,.2,0,.4,0l2.2-.2c.2,0,.4-.1.5-.3l1.2-1.7c0,0,0-.2.1-.3,0-.1,0-.3,0-.4l-.9-2.2c-.1-.3-.3-.4-.6-.5l-2.6-.2c-.3,0-.6.1-.7.4l-1.1,2.1c-.1.2-.1.5,0,.7Z"/>
      <path class="cls-19" d="M231.5,345.9h-1.8c-.3,0-.7-.2-.8-.5l-.9-1.8"/>
      <line class="cls-19" x1="229" y1="346.5" x2="228" y2="348.2"/>
      <path class="cls-14" d="M216.4,288.4l-2.3,1.1c-.2,0-.3.2-.4.4,0,.1,0,.2,0,.4l.2,2.2c0,.2.1.4.3.5l1.7,1.2c0,0,.2,0,.3.1.1,0,.3,0,.4,0l2.2-.8c.3-.1.5-.3.5-.6l.3-2.5c0-.3-.1-.6-.4-.7l-2.1-1.1c-.2-.1-.5-.1-.7,0Z"/>
      <g class="cls-29">
        <path class="cls-11" d="M213.7,289.9c0,.1,0,.2,0,.4l.2,2.2c0,.2.1.4.3.5l1.7,1.2c0,0,.2,0,.3.1v-2.3c0-.3,0-.6-.3-.7l-2.1-1.4Z"/>
      </g>
      <path class="cls-19" d="M216.4,288.4l-2.3,1.1c-.2,0-.3.2-.4.4,0,.1,0,.2,0,.4l.2,2.2c0,.2.1.4.3.5l1.7,1.2c0,0,.2,0,.3.1.1,0,.3,0,.4,0l2.2-.8c.3-.1.5-.3.5-.6l.3-2.5c0-.3-.1-.6-.4-.7l-2.1-1.1c-.2-.1-.5-.1-.7,0Z"/>
      <path class="cls-19" d="M216.5,293.8v-1.8c0-.3.2-.6.5-.8l1.8-.9"/>
      <line class="cls-19" x1="215.9" y1="291.3" x2="214.3" y2="290.2"/>
      <path class="cls-14" d="M283.5,327.7v3.4c0,1.1-.6,2.1-1.6,2.6l-3.3,1.6c-.4.2-.9.3-1.4.3-.3,0-.5,0-.8-.2l-2.9-1c-1.2-.4-1.9-1.5-1.9-2.7v-3.5c0-.3,0-.6.1-.9.3-.9,1-1.6,1.9-1.9l3.6-1c.5-.1.9-.2,1.4,0l2.6.6c1.3.3,2.3,1.4,2.3,2.8Z"/>
      <g class="cls-28">
        <path class="cls-11" d="M277.4,328.5s0,4-.2,7c-.3,0-.5,0-.8-.2l-2.9-1c-1.2-.4-1.9-1.5-1.9-2.7v-3.5c0-.3,0-.6.1-.9l5.7,1.2Z"/>
      </g>
      <path class="cls-19" d="M283.5,327.7v3.4c0,1.1-.6,2.1-1.6,2.6l-3.3,1.6c-.4.2-.9.3-1.4.3-.3,0-.5,0-.8-.2l-2.9-1c-1.2-.4-1.9-1.5-1.9-2.7v-3.5c0-.3,0-.6.1-.9.3-.9,1-1.6,1.9-1.9l3.6-1c.5-.1.9-.2,1.4,0l2.6.6c1.3.3,2.3,1.4,2.3,2.8Z"/>
      <path class="cls-19" d="M273.8,327.6l3.1.6c.4,0,.7.4.7.8v4.4"/>
      <line class="cls-19" x1="281.8" y1="327" x2="278.8" y2="328.1"/>
      <path class="cls-14" d="M226.5,297.5v3.4c0,1.1.6,2.1,1.6,2.6l3.3,1.5c.4.2.9.3,1.4.3.3,0,.5,0,.8-.2l2.9-1c1.2-.4,1.9-1.5,1.9-2.7v-3.5c0-.3,0-.6-.1-.9-.3-.9-1-1.6-1.9-1.9l-3.6-1c-.5-.1-.9-.2-1.4,0l-2.6.6c-1.3.3-2.3,1.4-2.3,2.8Z"/>
      <g class="cls-34">
        <path class="cls-11" d="M232.7,298.4s0,4,.2,7c.3,0,.5,0,.8-.2l2.9-1c1.2-.4,1.9-1.5,1.9-2.7v-3.5c0-.3,0-.6-.1-.9l-5.7,1.2Z"/>
      </g>
      <path class="cls-19" d="M226.5,297.5v3.4c0,1.1.6,2.1,1.6,2.6l3.3,1.5c.4.2.9.3,1.4.3.3,0,.5,0,.8-.2l2.9-1c1.2-.4,1.9-1.5,1.9-2.7v-3.5c0-.3,0-.6-.1-.9-.3-.9-1-1.6-1.9-1.9l-3.6-1c-.5-.1-.9-.2-1.4,0l-2.6.6c-1.3.3-2.3,1.4-2.3,2.8Z"/>
      <path class="cls-19" d="M236.2,297.5l-3.1.6c-.4,0-.7.4-.7.8v4.4"/>
      <line class="cls-19" x1="228.3" y1="296.8" x2="231.3" y2="298"/>
      <path class="cls-14" d="M247,332.3l-2,2.8c-.8,1.2-2.4,1.5-3.7.9l-2.3-1.2c-.6-.3-1-.8-1.3-1.3l-.8-1.7c-.3-.6-.3-1.3-.2-1.9,0-.3.2-.7.4-1l2.2-3c.8-1.1,2.1-1.5,3.4-1l2.3.8c.9.3,1.5,1,1.8,1.9l.6,2.2c.2.8,0,1.7-.4,2.4Z"/>
      <g class="cls-33">
        <path class="cls-11" d="M243.3,336.2c-.7.2-1.4,0-2-.2l-2.3-1.2c-.6-.3-1-.8-1.3-1.3l-.8-1.7c-.3-.6-.3-1.3-.2-1.9l5,1.6,1.6,4.8Z"/>
      </g>
      <path class="cls-19" d="M247,332.3l-2,2.8c-.8,1.2-2.4,1.5-3.7.9l-2.3-1.2c-.6-.3-1-.8-1.3-1.3l-.8-1.7c-.3-.6-.3-1.3-.2-1.9,0-.3.2-.7.4-1l2.2-3c.8-1.1,2.1-1.5,3.4-1l2.3.8c.9.3,1.5,1,1.8,1.9l.6,2.2c.2.8,0,1.7-.4,2.4Z"/>
      <path class="cls-19" d="M238.7,330.5l2.3.8c.6.2,1.3,0,1.6-.6l2.1-3.1"/>
      <line class="cls-19" x1="242" y1="332.5" x2="242.6" y2="334.4"/>
      <path class="cls-14" d="M241.8,274.3l1.9,2.9c.4.6.5,1.3.4,1.9,0,.7-.4,1.3-1,1.8l-2,1.7c-.5.4-1.1.6-1.7.7h-1.9c-1,.2-2-.3-2.6-1.2l-2-3.1c-.7-1.1-.6-2.5.3-3.4l1.6-1.8c.6-.7,1.5-1,2.5-.9l2.3.3c.8.1,1.6.6,2.1,1.3Z"/>
      <g class="cls-31">
        <path class="cls-11" d="M244.2,279.1c0,.7-.4,1.3-1,1.8l-2,1.7c-.5.4-1.1.6-1.7.7h-1.9c-.7.2-1.3,0-1.9-.4l3.3-4.1,5.1.3Z"/>
      </g>
      <path class="cls-19" d="M241.8,274.3l1.9,2.9c.4.6.5,1.3.4,1.9,0,.7-.4,1.3-1,1.8l-2,1.7c-.5.4-1.1.6-1.7.7h-1.9c-1,.2-2-.3-2.6-1.2l-2-3.1c-.7-1.1-.6-2.5.3-3.4l1.6-1.8c.6-.7,1.5-1,2.5-.9l2.3.3c.8.1,1.6.6,2.1,1.3Z"/>
      <path class="cls-19" d="M237.1,281.2l1.6-1.9c.4-.5.5-1.2,0-1.7l-2.2-3.1"/>
      <line class="cls-19" x1="240.2" y1="278.9" x2="242.2" y2="279"/>
      <path class="cls-14" d="M275,295.7l-.2,3.4c0,.7-.3,1.3-.8,1.8-.5.5-1.2.8-1.9.9l-2.6.2c-.6,0-1.3-.1-1.8-.5l-1.6-1c-.6-.4-1-.9-1.2-1.5-.1-.3-.2-.7-.1-1l.2-3.7c0-1.3,1-2.3,2.3-2.6l2.4-.5c.9-.2,1.9,0,2.6.7l1.7,1.6c.6.6,1,1.4.9,2.2Z"/>
      <g class="cls-32">
        <path class="cls-11" d="M274,301c-.5.5-1.2.8-1.9.9l-2.6.2c-.6,0-1.3-.1-1.8-.5l-1.6-1c-.6-.4-1-.9-1.2-1.5l5.1-1.3,3.9,3.3Z"/>
      </g>
      <path class="cls-19" d="M275,295.7l-.2,3.4c0,.7-.3,1.3-.8,1.8-.5.5-1.2.8-1.9.9l-2.6.2c-.6,0-1.3-.1-1.8-.5l-1.6-1c-.6-.4-1-.9-1.2-1.5-.1-.3-.2-.7-.1-1l.2-3.7c0-1.3,1-2.3,2.3-2.6l2.4-.5c.9-.2,1.9,0,2.6.7l1.7,1.6c.6.6,1,1.4.9,2.2Z"/>
      <path class="cls-19" d="M267.1,298.6l2.4-.5c.6-.1,1.1-.7,1.1-1.3v-3.8"/>
      <line class="cls-19" x1="271" y1="298.5" x2="272.5" y2="299.8"/>
      <path class="cls-14" d="M222.4,316.5l2.8,4.2c1.2,1.8.8,4.1-.8,5.5l-2.9,2.5c-.7.6-1.6,1-2.5,1l-2.8.2c-1.5.1-3-.6-3.8-1.9l-3-4.6c-1-1.6-.9-3.6.4-5.1l2.4-2.7c.9-1,2.3-1.5,3.6-1.4l3.4.4c1.2.1,2.4.8,3.1,1.8Z"/>
      <g class="cls-35">
        <path class="cls-11" d="M225.9,323.6c-.1,1-.6,2-1.4,2.7l-2.9,2.5c-.7.6-1.6,1-2.5,1l-2.8.2c-1,0-1.9-.2-2.7-.8l4.8-6,7.5.4Z"/>
      </g>
      <path class="cls-19" d="M222.4,316.5l2.8,4.2c1.2,1.8.8,4.1-.8,5.5l-2.9,2.5c-.7.6-1.6,1-2.5,1l-2.8.2c-1.5.1-3-.6-3.8-1.9l-3-4.6c-1-1.6-.9-3.6.4-5.1l2.4-2.7c.9-1,2.3-1.5,3.6-1.4l3.4.4c1.2.1,2.4.8,3.1,1.8Z"/>
      <path class="cls-19" d="M215.5,326.7l2.4-2.7c.6-.7.7-1.8.1-2.5l-3.2-4.5"/>
      <line class="cls-19" x1="220.1" y1="323.3" x2="223.1" y2="323.5"/>
      <path class="cls-14" d="M260.1,286.8l3.2,4.5c1.3,1.9,3.9,2.5,5.9,1.4l3.7-1.9c.9-.5,1.6-1.2,2-2.1l1.3-2.7c.4-1,.6-2,.3-3.1-.1-.6-.4-1.1-.7-1.5l-3.5-4.8c-1.2-1.7-3.4-2.3-5.3-1.6l-3.7,1.3c-1.4.5-2.5,1.7-2.9,3.1l-1,3.6c-.4,1.3-.1,2.7.7,3.8Z"/>
      <g class="cls-39">
        <path class="cls-11" d="M265.9,293.1c1.1.3,2.3.1,3.2-.4l3.7-1.9c.9-.5,1.6-1.2,2-2.1l1.3-2.7c.4-1,.6-2,.3-3.1l-8,2.5-2.5,7.7Z"/>
      </g>
      <path class="cls-19" d="M260.1,286.8l3.2,4.5c1.3,1.9,3.9,2.5,5.9,1.4l3.7-1.9c.9-.5,1.6-1.2,2-2.1l1.3-2.7c.4-1,.6-2,.3-3.1-.1-.6-.4-1.1-.7-1.5l-3.5-4.8c-1.2-1.7-3.4-2.3-5.3-1.6l-3.7,1.3c-1.4.5-2.5,1.7-2.9,3.1l-1,3.6c-.4,1.3-.1,2.7.7,3.8Z"/>
      <path class="cls-19" d="M273.3,283.9l-3.7,1.3c-1,.3-2.1,0-2.6-.9l-3.4-5"/>
      <line class="cls-19" x1="267.9" y1="287.2" x2="267" y2="290.2"/>
      <path class="cls-14" d="M257.5,308.9l-4.6,8.6c-.3.6-.8,1.1-1.5,1.3-.4.2-.9.2-1.4.2l-8.3-.9c-.8,0-1.6-.5-2.1-1.2l-4.6-6.7c-.2-.3-.4-.7-.4-1.1-.1-.5,0-1.1.2-1.6l3.4-8.3c.4-1,1.3-1.7,2.4-1.8l9.8-.8c1.2,0,2.3.5,2.8,1.5l4.2,8.1c.4.8.4,1.8,0,2.6Z"/>
      <g class="cls-40">
        <path class="cls-11" d="M251.5,318.8c-.4.2-.9.2-1.4.2l-8.3-.9c-.8,0-1.6-.5-2.1-1.2l-4.6-6.7c-.2-.3-.4-.7-.4-1.1h8.8c1.2,0,2.2.6,2.9,1.6l5.1,8.1Z"/>
      </g>
      <path class="cls-19" d="M257.5,308.9l-4.6,8.6c-.3.6-.8,1.1-1.5,1.3-.4.2-.9.2-1.4.2l-8.3-.9c-.8,0-1.6-.5-2.1-1.2l-4.6-6.7c-.2-.3-.4-.7-.4-1.1-.1-.5,0-1.1.2-1.6l3.4-8.3c.4-1,1.3-1.7,2.4-1.8l9.8-.8c1.2,0,2.3.5,2.8,1.5l4.2,8.1c.4.8.4,1.8,0,2.6Z"/>
      <path class="cls-19" d="M236.6,307.8h6.9c1.3,0,2.5-.7,3.1-1.9l3.6-6.9"/>
      <line class="cls-19" x1="246.3" y1="310.3" x2="250.2" y2="316.6"/>
    </g>
    <g id="freepik--Device--inject-4">
      <path class="cls-22" d="M116.1,361h77.6c5,0,9.1,4,9.1,9v107.3c0,5-4.1,9-9.1,9h-77.6c-5,0-9.1-4-9.1-9v-107.3c0-5,4.1-9,9.1-9Z"/>
      <path class="cls-15" d="M198.3,371.1v105c0,3.1-2.6,5.7-5.7,5.7h-75.2c-3.2,0-5.7-2.5-5.7-5.7v-105c0-3.1,2.6-5.7,5.7-5.7h75.2c3.2,0,5.7,2.5,5.7,5.7Z"/>
      <path class="cls-19" d="M198.3,417v57.1c0,4.2-3.5,7.6-7.7,7.6h-42.7"/>
      <line class="cls-19" x1="177.5" y1="365.4" x2="179.7" y2="365.4"/>
      <path class="cls-19" d="M111.5,434.7v-61.6c0-4.2,3.5-7.6,7.7-7.6h49.4"/>
      <line class="cls-19" x1="111.5" y1="454.3" x2="111.5" y2="439.7"/>
      <line class="cls-19" x1="111.5" y1="462.5" x2="111.5" y2="460.5"/>
      <line class="cls-19" x1="145.2" y1="481.8" x2="140.6" y2="481.8"/>
      <line class="cls-19" x1="198.3" y1="399.9" x2="198.3" y2="410.7"/>
      <line class="cls-19" x1="198.3" y1="384.7" x2="198.3" y2="387.6"/>
      <path class="cls-6" d="M119.4,374h71.1c2.7,0,4.9,2.2,4.9,4.9v54.9c0,2.7-2.2,4.9-4.9,4.9h-71.1c-2.7,0-4.9-2.2-4.9-4.9v-54.9c0-2.7,2.2-4.9,4.9-4.9Z"/>
      <path class="cls-24" d="M120.6,379.6h68.6c1.7,0,3.1,1.4,3.1,3.1v47.3c0,1.7-1.4,3.1-3.1,3.1h-68.6c-1.7,0-3.1-1.4-3.1-3.1v-47.3c0-1.7,1.4-3.1,3.1-3.1Z"/>
      <ellipse class="cls-12" cx="141.4" cy="460.6" rx="9.7" ry="9.6"/>
      <g class="cls-38">
        <path class="cls-1" d="M141.4,451c-5.3,0-9.7,4.3-9.7,9.6,0,5.3,4.3,9.6,9.7,9.6s9.7-4.3,9.7-9.6h0c0-5.3-4.3-9.6-9.7-9.6ZM140.3,465.9c-3.6,0-6.6-2.9-6.6-6.5s3-6.5,6.6-6.5,6.6,2.9,6.6,6.5-3,6.5-6.6,6.5h0Z"/>
      </g>
      <ellipse class="cls-21" cx="141.4" cy="460.6" rx="9.7" ry="9.6"/>
      <polygon class="cls-6" points="136.7 460.5 144.2 464.3 144.2 456.8 136.7 460.5"/>
      <path class="cls-12" d="M161.6,453.8c3.8-3.7,9.9-3.7,13.7,0,3.8,3.7,3.8,9.8,0,13.5s-9.9,3.7-13.7,0-3.8-9.8,0-13.5Z"/>
      <g class="cls-37">
        <path class="cls-1" d="M168.5,451c-5.3,0-9.7,4.3-9.7,9.6,0,5.3,4.3,9.6,9.7,9.6,5.3,0,9.7-4.3,9.7-9.6h0c0-5.3-4.3-9.6-9.7-9.6ZM167.4,465.9c-3.6,0-6.6-3-6.6-6.6s3-6.5,6.6-6.5c3.6,0,6.6,2.9,6.6,6.5,0,3.6-2.9,6.5-6.6,6.6,0,0,0,0,0,0h0Z"/>
      </g>
      <path class="cls-20" d="M161.6,453.8c3.8-3.7,9.9-3.7,13.7,0,3.8,3.7,3.8,9.8,0,13.5s-9.9,3.7-13.7,0-3.8-9.8,0-13.5Z"/>
      <polygon class="cls-6" points="173.2 460.5 165.6 456.8 165.6 464.3 173.2 460.5"/>
      <polygon class="cls-6" points="126.1 405.2 126.1 394.5 124.8 393.6 123.5 394.5 123.5 405.2 124.8 406.1 126.1 405.2"/>
      <polygon class="cls-6" points="138.5 405.2 139.8 406.1 141.1 405.2 141.1 394.5 139.8 393.6 138.5 394.5 138.5 405.2"/>
      <polygon class="cls-6" points="139.9 407.5 138.5 408.4 138.5 419.1 139.9 420 141.2 419.1 141.2 408.4 139.9 407.5"/>
      <polygon class="cls-6" points="137.7 394 138.7 392.7 137.7 391.4 126.9 391.4 126 392.7 126.9 394 137.7 394"/>
      <polygon class="cls-6" points="126.9 405.5 126 406.8 126.9 408.1 137.7 408.1 138.7 406.8 137.7 405.5 126.9 405.5"/>
      <polygon class="cls-6" points="126.9 419.6 126 421 126.9 422.3 137.7 422.3 138.7 421 137.7 419.6 126.9 419.6"/>
      <polygon class="cls-6" points="150.5 405.2 150.5 394.5 149.2 393.6 147.9 394.5 147.9 405.2 149.2 406.1 150.5 405.2"/>
      <polygon class="cls-6" points="164.3 407.5 162.9 408.4 162.9 419.1 164.3 420 165.6 419.1 165.6 408.4 164.3 407.5"/>
      <polygon class="cls-6" points="162.1 394 163 392.7 162.1 391.4 151.3 391.4 150.4 392.7 151.3 394 162.1 394"/>
      <polygon class="cls-6" points="151.3 405.5 150.4 406.8 151.3 408.1 162.1 408.1 163 406.8 162.1 405.5 151.3 405.5"/>
      <polygon class="cls-6" points="151.3 419.6 150.4 421 151.3 422.3 162.1 422.3 163 421 162.1 419.6 151.3 419.6"/>
      <polygon class="cls-6" points="171.3 405.2 171.3 394.5 170 393.6 168.6 394.5 168.6 405.2 170 406.1 171.3 405.2"/>
      <polygon class="cls-6" points="171.3 408.4 170 407.5 168.7 408.4 168.7 419.1 170 420 171.3 419.1 171.3 408.4"/>
      <polygon class="cls-6" points="183.7 405.2 185 406.1 186.3 405.2 186.3 394.5 185 393.6 183.7 394.5 183.7 405.2"/>
      <polygon class="cls-6" points="185 407.5 183.7 408.4 183.7 419.1 185 420 186.3 419.1 186.3 408.4 185 407.5"/>
      <polygon class="cls-6" points="182.9 394 183.8 392.7 182.9 391.4 172.1 391.4 171.2 392.7 172.1 394 182.9 394"/>
      <polygon class="cls-6" points="172.1 419.6 171.2 421 172.1 422.3 182.9 422.3 183.8 421 182.9 419.6 172.1 419.6"/>
      <rect class="cls-6" x="143.7" y="421" width="1.8" height="1.8"/>
      <path class="cls-15" d="M167,375.6l-36.8,59.9h-8.5c-3,0-5.4-2.4-5.4-5.4h0v-48.8c0-3.2,2.6-5.8,5.9-5.8h44.8Z"/>
      <path class="cls-14" d="M162.5,341.2v21.9h-15.2v-21.9c0-1.1.9-2,2-2h11.2c1.1,0,2,.9,2,2Z"/>
      <g class="cls-36">
        <path class="cls-11" d="M162.5,341.2v13.1h-15.2v-13.1c0-1.1.9-2,2-2h11.2c1.1,0,2,.9,2,2Z"/>
      </g>
      <path class="cls-19" d="M162.5,341.2v21.9h-15.2v-21.9c0-1.1.9-2,2-2h11.2c1.1,0,2,.9,2,2Z"/>
      <line class="cls-19" x1="140.7" y1="363" x2="169.1" y2="363"/>
    </g>
    <g id="freepik--Blood--inject-4">
      <path class="cls-17" d="M154.9,333.3s8.1,14.7,0,14.7,0-14.7,0-14.7Z"/>
    </g>
    <g id="freepik--Hand--inject-4">
      <path class="cls-14" d="M160.2,326.4s-1.2,6-9.4,1.6c-8.2-4.4-12.4-8.6-12.4-8.6-4.8-2.9-9.4-6.3-13.6-10l-5.6-2.3s.7,2.1,1.5,4.4c.7,2.1,1.4,4.3,1.6,5.1.4,1.8-3.5,5.7-4.8,6.6,0,0,2.1,3.2,0,6s-19.7.5-19.7.5c0,0-2.7.2-9.8-2.2,0,0-16,0-26.7-2.8-6.7-1.8-13.2-4.3-19.4-7.5,0,0-6.9,1.7-12.1-1.2-4.1-.1-8.3,0-12.4.4-1.2.1-3.1.3-5.5.7-2,.2-4.3.5-6.9.9l-6.2-41.1c9.6.2,18.6.3,20.4.1,8.1-.6,14.2,0,18.9,0,14.2-.3,49.6-5,56.7-4.6,7.1.4,13.2,8.4,13.2,8.4l22.1,13,16.2,15.4s9.3,14.1,14,17.3Z"/>
      <path class="cls-10" d="M122.2,316.5c.4,1.8-3.5,5.7-4.8,6.6,0,0,2.1,3.2,0,6s-19.7.5-19.7.5c0,0-2.7.2-9.8-2.2,0,0-16,0-26.7-2.8-6.7-1.8-13.2-4.3-19.4-7.5,0,0-6.9,1.7-12.1-1.1-4.1-.1-8.3,0-12.4.4-1.2.1-3.1.3-5.5.7,3.2-1.9,6.8-3.1,10.5-3.5,0,0-7.3-10.1-5-17.6,0,0,2.7,11.1,12.2,15s31.6-10.2,31.6-10.2c0,0,6.2,2.9,8.7.8s.5,3.9,2.4,6.2l.5-1.5c0,.4-.7,4,1.1,4.7l.7-1.5s2.9,8.7,4.9,11.3,12.3,3.9,13.3,2.2-4-23.9-4.1-24.5c.2.3,3.8,4.7,4.1,7s3.5,17,4.3,18.6,6.6,2.4,8.8,0c0,0-3.6-21.5-3.7-23.4s2.6-.9,2.6,2.5,4.5,8.4,6.8,12.4,8.9,3.6,10.6,1.1Z"/>
      <path class="cls-8" d="M160.2,326.4s-1.2,6-9.4,1.6c-8.2-4.4-12.4-8.6-12.4-8.6-4.8-2.9-9.4-6.3-13.6-10l-5.6-2.3s.7,2.1,1.5,4.4c-.3-.3-.5-.5-.8-.8,0,0-3.1-13.3-8.9-18.1,0,0-2-2.2-2.5-4.2s4.9,2.9,5.9,4.8,9,8.9,11,9.8,12.1,9,14.5,10.3,12.1,20.4,20.4,13.1Z"/>
      <path class="cls-19" d="M-1.3,276.8c9.6.2,18.6.3,20.4.1,8.1-.6,14.2.1,18.9,0,14.2-.3,49.6-5,56.7-4.6,7.1.4,13.2,8.4,13.2,8.4l22.1,13,16.2,15.4s9.3,14.1,14,17.4c0,0-1.2,6-9.4,1.6-8.2-4.4-12.4-8.6-12.4-8.6-4.8-2.9-9.4-6.3-13.6-10l-5.6-2.3s2.7,7.8,3.1,9.5-3.5,5.7-4.9,6.6c0,0,2.1,3.2,0,6s-19.7.5-19.7.5c0,0-2.7.2-9.8-2.2,0,0-16,0-26.7-2.8-6.7-1.8-13.2-4.3-19.4-7.5,0,0-6.9,1.7-12.2-1.2-4.1-.1-8.3,0-12.4.4-2.1.2-6.6.7-12.4,1.6"/>
      <path class="cls-19" d="M107.9,286.5s0,1.6,1.9,4.5,7.1,9.2,9.3,16"/>
      <path class="cls-19" d="M102.3,295.9c-.2,1.8-.2,3.7,0,5.5.3,2.2,3.4,18.8,3.6,21s-.2,6.8-8.2,7.2"/>
      <path class="cls-19" d="M88,294.4c.2,2,.5,3.9,1,5.8.9,3.3,4,18.8,3.6,22.6s-4.8,4.6-4.8,4.6"/>
      <path class="cls-19" d="M49.1,314.6c6.1,0,11.9-2.1,16.8-5.7"/>
      <path class="cls-19" d="M63.5,304.7s.2,4.1,8.6,8.8"/>
      <path class="cls-19" d="M75.9,307.7s-4.6,4.5-3.8,7.6c.7,3.1,3.8,6,3.8,6"/>
      <path class="cls-19" d="M68.1,310.9c-.7,1.2-1.3,2.5-1.8,3.8-.6,1.7-2,7.1,0,8.6s7.3,2.8,16,4"/>
      <path class="cls-19" d="M72.1,315.4s-2.5,2.2-3.1,4.4"/>
      <path class="cls-19" d="M73.9,303c-1.2,2.5-2.1,5.2-2.6,7.9"/>
      <path class="cls-19" d="M104.8,315.9s3.5,3.7,7.2,4.7"/>
      <path class="cls-19" d="M117.4,323.1s-4,1.8-11.6,0"/>
      <path class="cls-19" d="M63.5,313.8s2.7-2,3.7-3.7"/>
      <path class="cls-19" d="M89.5,275.4c5.9,1.6,6.5,2.9,7.6,7.5"/>
      <path class="cls-19" d="M73.9,281.7c5.5,1.3,5.4,3.4,6.3,5.7"/>
      <path class="cls-19" d="M124.8,309.3c.3-.8.7-1.6,1.2-2.4"/>
      <path class="cls-19" d="M138.4,319.3s2.1-.2,2.9-1.1"/>
      <path class="cls-19" d="M17.3,297.9s1.6,10.9,9.9,14.8"/>
    </g>
  </g>
  <g id="freepik--Character--inject-19">
    <path class="cls-7" d="M324.3,237.9l-34.1-3.8-14.4-34.8-11.2,3.1s8.3,36.8,17.6,42.5c9.3,5.7,41,6.7,41,6.7l1.2-13.8Z"/>
    <path class="cls-6" d="M319.9,234.2c5.5-6.6,15.1-7.2,21.3-1.3,6.2,5.9,6.8,16.1,1.3,22.7s-15.1,7.2-21.3,1.3c-6.2-5.9-6.8-16.1-1.3-22.7Z"/>
    <path class="cls-6" d="M331.2,261c-8.4,0-15.1-7.2-15.1-16.1,0-8.9,6.8-16.1,15.1-16.1,8.4,0,15.1,7.2,15.1,16.1,0,4.3-1.6,8.4-4.4,11.4-2.8,3-6.7,4.7-10.7,4.7ZM331.2,228.8c-8.3,0-15.1,7.2-15.1,16,0,8.9,6.7,16.1,15.1,16.1,8.3,0,15.1-7.2,15.1-16,0-4.3-1.6-8.3-4.4-11.4-2.8-3-6.7-4.7-10.7-4.7h0Z"/>
    <path class="cls-6" d="M281.9,224.2c6.1-1.6,12.2,2.4,13.7,8.9s-2.3,13-8.4,14.5c-6.1,1.6-12.2-2.4-13.7-8.9-1.5-6.5,2.3-13,8.4-14.5Z"/>
    <path class="cls-6" d="M262.9,188.1c3.6-3.8,9.5-3.8,13.1,0,3.6,3.8,3.6,10.1,0,13.9s-9.5,3.8-13.1,0c-3.6-3.8-3.6-10.1,0-13.9Z"/>
    <path class="cls-6" d="M283.8,189.8l-7.6,6.9h0l-2.8-3.5h0l7.6-6.9c.8-.8,2.1-.6,2.8.3l.2.2c.7.9.6,2.2-.2,3,0,0,0,0,0,0Z"/>
    <path class="cls-6" d="M274.2,177.2v10.3c0,.2-.1.3-.3.3h-3.7c-.2,0-.3-.1-.3-.3h0v-10.3c0-1.2.9-2.1,2-2.1h.3c1.1,0,2,.9,2,2.1h0Z"/>
    <path class="cls-6" d="M267.3,177.3l2.1,10.1c0,.2,0,.3-.2.4h0l-3.6.9c-.2,0-.3,0-.3-.2h0s-2.1-10.1-2.1-10.1c-.2-1.1.4-2.3,1.5-2.5h.3c1.1-.3,2.1.4,2.4,1.5h0Z"/>
    <path class="cls-6" d="M259.9,179.8l4.9,8.9c0,.1,0,.3-.1.4h0l-3.2,2c-.1,0-.3,0-.4-.1h0s-4.9-8.9-4.9-8.9c-.5-1-.2-2.3.7-2.9l.3-.2c.9-.6,2.2-.2,2.7.8h0Z"/>
    <polygon class="cls-7" points="482.7 323.5 472.5 328.1 443 254.5 453.2 249.9 482.7 323.5"/>
    <path class="cls-6" d="M431.6,236.2c5.4-6.8,14.9-7.6,21.3-1.9,6.4,5.7,7.2,15.9,1.8,22.7s-14.9,7.6-21.3,1.9c-6.4-5.7-7.2-15.9-1.8-22.7Z"/>
    <path class="cls-6" d="M443.2,262.7c-8.4,0-15.2-7.2-15.2-16.1,0-1.6.2-3.2.7-4.7,2.5-8.5,10.9-13.2,18.9-10.6,8,2.6,12.5,11.6,10,20.1-2,6.7-7.8,11.3-14.4,11.3ZM443.2,230.5c-8.3,0-15.1,7.2-15.1,16.1,0,8.9,6.8,16,15.1,16,6.6,0,12.5-4.6,14.4-11.3h0c2.4-8.5-2-17.4-10-20.1-1.5-.5-3-.7-4.5-.7h0Z"/>
    <path class="cls-6" d="M451.9,288.1c1.7-6.4,7.9-10.2,14-8.4,6,1.8,9.6,8.4,7.9,14.8s-7.9,10.2-14,8.4c-6-1.8-9.6-8.4-7.9-14.8Z"/>
    <ellipse class="cls-6" cx="479.9" cy="328.9" rx="9.3" ry="9.9"/>
    <path class="cls-6" d="M467.8,338.8l5.2-9.1h0l3.6,2.4h0l-5.2,9.1c-.6,1-1.8,1.3-2.7.7h0s-.2-.2-.2-.2c-.9-.6-1.2-1.9-.7-2.9,0,0,0,0,0,0Z"/>
    <path class="cls-6" d="M480.7,347.5l-3.1-9.8c0-.2,0-.3.2-.4h0l3.5-1.2c.1,0,.3,0,.4.2h0l3.1,9.8c.3,1.1-.2,2.3-1.3,2.7h0s-.3,0-.3,0c-1,.3-2.1-.2-2.5-1.3Z"/>
    <path class="cls-6" d="M487.3,345.1l-5-8.8c0-.1,0-.3,0-.4h0l3.2-2c.1,0,.3,0,.4.1h0l5,8.8c.6,1,.3,2.3-.7,2.9h0s-.2.2-.2.2c-.9.6-2.2.3-2.7-.7h0Z"/>
    <path class="cls-6" d="M493.5,340.2l-7.3-6.8c-.1-.1-.1-.3,0-.4h0l2.4-2.9c.1-.1.3-.1.4,0h0l7.3,6.8c.8.8.9,2.1.2,3h0s-.2.2-.2.2c-.7.9-2,.9-2.8.2Z"/>
    <path class="cls-7" d="M326.7,228.2s1.1,112.8,60.6,115.1c59.5,2.2,62-114.2,62-115.1,0,0-7-16.8-61.3-16.2-54.3.7-61.3,16.2-61.3,16.2Z"/>
    <path class="cls-6" d="M410.4,208.3h-50.3c-3.3,0-5.9-2.8-5.9-6.3v-.9c0-3.5,2.7-6.3,5.9-6.3h50.3c3.3,0,5.9,2.8,5.9,6.3v.9c0,3.5-2.7,6.3-5.9,6.3Z"/>
    <rect class="cls-6" x="383.1" y="84.6" width="4.3" height="23.4"/>
    <path class="cls-7" d="M445.8,151.1c6.9-1.7,13.7,2.8,15.4,10.1s-2.6,14.6-9.5,16.4c-6.9,1.7-13.7-2.8-15.4-10.1-1.6-7.3,2.6-14.6,9.5-16.4Z"/>
    <path class="cls-7" d="M317.1,150.1c6.9-1.7,13.7,2.9,15.3,10.2,1.6,7.3-2.8,14.6-9.6,16.2s-13.7-2.9-15.3-10.2c-1.6-7.3,2.8-14.6,9.6-16.2Z"/>
    <path class="cls-7" d="M382.8,102.9s-51.9-.7-60.1,47.2c-8.2,47.9,35.7,48.7,48.3,49.6,5.7.4,18,.5,28.8.2,23.9-.4,40.8-5.4,46.6-29,.7-2.8,1.1-5.6,1.3-8.5,1.5-25.9-14.9-60.9-64.9-59.6Z"/>
    <path class="cls-6" d="M420.4,175.7l-75.4,1.2c-7.9.1-14.4-6.5-14.6-15,0,0,0,0,0,0h0c-.1-8.4,6.2-15.3,14.1-15.5,0,0,0,0,0,0l75.4-1.2c7.9-.2,14.4,6.5,14.6,14.9,0,0,0,0,0,0h0c.1,8.4-6.2,15.3-14.1,15.5,0,0,0,0,0,0Z"/>
    <path class="cls-14" d="M360.7,160.3c-.5,2.6-2.9,4.4-5.4,3.9-2.5-.5-4.1-3.1-3.6-5.7.5-2.6,2.9-4.4,5.4-3.9,2.5.5,4.1,3.1,3.6,5.7,0,0,0,0,0,0Z"/>
    <path class="cls-14" d="M413.3,159.4c-.5,2.6-2.9,4.4-5.4,3.9-2.5-.5-4.1-3.1-3.6-5.7s2.9-4.4,5.4-3.9c0,0,0,0,0,0,2.5.5,4.1,3.1,3.6,5.7Z"/>
    <path class="cls-6" d="M405.7,273c-.8,12-10.7,21.1-22,20.2-11.3-.9-19.8-11.3-19-23.4.8-12,10.7-21.1,22-20.2,11.3.9,19.8,11.3,19,23.4Z"/>
    <path class="cls-14" d="M400.2,272.6c-.6,8.8-7.8,15.3-16,14.7-8.2-.6-14.4-8.3-13.8-17,.6-8.8,7.8-15.3,16-14.7h0c8.2.6,14.4,8.3,13.8,17h0Z"/>
    <path class="cls-7" d="M393,275.4c-.1-.9-.2-1.7-.1-2.6,0-1.6,0-4,0-6.9l.2.3-7.7-4.8h.4l-7.8,4.6c-.2.4.3-.5.2-.4h0v2.5c0,.8,0,1.6,0,2.4,0,1.6,0,3.1,0,4.6l-.2-.4,7.6,4.9h-.3c2.4-1.4,4.3-2.4,5.7-3.2.7-.4,1.5-.8,2.2-1.1-.6.5-1.3,1-1.9,1.4-1.3.9-3.2,2.1-5.7,3.6h-.2c0,.1-.2,0-.2,0l-7.7-4.8h-.2v-.4c0-1.5,0-3,0-4.6v-4.8h0c0,0,.4-.8.2-.4l7.8-4.6h.2c0-.1.2,0,.2,0l7.6,4.9h.2v.3c0,3-.2,5.4-.3,7,0,.8,0,1.6-.2,2.5Z"/>
    <path class="cls-7" d="M380.2,78.7c2.8-3,7.3-3,10.1,0,2.8,3,2.8,7.8,0,10.8s-7.3,3-10.1,0-2.8-7.8,0-10.8Z"/>
    <path class="cls-14" d="M373.8,158.1c.3,0,.2,1.7,1.2,4,.6,1.3,1.4,2.5,2.4,3.4,1.2,1.1,2.7,1.8,4.3,2,1.6.1,3.2-.3,4.6-1.2,1.2-.7,2.2-1.7,3-2.9,1.4-2,1.5-3.8,1.8-3.7.1,0,.3.4.3,1.2,0,1.2-.3,2.3-.8,3.3-.8,1.5-1.9,2.9-3.2,3.8-3.5,2.6-8.3,2.2-11.2-1.1-1.2-1.2-2.1-2.7-2.5-4.4-.3-1.1-.4-2.3-.3-3.4.1-.8.3-1.2.5-1.2Z"/>
    <path class="cls-6" d="M443,180.4c0,0,.8-1.5,1.7-4.3,1.1-3.5,1.8-7.2,2.1-11,.3-3.7.4-7.5.2-11.2,0-1.4-.1-2.6-.2-3.4,0-.4,0-.8,0-1.3.1.4.2.8.2,1.2.1.8.2,2,.3,3.4.3,3.8.2,7.5-.1,11.3-.3,3.8-1,7.5-2.2,11-.4,1.1-.8,2.1-1.4,3.1-.2.4-.4.7-.7,1Z"/>
    <path class="cls-6" d="M322.7,148.5c0,.4-.1.8-.3,1.2-.1.4-.2.9-.3,1.4s-.3,1.2-.4,1.9c-.3,1.7-.5,3.3-.6,5-.1,2.1,0,4.1,0,6.2.2,2.1.5,4.1.9,6.1.4,1.6.8,3.3,1.4,4.8.2.7.5,1.3.7,1.8s.4,1,.6,1.3c.2.4.3.8.5,1.2-.2-.3-.4-.7-.6-1.1-.2-.4-.4-.9-.6-1.3-.2-.5-.5-1.1-.7-1.8-.6-1.6-1.1-3.2-1.5-4.8-.5-2-.8-4.1-1-6.2-.2-2.1-.2-4.2,0-6.2.1-1.7.3-3.4.7-5.1.1-.7.3-1.3.4-1.9s.3-1,.4-1.4c.1-.4.2-.8.4-1.2Z"/>
    <path class="cls-6" d="M326.4,228.1h.3c0,0,.9.4.9.4l3.4,1.3,2.5.9c.9.3,1.9.6,3,1,2.2.7,4.6,1.6,7.4,2.3l4.3,1.2c1.5.4,3.1.7,4.7,1.1,3.2.8,6.8,1.3,10.5,2,8.1,1.2,16.2,1.8,24.3,1.9,8.1,0,16.3-.7,24.3-1.9,3.7-.6,7.2-1.2,10.5-2,1.6-.4,3.2-.7,4.7-1.1l4.3-1.2c2.8-.7,5.2-1.6,7.4-2.3,1.1-.4,2.1-.7,3-1l2.5-.9,3.4-1.3.9-.3c.1,0,.2,0,.3,0h-.3c0,.1-.9.5-.9.5l-3.4,1.4-2.5,1c-.9.3-1.9.7-3,1-2.2.7-4.6,1.6-7.4,2.3l-4.3,1.2c-1.5.4-3.1.7-4.7,1.1-3.2.8-6.8,1.4-10.5,2-8.1,1.2-16.2,1.8-24.4,1.9-8.2,0-16.3-.7-24.4-1.9-3.7-.6-7.3-1.2-10.5-2-1.6-.4-3.2-.7-4.7-1.1l-4.3-1.2c-2.8-.7-5.2-1.6-7.4-2.3-1.1-.4-2.1-.7-3-1l-2.5-1-3.4-1.4-.9-.4c0,0-.2-.1-.3-.2Z"/>
    <g class="cls-41">
      <path class="cls-9" d="M326.7,228.2s7-15.5,61.3-16.2c54.3-.7,61.3,16.2,61.3,16.2,0,0-54.8,28.7-122.7,0Z"/>
    </g>
    <path class="cls-14" d="M376.2,106.5c0,0-.1,0-.2,0h-.5c-.5.1-1.2.1-2.1.2-2.6.3-5.1.7-7.7,1.4-13,3.2-24.6,11.3-32.4,22.9-3.8,5.6-6.6,11.8-8.4,18.3-.3.9-.4,1.7-.6,2.2l-.2.6c0,0,0,.1,0,.2,0,0,0-.1,0-.2,0-.2,0-.3.1-.6.1-.5.2-1.2.5-2.2.7-2.7,1.5-5.3,2.6-7.8,3.5-8.4,8.7-15.9,15.4-21.7,6.7-5.8,14.5-9.9,23-11.9,2.5-.6,5.1-1,7.7-1.2.9,0,1.6,0,2.1-.1h.6c.1,0,.2,0,.2,0Z"/>
    <path class="cls-14" d="M325.4,172.7c-.3-.5-.6-1.1-.7-1.7-1-2.9-1.4-5.9-1.3-9,0-.6,0-1.3.2-1.9.1,0,0,2.9.5,6.4.5,3.5,1.5,6.2,1.4,6.2Z"/>
    <path class="cls-14" d="M311.8,168.3s-.2-.1-.4-.5c-.4-.5-.7-1-.9-1.5-1.8-3.6-1.2-8.1,1.4-11.1.4-.5.8-.9,1.3-1.2.2-.1.3-.3.5-.3,0,0-.7.6-1.6,1.7-2.4,3-2.9,7.2-1.3,10.8.6,1.4,1.1,2.1,1.1,2.1Z"/>
    <path class="cls-14" d="M385.7,78.8c-.6,0-1.3,0-1.9,0-2.7.3-4.7,2.8-4.5,5.7,0,.4.1.9.3,1.3.2.6.5,1.2.8,1.8,0,0-.2-.1-.4-.4-.3-.4-.6-.8-.7-1.3-1.1-2.8.2-5.9,2.8-7,.5-.2,1.1-.4,1.7-.4.5,0,1,0,1.4.1.4,0,.5.2.5.2Z"/>
    <path class="cls-14" d="M456.3,157.8c0,.1-1.3-1.2-3.2-2.1s-3.6-1.2-3.6-1.4c1.3,0,2.6.3,3.8,1,1.2.5,2.3,1.4,3.1,2.5Z"/>
    <path class="cls-14" d="M345.3,308.5c0,0,0-.1,0-.2l-.3-.5c-.2-.5-.6-1.1-1-2-.2-.4-.4-.9-.7-1.4l-.8-1.7c-.6-1.2-1.2-2.7-1.8-4.3-.3-.8-.6-1.6-1-2.5s-.6-1.8-1-2.8c-.7-1.9-1.3-4-2-6.2-1.3-4.4-2.5-9.3-3.6-14.4s-1.9-10.1-2.5-14.7-1.1-8.6-1.3-12.1c-.2-1.7-.3-3.3-.3-4.7s-.2-2.6-.2-3.5,0-1.7,0-2.2v-.6c0,0,0-.1,0-.2,0,0,0,.1,0,.2v.6c0,.5.1,1.3.2,2.2s.1,2.2.3,3.5.2,2.9.4,4.7c.3,3.4.8,7.5,1.4,12,.6,4.5,1.5,9.5,2.6,14.6,1.1,5.2,2.3,10,3.6,14.4.7,2.2,1.3,4.3,1.9,6.2.3,1,.6,1.9.9,2.8l.9,2.5c.6,1.6,1.2,3,1.7,4.3l.7,1.7c.2.5.5,1,.7,1.4l.9,2,.2.5c0,0,0,.1.1.2Z"/>
    <path class="cls-14" d="M313.6,238.3c-2,0-4,0-5.9-.2-2,0-3.9-.3-5.9-.7,2,0,4,0,5.9.2,2,0,3.9.3,5.9.7Z"/>
    <path class="cls-14" d="M283.2,220c-1.1-1.8-2.2-3.6-3.1-5.6-1-1.9-1.9-3.8-2.7-5.8,1.1,1.8,2.2,3.6,3.1,5.6,1,1.9,1.9,3.8,2.7,5.8Z"/>
    <path class="cls-14" d="M374,335.6c-.3,0-.6,0-.9-.1-.9-.2-1.7-.4-2.5-.7-1.2-.4-2.4-.9-3.6-1.5-1.4-.7-2.8-1.6-4.1-2.5-1.3-1-2.5-2.1-3.6-3.2-.9-1-1.8-2-2.5-3.1-.5-.7-1-1.5-1.4-2.3-.2-.3-.3-.6-.4-.9,0,0,.7,1.2,2.1,3,.8,1.1,1.7,2.1,2.6,3,2.2,2.3,4.8,4.2,7.6,5.7,1.1.6,2.3,1.1,3.5,1.5,2.1.7,3.4,1,3.4,1.1Z"/>
    <path class="cls-14" d="M386.4,295.8c-.2,0-.4,0-.6,0-.5,0-1.1,0-1.6,0-2,0-4-.4-5.9-1-1.3-.4-2.6-1-3.9-1.7-1.4-.8-2.8-1.7-4-2.8-5.9-4.9-9.1-12.6-8.4-20.6.1-1.7.4-3.4.8-5,.4-1.4.9-2.8,1.5-4.1.9-1.9,2-3.7,3.3-5.3.4-.4.7-.8,1.1-1.2.1-.1.3-.3.4-.4,0,0-.5.6-1.5,1.7-1.3,1.6-2.4,3.4-3.2,5.3-1.3,2.8-2,5.9-2.2,9-.7,7.8,2.4,15.4,8.3,20.2,1.2,1,2.5,2,3.9,2.8,1.2.7,2.5,1.3,3.8,1.7,1.9.7,3.9,1,5.9,1.1,1.5,0,2.2,0,2.2,0Z"/>
    <path class="cls-14" d="M288.5,228c0,0-.6-.2-1.6-.5-2.7-.6-5.5,0-7.7,2-.8.7-1.2,1.3-1.3,1.2.2-.6.6-1.1,1-1.5,2.1-2.1,5.1-2.8,7.9-2,.6.1,1.1.4,1.6.8Z"/>
    <path class="cls-14" d="M407.9,142.5c0,.1-9.9.2-22.2.2s-22.2-.1-22.2-.2,9.9-.2,22.2-.2,22.2,0,22.2.2Z"/>
    <path class="cls-14" d="M370.1,196.3c-.1,0-.2,0-.4,0h-1.1c-.5.1-1,.2-1.7.2s-1.4,0-2.3,0c-1.7,0-3.7-.1-5.9-.4-2.4-.3-4.8-.7-7.2-1.3-2.4-.6-4.7-1.3-7-2.2-1.9-.7-3.7-1.5-5.5-2.5-.8-.4-1.4-.8-2-1.1s-1.1-.6-1.5-.9l-.9-.6c-.1,0-.2-.1-.3-.2,0,0,.1,0,.3.2l1,.5c.4.2.9.5,1.5.9s1.3.7,2,1c1.5.8,3.4,1.6,5.5,2.4,4.5,1.7,9.2,2.9,14,3.5,2.2.3,4.2.4,5.9.5.8,0,1.6,0,2.3,0h2.8c.1,0,.3,0,.4,0Z"/>
    <path class="cls-14" d="M434.7,235.1c0,0-.1,0-.2,0l-.6.2-2.2.9c-1,.4-2.2.8-3.6,1.3s-3,1-4.8,1.5l-2.8.8c-1,.3-2,.5-3.1.8-2.1.5-4.4,1-6.8,1.5-10.5,1.9-21.2,2.6-31.8,2.1-2.4-.2-4.8-.3-7-.6-1.1-.1-2.1-.2-3.1-.4l-2.9-.4c-1.8-.2-3.5-.6-4.9-.9s-2.7-.5-3.7-.8l-2.3-.6-.6-.2c0,0-.1,0-.2,0,0,0,.1,0,.2,0h.6c0,.1,2.3.6,2.3.6,1,.2,2.3.5,3.7.7s3.1.6,4.9.8l2.9.4c1,.1,2.1.2,3.1.3,2.2.2,4.5.4,6.9.5,4.9.2,10.3.2,15.9-.1,5.6-.4,11-1.1,15.8-1.9,2.4-.5,4.7-.9,6.8-1.4,1.1-.3,2.1-.5,3.1-.7l2.8-.8c1.8-.5,3.4-1,4.8-1.4s2.6-.9,3.6-1.2l2.3-.8.6-.2h.2Z"/>
  </g>
  <g id="freepik--background-complete--inject-19" class="cls-42">
    <path class="cls-3" d="M56.3,233.5l-7.9-5.3s-4.6,6.5-11.6,2c-2.8-1.7-4.2-5-3.4-8.2.6-2.6,2.4-4.8,5-5.9,2.9-1.3,7.2-1.2,11.9,3.3l12.3-17.5-7.8-5.3-7.2,10.2s-12.9-4.6-21.3,7.2c-8,11.4.6,21,5,24,3.4,2.3,15.5,9.4,25-4.4Z"/>
    <polygon class="cls-3" points="69.2 194.1 61.2 188.8 66.3 181.5 74.3 186.9 69.2 194.1"/>
    <path class="cls-3" d="M79.9,239.5l4.2-1.1c-.5-2,.7-3.9,2.7-4.5,0,0,0,0,0,0,1.4-.4,3,0,3.9,1.3.7,1,1,2.2.6,3.4-.4,1.3-1.7,2.8-4.6,3l2.5,9.3,4.2-1.1-1.5-5.5c3.2-1.9,4.8-5.7,3.7-9.3-1.6-6-7.5-6-9.9-5.4-1.8.5-7.8,2.5-5.8,9.7Z"/>
    <polygon class="cls-3" points="89.6 252.9 93.8 251.8 94.9 255.7 90.7 256.8 89.6 252.9"/>
    <path class="cls-2" d="M125.4,84.5c2.1-1.3,4.4-2.3,6.8-2.9l1.4-6.6,11.4-.2,1.6,6.6c2.4.6,4.7,1.5,6.9,2.7l5.8-3.7,8.2,7.8-3.6,5.8c1.3,2.1,2.3,4.3,3,6.7l6.7,1.4.2,11.2-6.7,1.6c-.6,2.4-1.5,4.6-2.7,6.8l3.8,5.6-7.9,8-5.9-3.5c-2.1,1.3-4.4,2.3-6.8,2.9l-1.4,6.6-11.4.2-1.6-6.6c-2.4-.6-4.7-1.5-6.9-2.7l-5.8,3.7-8.2-7.8,3.6-5.8c-1.3-2.1-2.3-4.3-3-6.7l-6.7-1.4-.2-11.2,6.7-1.6c.6-2.4,1.5-4.7,2.7-6.8l-3.8-5.6,7.9-8,5.9,3.5ZM131.4,99.4c-4.7,4.8-4.5,12.4.3,16.9,4.9,4.6,12.6,4.4,17.3-.3,4.7-4.8,4.5-12.4-.3-16.9-4.9-4.6-12.6-4.4-17.3.3Z"/>
    <path class="cls-3" d="M37.4,56.2c1.2-.7,2.5-1.3,3.9-1.7l.8-3.8h6.6c0-.1.9,3.7.9,3.7,1.4.3,2.7.8,4,1.5l3.3-2.1,4.7,4.5-2.1,3.3c.7,1.2,1.3,2.5,1.7,3.9l3.9.8v6.4c.1,0-3.7.9-3.7.9-.3,1.4-.9,2.7-1.6,3.9l2.2,3.3-4.6,4.6-3.4-2c-1.2.7-2.5,1.3-3.9,1.7l-.8,3.8h-6.6c0,.1-.9-3.7-.9-3.7-1.4-.3-2.7-.9-4-1.5l-3.3,2.1-4.7-4.5,2-3.3c-.7-1.2-1.3-2.5-1.7-3.8l-3.9-.8v-6.4c-.1,0,3.7-.9,3.7-.9.3-1.4.9-2.7,1.6-3.9l-2.2-3.3,4.6-4.6,3.4,2ZM40.9,64.8c-2.7,2.7-2.6,7.1.1,9.8s7.2,2.6,10-.1c2.7-2.7,2.6-7.1-.1-9.8,0,0,0,0,0,0-2.8-2.6-7.2-2.6-9.9.2h0Z"/>
    <path class="cls-3" d="M219,52c1.2-.7,2.5-1.3,3.9-1.7l.8-3.8h6.6c0-.1.9,3.7.9,3.7,1.4.3,2.7.8,4,1.5l3.3-2.1,4.7,4.5-2.1,3.3c.7,1.2,1.3,2.5,1.7,3.9l3.9.8v6.4c.1,0-3.7.9-3.7.9-.3,1.4-.9,2.7-1.6,3.9l2.2,3.3-4.6,4.6-3.4-2c-1.2.7-2.5,1.3-3.9,1.7l-.8,3.8h-6.6c0,.1-.9-3.7-.9-3.7-1.4-.3-2.7-.8-4-1.5l-3.3,2.1-4.7-4.5,2.1-3.3c-.7-1.2-1.3-2.5-1.7-3.9l-3.9-.8v-6.4c-.1,0,3.7-.9,3.7-.9.3-1.4.9-2.7,1.6-3.9l-2.2-3.3,4.6-4.6,3.4,2h0ZM222.5,60.6c-2.7,2.7-2.6,7.1.2,9.8,2.8,2.6,7.3,2.6,10-.2s2.6-7.1-.2-9.8c0,0,0,0,0,0-2.8-2.6-7.3-2.6-10,.2Z"/>
  </g>
  <polygon class="cls-6" points="349.8 48.9 319.2 52.4 326.4 61 349.8 48.9"/>
  <polygon class="cls-14" points="330.4 51.3 319.2 52.4 325.1 58.3 330.4 51.3"/>
  <path class="cls-6" d="M319.1,52.1l11.1-1.1c.1,0,.3,0,.4.1,0,.1,0,.2,0,.3l-5.3,7c0,0-.2.1-.3.1-.1,0-.2,0-.3-.1l-5.8-5.9c0,0-.1-.2,0-.3,0,0,0,0,0,0,0,0,.1,0,.2,0ZM329.6,51.7l-9.7.9,5.1,5.1,4.6-6.1Z"/>
  <polygon class="cls-14" points="349.8 48.9 326.4 61 329.7 68.5 349.8 48.9"/>
  <path class="cls-6" d="M326.2,60.7l23.4-12c.1,0,.3,0,.5,0,.1.1.1.3,0,.4l-20,19.6c0,0-.2.1-.3,0-.1,0-.2-.1-.3-.2l-3.3-7.5c0-.1,0-.2,0-.3,0,0,0,0,0,0ZM347.9,50.2l-21.1,10.8,3,6.8,18.1-17.7Z"/>
  <polygon class="cls-14" points="325.1 58.3 319.8 48.5 349.8 48.9 325.1 58.3"/>
  <path class="cls-6" d="M319.7,48.2l30,.5c.2,0,.3,0,.4.2,0,.1,0,.3-.2.3l-24.7,9.3c0,0-.2,0-.3,0,0,0-.2,0-.2-.2l-5.3-9.8c0,0,0-.2,0-.3h0c0,0,.1-.1.2-.1ZM348.1,49.2l-27.8-.4,4.9,9.1,22.9-8.7Z"/>
  <path class="cls-13" d="M2.5,254.4c.7.3,1.4.7,2.2,1l-.4.5c-.7-.3-1.5-.6-2.2-1l.4-.5h0ZM6.9,256.3c.7.3,1.5.6,2.3.9l-.3.6c-.8-.3-1.5-.6-2.2-.9l.3-.6h0ZM11.4,258.1c.7.3,1.5.6,2.3.9l-.3.6c-.8-.3-1.5-.6-2.3-.8l.3-.6h0ZM15.9,259.7c.8.3,1.5.5,2.3.8l-.2.6c-.8-.2-1.6-.5-2.3-.8l.3-.6h0ZM20.6,261.2c.8.2,1.5.5,2.4.7l-.2.6c-.8-.2-1.6-.4-2.4-.7l.2-.6h0ZM25.2,262.5c.8.2,1.6.4,2.4.6l-.2.6c-.8-.2-1.6-.4-2.4-.6l.2-.6h0ZM30,263.6c.8.2,1.6.3,2.4.5v.6c-.9-.2-1.7-.3-2.5-.5v-.6c.1,0,.1,0,.1,0ZM34.7,264.5c.8.1,1.6.3,2.4.4v.6c-.9-.1-1.7-.3-2.5-.4v-.6c.1,0,0,0,0,0ZM248.9,92.1l.6.4-1.1.9-.4.4-.6-.4.4-.4,1.1-.9ZM246.5,95.2c-.5.4-1,.9-1.5,1.3l-.6-.4c.5-.5,1-.9,1.5-1.3l.6.4ZM250.5,90.8c.5-.4,1.1-.8,1.7-1.2l.6.5c-.6.4-1.1.8-1.6,1.2l-.6-.4h0ZM39.6,265.3c.8.1,1.6.2,2.4.3v.6c-.9,0-1.7-.2-2.5-.3v-.6c0,0,0,0,0,0ZM243.5,97.9l-1.4,1.4-.7-.4c.5-.5.9-.9,1.4-1.4l.7.4ZM255.6,87.3l.6.5c-.6.4-1.2.8-1.7,1.2l-.6-.5,1.7-1.2ZM240.8,100.7c-.5.5-.9,1-1.3,1.5l-.7-.4c.4-.5.9-1,1.3-1.5l.7.4ZM257.3,86.1c.6-.4,1.2-.7,1.7-1.1l.6.5c-.6.4-1.2.7-1.8,1.1l-.6-.5h0ZM238.2,103.6c-.4.5-.8,1-1.2,1.5l-.7-.4c.4-.5.8-1,1.3-1.5l.7.4ZM260.9,83.9c.6-.4,1.2-.7,1.8-1.1l.5.5-1.8,1.1-.5-.5h0ZM264.6,81.7c.6-.3,1.2-.7,1.9-1l.5.5-1.9,1-.5-.5h0ZM235.8,106.6c-.4.5-.8,1-1.2,1.5l-.7-.4c.4-.5.8-1,1.2-1.5l.7.4ZM270.2,78.7l.5.5-1.9,1-.5-.5,1.9-1ZM233.5,109.6c-.4.5-.7,1-1.1,1.6l-.7-.3,1.1-1.6.7.3ZM46.8,266.1v.6c-.8,0-1.6-.1-2.4-.2v-.6c.8.1,1.6.2,2.4.2ZM274.1,76.7l.5.5-1.9,1-.5-.5,1.9-1ZM231.4,112.7c-.3.5-.7,1-1,1.6l-.8-.3,1-1.6.8.3ZM278.1,74.9l.5.6-2,.9-.5-.5,2-.9ZM229.4,115.9l-1,1.6-.8-.3,1-1.6.8.3ZM282,73.1l.5.6-2,.9-.5-.6,2-.9ZM227.5,119.2c-.3.5-.6,1.1-.9,1.6l-.8-.3c.3-.6.6-1.1.9-1.6l.7.3ZM49.2,266.3c.8,0,1.6,0,2.4.1v.6c-.8,0-1.6,0-2.4-.1v-.6s0,0,0,0ZM286.1,71.3l.4.5-2,.9-.5-.6,2.1-.8ZM225.7,122.5l-.8,1.7-.8-.3.9-1.7.7.3ZM290.2,69.7l.4.6-2,.8-.4-.5,2-.8ZM224,125.8l-.8,1.7-.8-.3c.3-.6.5-1.1.8-1.7l.8.3ZM294.3,68.1l.4.6-2.1.8-.5-.6,2.1-.8ZM54.1,266.5c.8,0,1.6,0,2.4,0v.6c-.7,0-1.5,0-2.4,0v-.6c0,0,0,0,0,0ZM222.4,129.1l-.8,1.7-.8-.3.8-1.7.8.3ZM298.5,66.5l.4.6-2.1.8-.4-.6,2.1-.7ZM220.9,132.5l-.7,1.7-.8-.2.7-1.7.8.3ZM302.6,65l.4.6-2.1.8-.4-.6,2.1-.8ZM58.9,266.6c.8,0,1.6,0,2.3,0v.6c-.7,0-1.5,0-2.3,0v-.6c0,0,0,0,0,0ZM306.9,63.5l.4.6-2.1.7-.4-.6,2.1-.7ZM219.4,135.9l-.7,1.7-.8-.2.7-1.7.8.2ZM311.2,62.1l.4.6-2.1.7-.4-.6,2.2-.7ZM218.1,139.3l-.7,1.7-.8-.2.6-1.7.8.3ZM66.1,266.3l.2.6c-.8,0-1.6,0-2.4,0v-.6c-.1,0,2.3,0,2.3,0ZM315.6,60.8l.4.6-2.2.7-.4-.6,2.2-.7ZM216.8,142.8l-.7,1.7-.8-.2.7-1.7.8.2ZM70.8,266l.2.6c-.8,0-1.6.1-2.4.2l-.2-.6,2.4-.2ZM320,59.5l.4.6-2.2.6-.4-.6,2.2-.6ZM215.4,146.2l-.6,1.7-.8-.2.7-1.7.7.2ZM322.2,58.9c1.4-.4,2.3-.6,2.3-.6l.3.6s-.8.2-2.2.6l-.3-.6h0ZM214.2,149.7l-.6,1.7-.8-.2.6-1.7.8.2ZM73.1,265.7c.8,0,1.6-.2,2.4-.3l.2.6c-.8,0-1.6.2-2.4.3l-.2-.6h0ZM212.9,153.1l-.6,1.7-.8-.2.6-1.7.8.2ZM77.8,265.1c.8-.1,1.6-.2,2.4-.4l.2.6c-.8.1-1.6.2-2.3.3l-.2-.6h0ZM211.7,156.6l-.6,1.7-.8-.2.6-1.7.8.2ZM84.8,264l.3.6-2.3.4-.3-.6,2.3-.4ZM210.4,160l-.7,1.7-.8-.2.7-1.7.8.2ZM209,163.5l-.7,1.7-.8-.2.7-1.7.8.2ZM89.3,263.1l.3.6c-.8.2-1.5.3-2.3.5l-.3-.6,2.3-.5ZM207.6,166.9l-.7,1.7-.8-.2.7-1.7.8.3ZM91.5,262.6c.8-.2,1.5-.3,2.3-.5l.3.6c-.7.2-1.5.3-2.3.5l-.3-.6h0ZM206.2,170.3l-.7,1.7-.8-.2.7-1.7.8.2ZM98.2,261l.3.6-2.2.6-.3-.6,2.2-.6ZM204.7,173.7v.3c-.1,0-.8,1.4-.8,1.4l-.8-.3c.2-.5.4-1,.6-1.4v-.3c.1,0,.9.3.9.3ZM102.6,259.8l.4.6c-.7.2-1.5.4-2.2.6l-.3-.6,2.2-.6ZM203.2,177.1c-.3.5-.6,1.1-.8,1.7l-.8-.3.8-1.6.8.3ZM106.9,258.5l.4.6c-.7.2-1.4.5-2.2.7l-.4-.6,2.1-.7ZM201.5,180.4c-.3.6-.6,1.1-.9,1.7l-.7-.3.8-1.7.8.3ZM111.1,257.1l.4.6c-.7.2-1.4.5-2.1.7l-.4-.6,2.1-.7ZM199.8,183.8c-.3.5-.6,1.1-.9,1.6l-.8-.3c.3-.5.6-1.1.9-1.6l.8.3ZM198,187.1l-.9,1.6-.8-.3c.3-.5.6-1.1.9-1.6l.8.3ZM113.2,256.3c.7-.3,1.4-.5,2-.8l.5.6-2.1.8-.4-.6h0ZM196.1,190.3l-1,1.6-.8-.3,1-1.6.8.3ZM117.4,254.8c.7-.3,1.4-.5,2-.8l.5.6c-.7.3-1.3.5-2.1.8l-.4-.6h0ZM194.1,193.5l-1,1.6-.8-.3,1-1.6.8.3ZM121.4,253.1c.7-.3,1.3-.6,2-.8l.5.6c-.7.3-1.3.6-2,.9l-.5-.6h0ZM192,196.7l-1.1,1.6-.7-.3,1.1-1.6.7.3ZM125.4,251.4c.7-.3,1.3-.6,2-.9l.5.6-2,.9-.5-.6h0ZM189.8,199.8l-1.1,1.5-.7-.4,1.1-1.5.7.4ZM131.3,248.6l.5.5c-.6.3-1.3.6-1.9,1l-.5-.5,1.9-1ZM187.6,202.9l-1.2,1.6-.7-.4,1.2-1.5.7.3ZM135.1,246.6l.5.5-1.9,1-.5-.5,1.9-1ZM185.2,205.9l-1.2,1.5-.7-.4,1.2-1.5.7.3ZM138.8,244.5l.5.5-1.9,1.1-.5-.5,1.9-1.1ZM182.7,208.9l-1.3,1.5-.7-.4c.4-.5.8-1,1.2-1.5l.7.4ZM142.5,242.4l.5.5c-.6.4-1.2.7-1.8,1.1l-.5-.5,1.8-1.1ZM180.2,211.9l-1.3,1.5-.7-.4,1.3-1.5.7.4ZM146,240.1l.6.5c-.6.4-1.2.8-1.8,1.1l-.6-.5c.6-.4,1.2-.7,1.8-1.1ZM177.6,214.8l-1.3,1.4-.7-.4,1.3-1.4.7.4ZM149.5,237.9l.6.5-1.7,1.2-.6-.5,1.7-1.2ZM174.9,217.6l-1.4,1.4-.7-.4c.5-.5.9-.9,1.4-1.4l.7.4ZM152.9,235.5l.6.5-1.7,1.2-.6-.5,1.7-1.2ZM172.1,220.4l-1.4,1.4-.7-.4,1.4-1.4.7.4ZM169.2,223.2l-1.5,1.4-.6-.4,1.5-1.4.6.4ZM154.5,234.3c.6-.4,1.1-.8,1.6-1.2l.6.5c-.5.4-1.1.8-1.6,1.2l-.6-.5h0ZM166.2,225.8l-1.5,1.3-.6-.4,1.5-1.3.6.4ZM159.4,230.6l.6.4-1.6,1.3-.6-.4,1.6-1.3ZM163.1,228.5l-1.6,1.3-.6-.4,1.6-1.3.6.4Z"/>
  <image width="417" height="465" transform="translate(375.9 260.3) scale(0)" xlink:href="../../../logo copy.png"/>
</svg>